<svg width="22" height="22" viewBox="0 0 22 22" fill="none" xmlns="http://www.w3.org/2000/svg">
<g clip-path="url(#clip0_2564_12)">
<path d="M9.89994 5.72952C9.89994 6.84403 9.90055 7.95916 9.89994 9.07367C9.89994 9.60526 9.60787 9.89978 9.08178 9.89978C6.89797 9.901 4.71477 9.90283 2.53096 9.89978C1.06633 9.89733 0.00559062 8.83354 0.00253549 7.36891C-0.000519642 5.75824 -0.000519642 4.14696 0.00253549 2.5363C0.00497959 1.06983 1.06511 0.00603828 2.52791 0.00298315C4.14652 -0.000683011 5.76512 -0.00129404 7.38373 0.00298315C8.83492 0.00726033 9.89444 1.06984 9.89933 2.52286C9.90299 3.59154 9.89994 4.66084 9.89994 5.72952ZM8.43348 8.43392C8.43348 8.3496 8.43348 8.29644 8.43348 8.24389C8.43348 6.33566 8.4347 4.42742 8.43286 2.51919C8.43225 1.87456 8.01981 1.46884 7.36724 1.46822C5.76451 1.467 4.16118 1.467 2.55846 1.46822C1.86433 1.46822 1.46839 1.866 1.46839 2.56379C1.46778 4.14391 1.46839 5.72402 1.46839 7.30353C1.46839 8.04776 1.85272 8.43331 2.59329 8.43392C4.4557 8.43392 6.3181 8.43392 8.18051 8.43392H8.43409H8.43348Z" fill="#58C1CE"/>
<path d="M16.2467 9.90067C15.1395 9.90067 14.0323 9.90128 12.9258 9.90067C12.3978 9.90067 12.1009 9.60616 12.1009 9.08067C12.1003 6.89687 12.0978 4.71367 12.1009 2.52986C12.1033 1.06645 13.1671 0.00632304 14.633 0.00326791C16.2436 0.00021278 17.8549 0.00021278 19.4656 0.00326791C20.9333 0.00632304 21.994 1.06462 21.9977 2.52986C22.0013 4.14053 22.0007 5.7518 21.9977 7.36247C21.9952 8.84054 20.9345 9.89701 19.4527 9.90006C18.3841 9.9025 17.3148 9.90006 16.2461 9.90006L16.2467 9.90067ZM13.5667 8.43421C13.6675 8.43421 13.736 8.43421 13.8038 8.43421C15.6815 8.43421 17.5592 8.43421 19.4369 8.43421C20.1328 8.43421 20.5318 8.03643 20.5324 7.34292C20.533 5.74753 20.5336 4.15275 20.5324 2.55736C20.5324 1.86445 20.1328 1.46912 19.435 1.46912C17.8476 1.46851 16.2601 1.46851 14.6721 1.46912C13.9608 1.46912 13.5673 1.86201 13.5673 2.57263C13.5673 4.44237 13.5673 6.31273 13.5673 8.18247C13.5673 8.25762 13.5673 8.33217 13.5673 8.43482L13.5667 8.43421Z" fill="#58C1CE"/>
<path d="M12.1001 16.2577C12.1001 15.1505 12.1001 14.0433 12.1001 12.9367C12.1001 12.3935 12.3916 12.1008 12.9323 12.1008C15.1082 12.1002 17.2841 12.0984 19.4599 12.1008C20.9392 12.1027 21.9951 13.1628 21.9975 14.6445C22 16.2479 22 17.8512 21.9975 19.4545C21.9951 20.9351 20.9374 21.9946 19.4587 21.9976C17.848 22.0007 16.2368 22.0013 14.6261 21.9976C13.1639 21.994 12.1044 20.9296 12.1007 19.4637C12.0977 18.395 12.1007 17.3257 12.1007 16.257L12.1001 16.2577ZM13.5666 13.5667V13.8032C13.5666 15.6808 13.5666 17.5585 13.5666 19.4362C13.5666 20.1334 13.9625 20.5318 14.6566 20.5324C16.252 20.5336 17.8468 20.5336 19.4422 20.5324C20.1351 20.5324 20.5317 20.1328 20.5323 19.4356C20.5329 17.8555 20.5323 16.276 20.5323 14.6959C20.5323 13.9529 20.1473 13.5673 19.4062 13.5667C17.5437 13.5667 15.6813 13.5667 13.8189 13.5667H13.566H13.5666Z" fill="#58C1CE"/>
<path d="M9.89997 16.259C9.89997 17.3203 9.90119 18.3817 9.89997 19.4424C9.89753 20.9382 8.8435 21.9953 7.35016 21.9977C5.74682 22.0002 4.14349 22.0008 2.54016 21.9977C1.0627 21.9947 0.00500961 20.9333 0.0025655 19.4528C0.000121396 17.8495 0.000121396 16.2461 0.0025655 14.6428C0.00500961 13.1629 1.06331 12.1021 2.54199 12.1003C4.71786 12.0972 6.89372 12.0991 9.06958 12.1003C9.60973 12.1003 9.89936 12.393 9.89997 12.9374C9.90119 14.0446 9.89997 15.1518 9.89997 16.2583V16.259ZM8.43351 13.5662C8.33574 13.5662 8.26853 13.5662 8.20071 13.5662C6.31569 13.5662 4.43006 13.5655 2.54505 13.5662C1.86742 13.5662 1.46842 13.9694 1.46781 14.6513C1.46658 16.2467 1.4672 17.8415 1.46781 19.4369C1.46781 20.1329 1.86497 20.5306 2.55971 20.5312C4.14716 20.5319 5.7346 20.5319 7.32266 20.5312C8.0455 20.5312 8.43351 20.139 8.43351 19.4094C8.43351 17.547 8.43351 15.6846 8.43351 13.8222C8.43351 13.747 8.43351 13.6719 8.43351 13.5655V13.5662Z" fill="#58C1CE"/>
</g>
<defs>
<clipPath id="clip0_2564_12">
<rect width="22" height="22.0006" fill="white"/>
</clipPath>
</defs>
</svg>
