<svg width="24" height="24" viewBox="0 0 24 24" fill="none" xmlns="http://www.w3.org/2000/svg">
<path d="M11.9992 14.1716C9.86919 14.1716 8.12915 12.4416 8.12915 10.3015C8.12915 8.16145 9.86919 6.44141 11.9992 6.44141C14.1293 6.44141 15.8693 8.17145 15.8693 10.3115C15.8693 12.4516 14.1293 14.1716 11.9992 14.1716ZM11.9992 7.94144C10.6992 7.94144 9.62919 9.00147 9.62919 10.3115C9.62919 11.6215 10.6892 12.6816 11.9992 12.6816C13.3093 12.6816 14.3693 11.6215 14.3693 10.3115C14.3693 9.00147 13.2993 7.94144 11.9992 7.94144Z" fill="#58C1CE"/>
<path d="M12.0021 22.7605C10.4615 22.7576 8.98166 22.1592 7.87201 21.0905C4.92194 18.2504 1.66186 13.7203 2.89189 8.33017C4.00192 3.44005 8.27202 1.25 12.0021 1.25H12.0121C15.7422 1.25 20.0123 3.44005 21.1223 8.34017C22.3424 13.7303 19.0823 18.2504 16.1322 21.0905C15.0226 22.1592 13.5427 22.7576 12.0021 22.7605ZM12.0021 2.75004C9.09204 2.75004 5.35195 4.30007 4.36193 8.66018C3.2819 13.3703 6.24197 17.4304 8.92204 20.0005C9.74808 20.8038 10.8549 21.2532 12.0071 21.2532C13.1593 21.2532 14.2661 20.8038 15.0922 20.0005C17.7623 17.4304 20.7223 13.3703 19.6623 8.66018C18.6623 4.30007 14.9122 2.75004 12.0021 2.75004Z" fill="#58C1CE"/>
</svg>
