<svg width="20" height="20" viewBox="0 0 20 20" fill="none" xmlns="http://www.w3.org/2000/svg">
<g clip-path="url(#clip0_2082_710)">
<path d="M0 16.9681C0.0503815 16.6223 0.0811974 16.2726 0.15359 15.9316C0.777734 12.99 2.48386 10.9375 5.24995 9.76651C5.51066 9.65596 5.78312 9.57428 6.07611 9.47058C4.34064 8.47713 3.37018 7.01656 3.34132 5.01744C3.32127 3.61214 3.84563 2.39711 4.85864 1.41541C6.98249 -0.644368 10.3512 -0.413004 12.2026 1.83656C14.145 4.19715 13.5561 7.9425 10.5855 9.47449C10.6672 9.50237 10.7313 9.52145 10.7929 9.54689C11.3026 9.75673 11.8147 9.96217 12.3205 10.1818C12.501 10.2601 12.6042 10.4151 12.5734 10.622C12.545 10.8152 12.4281 10.9522 12.232 10.9698C12.1234 10.9796 11.9977 10.9463 11.8993 10.8945C11.1084 10.4807 10.2754 10.2018 9.39053 10.0786C8.26453 9.92157 7.15662 10.0101 6.07318 10.3501C4.67032 10.7903 3.4998 11.5881 2.56163 12.7151C1.63667 13.8264 1.06535 15.106 0.907846 16.546C0.835942 17.2034 0.853551 17.8711 0.830562 18.5339C0.827627 18.6249 0.830562 18.7168 0.82029 18.8068C0.798767 18.9878 0.691156 19.1057 0.518 19.1482C0.337507 19.1927 0.183428 19.1365 0.076306 18.9775C0.0479358 18.935 0.0254353 18.8885 0 18.844C0 18.2189 0 17.5937 0 16.9686L0 16.9681ZM8.33496 9.16242C10.6281 9.16144 12.4961 7.29586 12.5 5.00228C12.5039 2.71554 10.6329 0.838708 8.34181 0.831371C6.04676 0.824033 4.16259 2.70967 4.17091 5.00521C4.17922 7.30613 6.03943 9.1634 8.33447 9.16242H8.33496Z" fill="white"/>
<path d="M10.833 14.5725C10.8756 12.0069 12.9476 9.9574 15.452 10.0053C18.0165 10.0543 20.0401 12.1184 19.9995 14.6444C19.9589 17.1625 17.8708 19.1983 15.3913 19.1674C12.8644 19.1361 10.8428 17.0994 10.8335 14.5725H10.833ZM19.1675 14.548C19.0838 12.3684 17.3792 10.7503 15.2392 10.8403C13.2386 10.9244 11.5247 12.6467 11.6817 14.863C11.8186 16.7951 13.4533 18.3775 15.4867 18.3291C17.678 18.2772 19.1792 16.4918 19.168 14.5475L19.1675 14.548Z" fill="white"/>
<path d="M15.0005 14.165C15.0005 13.6598 15.0005 13.1858 15.0005 12.7113C15.0005 12.6463 14.9975 12.5807 15.0019 12.5162C15.0195 12.2603 15.1917 12.0847 15.4197 12.0867C15.6476 12.0886 15.8232 12.2647 15.8271 12.5215C15.8349 12.9901 15.8301 13.4587 15.8305 13.9268C15.8305 13.9968 15.8305 14.0672 15.8305 14.1646C15.9318 14.1646 16.014 14.1646 16.0961 14.1646C16.532 14.1646 16.9678 14.1621 17.4036 14.1655C17.7005 14.168 17.8683 14.2937 17.9025 14.526C17.9339 14.7403 17.8091 14.9306 17.5978 14.977C17.5098 14.9966 17.4178 15.002 17.3273 15.0025C16.8401 15.0049 16.3525 15.0034 15.8418 15.0034C15.8379 15.0837 15.8315 15.1521 15.831 15.2201C15.8301 15.6824 15.8291 16.1441 15.831 16.6063C15.832 16.7976 15.7699 16.9531 15.5909 17.0397C15.3042 17.1777 15.0068 16.9668 15.0019 16.6156C14.9956 16.1603 15.0005 15.7049 15.0005 15.249C15.0005 15.1781 15.0005 15.1071 15.0005 15.0132C14.9232 15.0098 14.8552 15.0044 14.7867 15.0039C14.3509 15.0029 13.9151 15.0049 13.4792 15.0025C13.3956 15.0025 13.31 14.9946 13.2283 14.976C13.0473 14.934 12.929 14.7804 12.925 14.595C12.9206 14.4018 13.039 14.2374 13.2268 14.1934C13.3144 14.1729 13.4068 14.1665 13.4969 14.166C13.9899 14.1636 14.4835 14.165 15.0005 14.165Z" fill="white"/>
</g>
<defs>
<clipPath id="clip0_2082_710">
<rect width="20" height="19.168" fill="white"/>
</clipPath>
</defs>
</svg>
