<svg width="73" height="82" viewBox="0 0 73 82" fill="none" xmlns="http://www.w3.org/2000/svg">
<g clip-path="url(#clip0_2636_33)">
<path d="M13.6239 81.9211C12.9166 81.5525 12.7163 80.9674 12.7824 80.1941C12.9867 77.8319 12.9206 75.4217 13.3774 73.1137C14.3111 68.3934 17.3203 65.4502 21.9384 64.176C23.9119 63.631 25.9114 63.1823 27.963 62.6754C27.963 60.9724 27.989 59.2974 27.935 57.6225C27.9269 57.3741 27.5783 57.0715 27.3159 56.9093C24.3126 55.052 21.8763 52.6418 20.1072 49.5744C19.989 49.368 19.8688 49.1557 19.7887 48.9333C19.5803 48.3482 19.7807 47.8734 20.2855 47.5569C20.8024 47.2323 21.3254 47.3024 21.7341 47.7492C21.9985 48.0397 22.1849 48.4043 22.3993 48.7409C25.2442 53.2128 29.2272 56.0898 34.4464 57.0976C38.221 57.8269 41.6089 56.5947 44.7645 54.6333C47.367 53.0144 49.4327 50.8506 50.9313 48.1659C51.0094 48.0257 51.0916 47.8874 51.1837 47.7592C51.5964 47.1862 52.2416 47.0059 52.7845 47.3044C53.3555 47.619 53.612 48.3442 53.2233 48.9633C52.4299 50.2215 51.6205 51.4817 50.6909 52.6398C49.2964 54.3788 47.5714 55.7733 45.648 56.8992C45.1551 57.1877 44.9388 57.4903 44.9568 58.0813C45.0029 59.594 44.9728 61.1106 44.9728 62.6573C47.0164 63.1662 49.0039 63.6411 50.9794 64.164C51.7467 64.3683 52.508 64.6308 53.2293 64.9594C53.8284 65.2339 54.0608 65.7688 53.8123 66.4279C53.5799 67.049 53.0089 67.2975 52.3157 67.1111C49.6711 66.3999 47.0264 65.6887 44.3798 64.9834C43.0535 64.6288 42.5786 64.0338 42.5726 62.6493C42.5666 61.297 42.5726 59.9446 42.5726 58.4379C38.4935 60.0948 34.4905 60.1069 30.3632 58.4119C30.3632 59.602 30.3632 60.6518 30.3632 61.7017C30.3632 64.3904 30.2009 64.5967 27.6204 65.2439C25.685 65.7287 23.7316 66.1535 21.8222 66.7285C18.246 67.8044 15.7656 71.036 15.5292 74.7686C15.431 76.3113 15.3248 77.852 15.2187 79.4608H57.7512C57.6951 78.425 57.6471 77.3751 57.5809 76.3253C57.4707 74.5682 57.3525 72.8071 56.475 71.2183C56.1925 70.7075 55.8499 70.2286 55.5594 69.7197C55.1787 69.0525 55.3069 68.3974 55.8659 68.0268C56.4229 67.6581 57.0861 67.7984 57.5449 68.4134C58.9173 70.2527 59.6846 72.3263 59.8509 74.6123C59.9852 76.4736 60.0653 78.3368 60.2115 80.1961C60.2717 80.9694 60.0773 81.5565 59.3681 81.9231H13.6239V81.9211Z" fill="#FACA0A"/>
<path d="M18.815 36.2541C19.9991 33.8819 21.4917 31.7542 23.5493 30.1474C25.2182 28.8451 26.9933 27.6209 28.8726 26.6592C33.1021 24.4954 37.3154 22.3276 40.9999 19.2903C42.9814 17.6575 44.8386 15.8944 45.8304 13.432C46.6218 11.4686 46.4334 9.54322 45.4116 7.74206C44.8607 6.77036 43.7307 6.69423 42.743 6.58203C39.9521 6.26548 37.6701 7.46959 35.5624 9.12249C35.1216 9.46709 34.7209 9.86379 34.2781 10.2044C33.657 10.6792 33.0039 10.6432 32.5551 10.1423C32.0983 9.63338 32.1584 8.90009 32.7514 8.36716C35.358 6.02505 38.209 4.19384 41.8975 4.03356C40.8056 3.22014 39.5674 2.77736 38.235 2.57901C33.9515 1.9439 30.3392 3.57877 27.0154 6.02105C25.6249 7.04284 24.3828 8.26698 23.0745 9.40097C22.4073 9.97999 21.6219 9.97799 21.1892 9.36691C20.7925 8.80793 20.8626 8.23693 21.3334 7.77011C24.9137 4.20787 28.8586 1.25469 33.9736 0.246923C39.8479 -0.911107 45.7663 2.08414 47.9361 7.55173C48.457 8.86403 49.1241 9.60333 50.3643 10.2364C54.2772 12.2359 56.2907 15.674 57.1242 19.8854C57.2123 20.3281 57.3005 20.7769 57.3225 21.2277C57.3906 22.5921 57.7413 23.7401 58.6689 24.8861C60.2296 26.8215 60.1515 29.2578 59.9291 31.6239C59.851 32.4674 59.6666 33.3029 59.5224 34.1965H61.4197C61.4197 33.8959 61.4197 33.5894 61.4197 33.2808C61.4197 29.3079 61.4197 25.3349 61.4217 21.3639C61.4217 21.0454 61.3376 20.6487 61.4918 20.4243C61.7363 20.0657 62.1029 19.689 62.4956 19.5608C63.0245 19.3905 63.4933 19.7151 63.6797 20.258C63.7899 20.5766 63.8119 20.9372 63.8119 21.2798C63.8199 25.8117 63.8199 30.3437 63.8159 34.8776C63.8159 36.2621 63.4332 36.6407 62.0648 36.6447C61.3175 36.6467 60.5662 36.7028 59.8269 36.6307C58.753 36.5265 57.8174 36.8471 56.9699 37.4341C55.327 38.5681 53.7062 39.7382 52.0853 40.9042C51.5143 41.3149 51.308 41.8679 51.6766 42.501C52.0573 43.1542 52.6483 43.1642 53.2774 42.8797C55.2168 42.0001 57.1522 41.1126 59.0936 40.239C60.9429 39.4056 62.2632 40.189 62.4175 42.2065C62.4916 43.1622 62.5016 44.1259 62.6318 45.0735C62.8883 46.9328 62.1951 48.4575 61.1112 49.882C59.1878 52.4064 56.8477 54.494 54.3433 56.4154C53.6461 56.9503 52.9108 57.4392 52.2356 58.0002C51.5845 58.5411 51.6947 59.2464 52.5121 59.4247C53.2454 59.585 54.0828 59.6811 54.7901 59.4888C59.885 58.1084 64.5572 55.9506 68.0253 51.7773C69.8505 49.5794 70.6218 47.0109 70.6098 44.1519C70.5778 36.3402 70.5978 28.5285 70.6018 20.7168C70.6018 20.4003 70.6078 20.0737 70.6779 19.7672C70.8202 19.136 71.2509 18.8095 71.8961 18.8535C72.5392 18.8996 72.9058 19.2783 72.982 19.9234C72.994 20.0296 72.998 20.1358 72.998 20.242C72.996 28.4544 73.01 36.6648 72.98 44.8772C72.966 48.8602 71.289 52.1499 68.4721 54.8667C64.7756 58.4329 60.2857 60.5867 55.3531 61.8069C54.2892 62.0693 53.0731 61.9391 51.9671 61.7528C50.6648 61.5344 49.7633 60.6408 49.4928 59.3265C49.2063 57.9401 49.7673 56.7981 50.9053 55.9927C53.5259 54.1394 55.9942 52.1159 58.14 49.7217C58.6188 49.1867 59.0636 48.6177 59.4843 48.0347C60.0814 47.2133 60.3879 46.3137 60.2517 45.2619C60.1355 44.3723 60.1294 43.4667 60.0673 42.4369C58.8732 42.9758 57.8134 43.4527 56.7535 43.9315C55.8559 44.3362 54.9684 44.767 54.0588 45.1396C52.2897 45.8649 50.4705 45.2619 49.5589 43.6811C48.6754 42.1504 49.056 40.2751 50.4986 39.087C50.745 38.8847 51.0054 38.6963 51.2599 38.502C52.7345 37.374 52.7545 37.366 52.1615 35.649C50.168 29.8649 46.5857 25.5252 40.7755 23.2513C40.477 23.1351 39.9981 23.095 39.7637 23.2553C36.2135 25.6895 32.3247 27.5027 28.538 29.5142C25.078 31.3515 22.4975 34.1003 20.7744 37.7307C21.3054 38.1474 21.8223 38.5541 22.3412 38.9628C23.934 40.217 24.3667 42.1183 23.4231 43.7131C22.4494 45.36 20.5961 45.889 18.6868 45.0395C16.8175 44.208 14.9602 43.3525 13.0569 42.491C12.3957 45.1917 12.6682 47.5338 14.6938 49.5995C16.8876 51.8334 19.1656 53.9431 21.7421 55.7222C22.6778 56.3673 23.403 57.1527 23.5433 58.3308C23.7316 59.9055 22.794 61.2479 21.1571 61.7588C19.39 62.3117 17.653 61.9711 15.982 61.4082C11.8107 59.9997 7.88984 58.1144 4.66819 55.017C1.69498 52.1519 -0.00399995 48.7199 7.07192e-06 44.5226C0.00601761 36.4704 7.07183e-06 28.4183 0.0040141 20.3682C0.0040141 19.3524 0.438776 18.8255 1.22015 18.8435C1.97547 18.8616 2.39821 19.4105 2.39821 20.4343C2.40222 28.0336 2.53645 35.635 2.35413 43.2283C2.22791 48.5176 4.51192 52.3202 8.67923 55.2153C11.2998 57.0365 14.1729 58.3788 17.2342 59.2584C18.1558 59.5229 19.1716 59.5209 20.1413 59.5068C20.4779 59.5028 21.0108 59.1402 21.085 58.8497C21.1551 58.5672 20.8345 58.0503 20.54 57.8359C17.9735 55.9606 15.4611 54.0192 13.3554 51.625C12.4138 50.5531 11.5543 49.3751 10.8611 48.1309C10.4724 47.4337 10.3862 46.504 10.3682 45.6766C10.3421 44.4825 10.4924 43.2844 10.5866 42.0883C10.7308 40.239 12.0872 39.4296 13.7922 40.189C15.7857 41.0765 17.7551 42.0202 19.7667 42.8657C20.1353 43.0199 20.7243 42.9438 21.079 42.7414C21.3254 42.6012 21.4456 42.0602 21.4376 41.7036C21.4316 41.4412 21.1771 41.1106 20.9407 40.9403C19.2137 39.6941 17.4686 38.474 15.7176 37.2618C15.0183 36.779 14.241 36.5826 13.3755 36.6347C12.4999 36.6888 11.6164 36.6548 10.7368 36.6447C9.63089 36.6327 9.19413 36.206 9.18611 35.082C9.17009 33.0565 9.18211 31.0289 9.18211 29.0033C9.18211 26.4449 9.1781 23.8844 9.18812 21.3259C9.18812 20.9833 9.20615 20.6247 9.30633 20.3021C9.47662 19.7531 9.93543 19.4005 10.4624 19.5648C10.8731 19.693 11.2417 20.0977 11.5182 20.4644C11.6645 20.6587 11.5803 21.0314 11.5803 21.3239C11.5823 25.3229 11.5803 29.3219 11.5803 33.3209C11.5803 33.6074 11.5803 33.8939 11.5803 34.2125H12.9227C12.9086 33.932 12.9006 33.6775 12.8846 33.4251C12.52 28.1038 12.9147 22.8626 14.9001 17.8658C15.6915 15.8743 16.7915 14.001 17.8132 12.1097C18.2901 11.2262 19.0154 11.0358 19.6565 11.4606C20.2776 11.8733 20.3757 12.5525 19.8388 13.3579C17.6409 16.6457 16.3346 20.2821 15.6535 24.1488C15.0764 27.4226 15.0364 30.7224 15.373 34.0262C15.391 34.2105 15.4972 34.4609 15.6394 34.5431C16.6532 35.1181 17.689 35.657 18.815 36.2581V36.2541ZM42.3583 21.2958C48.9298 24.2109 52.6964 29.3359 54.7781 35.9115C55.4532 35.5328 56.0643 35.2122 56.6473 34.8476C56.8036 34.7494 56.9479 34.525 56.9719 34.3427C57.2003 32.5816 57.5409 30.8185 57.573 29.0514C57.605 27.3284 56.8958 25.8538 55.2849 24.9302C54.5497 24.5075 53.8705 23.9785 53.1953 23.4596C52.6423 23.0349 52.46 22.4579 52.8587 21.8428C53.2233 21.2798 53.7623 21.1376 54.3934 21.4241C54.5436 21.4922 54.7039 21.5383 54.8863 21.6044C54.6318 17.4311 52.1354 13.386 48.6734 12.1057C47.9982 16.0827 45.3555 18.7313 42.3603 21.2938L42.3583 21.2958Z" fill="#FACA0A"/>
</g>
<defs>
<clipPath id="clip0_2636_33">
<rect width="73" height="81.9216" fill="white"/>
</clipPath>
</defs>
</svg>
