<svg width="59" height="80" viewBox="0 0 59 80" fill="none" xmlns="http://www.w3.org/2000/svg">
<g clip-path="url(#clip0_2204_870)">
<path d="M35.2358 0.914062C35.5007 0.987482 35.7636 1.06498 36.0305 1.13024C39.0424 1.86648 41.2127 3.67139 42.5719 6.42464C43.868 9.04736 45.1008 11.7027 46.3235 14.3601C46.5518 14.8577 46.8228 15.0372 47.3526 14.9964C47.9354 14.9515 48.5244 14.9801 49.1092 14.9883C51.1368 15.0168 52.6509 16.4444 52.7752 18.4431C52.8934 20.3398 51.5852 21.9366 49.6492 22.2548C49.4271 22.2915 49.203 22.316 48.9931 22.3445C48.9931 23.6681 48.9931 24.9611 48.9931 26.2521C48.9931 28.7545 47.7907 29.97 45.3128 29.97C44.8828 29.97 44.4508 29.97 44.1003 29.97C43.5928 31.5812 43.1078 33.125 42.5638 34.8524C42.8246 34.6505 43.0569 34.5486 43.1649 34.3711C43.654 33.5778 44.3693 33.229 45.272 33.2168C45.8834 33.2086 46.4947 33.2209 47.106 33.2127C48.0944 33.1984 48.881 33.535 49.4251 34.414C49.5331 34.5893 49.8673 34.7076 50.0996 34.7137C51.2958 34.7443 52.494 34.7178 53.6902 34.7301C56.6104 34.7607 58.7522 36.8939 58.7725 39.8103C58.7888 42.0537 58.6849 44.3012 58.799 46.5384C58.9356 49.1816 57.7312 51.7798 54.1548 52.4243C54.8396 54.2944 55.0393 56.2278 54.9639 58.1979C54.9353 58.9648 54.5767 59.4338 53.9511 59.4991C53.2215 59.5746 52.7263 59.0647 52.6672 58.2245C52.5776 56.958 52.6224 55.6547 52.3269 54.4352C51.4731 50.8906 49.2845 48.4005 45.9486 46.928C45.7224 46.828 45.4799 46.7628 45.1742 46.6588V47.4052C45.1742 52.9097 45.1844 58.4162 45.1681 63.9206C45.164 65.6174 45.7937 66.9757 47.106 68.0464C48.9197 69.525 50.713 71.026 52.6672 72.6454C52.6672 72.2375 52.6672 71.9785 52.6672 71.7174C52.6672 69.0151 52.6611 66.3129 52.6713 63.6127C52.6754 62.7173 53.2032 62.1728 53.9429 62.2544C54.5869 62.3237 54.9557 62.8091 54.9557 63.6331C54.9598 67.2266 54.9577 70.8201 54.9577 74.4136C54.9577 75.4843 54.9251 76.555 54.97 77.6236C54.9985 78.3293 54.8069 78.8677 54.1834 79.2246H4.66446C4.03274 78.8738 3.86971 78.3293 3.87379 77.6277C3.89824 72.9125 3.82692 68.1953 3.91047 63.4801C3.97568 59.7846 3.39083 56.0361 4.68688 52.4263C4.55646 52.3774 4.48921 52.3386 4.41585 52.3264C1.68925 51.8288 0.0895642 49.928 0.0814129 47.1625C0.0752995 44.7152 0.0671482 42.2678 0.0814129 39.8205C0.0997533 36.9021 2.23946 34.7647 5.15761 34.7321C6.35381 34.7199 7.55204 34.7464 8.74824 34.7158C8.98055 34.7097 9.31272 34.5914 9.42276 34.414C9.96889 33.537 10.7514 33.1984 11.7418 33.2148C12.3266 33.225 12.9135 33.2168 13.5004 33.2148C14.4337 33.2148 15.1755 33.5533 15.6829 34.3732C15.795 34.5526 16.0334 34.6546 16.2128 34.7933C16.0314 33.8939 15.7094 33.1475 15.4669 32.3765C15.2244 31.6056 15.0594 30.8082 14.8454 29.968C14.3441 29.968 13.8387 29.968 13.3313 29.968C11.1508 29.9598 9.867 28.679 9.86089 26.4989C9.85681 25.11 9.86089 23.7232 9.86089 22.3241C9.70194 22.3078 9.57559 22.2997 9.44925 22.2833C7.35234 22.0141 5.96866 20.4438 6.07667 18.4574C6.18875 16.4097 7.73341 14.9964 9.87923 14.9842C10.5925 14.9801 11.3077 14.9495 12.0189 14.9944C12.5467 15.027 12.8259 14.8557 13.0541 14.3581C14.2646 11.7211 15.4914 9.09223 16.763 6.48582C18.004 3.9406 19.9603 2.17036 22.6869 1.31175C23.1923 1.15676 23.716 1.04663 24.2295 0.914062C27.8976 0.914062 31.5657 0.914062 35.2358 0.914062ZM46.9369 76.8833C46.6679 76.6386 46.4927 76.4693 46.3052 76.3123C45.1314 75.3333 43.9597 74.3524 42.7777 73.3857C39.7373 70.9037 38.2803 67.6977 38.2945 63.7779C38.3169 58.1979 38.3006 52.616 38.3006 47.034C38.3006 46.7403 38.3006 46.4446 38.3006 46.0857C37.6139 46.0857 37.0311 46.1102 36.4523 46.0775C35.9938 46.051 35.8023 46.2019 35.6719 46.669C35.0177 49.0021 33.5199 50.5561 31.1866 51.2434C30.7077 51.3842 30.561 51.5942 30.5651 52.0878C30.5895 54.9409 30.5794 57.7962 30.5753 60.6493C30.5753 61.6813 30.1718 62.2279 29.4361 62.232C28.7005 62.236 28.295 61.6854 28.2827 60.6636C28.2827 60.5372 28.2827 60.4087 28.2827 60.2822C28.2827 57.5555 28.2827 54.8288 28.2827 52.102C28.2827 51.7451 28.3255 51.4311 27.8303 51.2944C25.3707 50.6092 23.8097 49.0123 23.1311 46.5446C23.0822 46.3692 22.8723 46.1224 22.7236 46.1142C22.0205 46.0694 21.3154 46.0938 20.5513 46.0938C20.5513 46.4915 20.5513 46.7954 20.5513 47.0972C20.5513 52.7547 20.5655 58.4121 20.5452 64.0695C20.5329 67.7466 19.1289 70.7976 16.3146 73.1797C15.0125 74.283 13.692 75.3639 12.3837 76.4591C12.2492 76.5713 12.1392 76.714 11.9782 76.8854H46.9369V76.8833ZM41.8281 22.2997C38.6348 22.2997 35.5822 22.2997 32.5275 22.2976C32.2239 22.2976 31.908 22.3037 31.6207 22.2222C31.0277 22.057 30.7383 21.6246 30.8076 21.0107C30.8708 20.4356 31.2233 20.095 31.8 20.0236C32.0507 19.9931 32.3095 20.0053 32.5642 20.0053C37.9135 20.0053 43.2627 20.0053 48.612 20.0012C48.9156 20.0012 49.2294 20.0012 49.5188 19.9257C50.2117 19.7422 50.5133 19.2262 50.4746 18.545C50.4358 17.8557 50.0446 17.4132 49.3476 17.2949C49.099 17.2541 48.8402 17.2765 48.5855 17.2765C35.8247 17.2765 23.0619 17.2765 10.3011 17.2765C10.0728 17.2765 9.84051 17.2643 9.61431 17.2847C8.7136 17.3683 8.17765 18.1759 8.44257 19.0427C8.69118 19.8544 9.32087 20.0053 10.0667 20.0053C15.4669 19.9992 20.8671 20.0012 26.2673 20.0032C26.5465 20.0032 26.895 19.9135 27.0927 20.044C27.4595 20.2867 27.8833 20.609 28.0199 20.9944C28.2073 21.5206 27.8854 21.9937 27.3311 22.1834C27.0499 22.2793 26.732 22.2915 26.4304 22.2915C23.6039 22.2997 20.7754 22.2956 17.949 22.2956H17.1705C17.1705 24.7307 16.981 27.0862 17.2072 29.401C17.7941 35.3806 22.6461 39.9041 28.7046 40.3385C34.4634 40.7525 39.8779 36.8205 41.3777 31.1406C42.1399 28.2548 41.6549 25.316 41.8322 22.2956L41.8281 22.2997ZM15.3487 14.9393H44.1349C42.7064 12.0413 41.4633 9.16361 39.9044 6.46747C38.6267 4.25875 36.4707 3.21048 33.8745 3.20844C31.2274 3.20844 28.5782 3.24311 25.9331 3.20028C22.5259 3.14521 20.1661 4.71558 18.7091 7.72988C17.6474 9.9284 16.6162 12.1412 15.5749 14.3499C15.4914 14.5253 15.4343 14.715 15.3487 14.9393ZM6.18263 72.6474C8.06557 71.0872 9.78141 69.6147 11.5502 68.2116C13.0195 67.0471 13.694 65.5848 13.6838 63.7085C13.6512 58.304 13.6716 52.8995 13.6716 47.4949V46.6853C13.421 46.7567 13.2212 46.7893 13.0419 46.8688C9.33717 48.4881 6.957 51.2536 6.37826 55.2632C6.05425 57.5147 6.20505 59.8376 6.18875 62.13C6.16429 65.5705 6.18263 69.009 6.18263 72.6454V72.6474ZM15.9682 43.0061C15.9682 43.3691 15.9682 43.671 15.9682 43.9728C15.9682 50.599 15.956 57.2231 15.9703 63.8492C15.9764 66.3047 15.0614 68.2932 13.1642 69.8493C11.0571 71.5767 8.99278 73.3571 6.85511 75.0458C6.17652 75.5821 6.07259 76.1348 6.25396 76.8527C7.48072 77.1097 8.46091 76.8466 9.40442 75.9839C11.0754 74.4564 12.8646 73.0594 14.6192 71.6236C17.0625 69.6229 18.2669 67.0552 18.2628 63.8961C18.2526 57.1945 18.2587 50.4929 18.2587 43.7913C18.2587 43.5445 18.2587 43.2957 18.2587 43.0082H15.9682V43.0061ZM52.6448 76.8405C52.6367 76.2715 52.8405 75.7269 52.2454 75.2497C50.12 73.5447 48.0679 71.748 45.9323 70.0553C43.817 68.3809 42.8511 66.2558 42.8715 63.5576C42.9204 57.0069 42.8857 50.4562 42.8837 43.9076C42.8837 43.6118 42.8837 43.3141 42.8837 43.0265H40.5932C40.5932 43.3671 40.5932 43.6465 40.5932 43.9259C40.5932 50.5011 40.6217 57.0783 40.581 63.6534C40.5606 66.9961 41.7894 69.678 44.3998 71.7623C46.1116 73.1287 47.8335 74.491 49.4434 75.9717C50.3849 76.8384 51.363 77.1077 52.6469 76.8384L52.6448 76.8405ZM9.14765 37.1162C9.0478 37.0734 9.00093 37.0387 8.9561 37.0387C7.73341 37.0306 6.51276 37.0204 5.29007 37.0244C3.48456 37.0326 2.37803 38.1278 2.37192 39.9204C2.36377 42.3413 2.36377 44.76 2.37192 47.1809C2.37803 48.9858 3.49068 50.1054 5.28192 50.0585C5.5774 50.0504 5.93198 49.8444 6.14595 49.6221C7.02425 48.7064 7.87606 47.7662 8.6973 46.7995C8.93368 46.5221 9.16599 46.1265 9.17007 45.7838C9.20879 43.1101 9.19249 40.4344 9.18841 37.7586C9.18841 37.5363 9.15988 37.312 9.14562 37.1162H9.14765ZM49.7165 37.0306C49.6859 37.2161 49.6553 37.314 49.6553 37.4119C49.6513 40.2672 49.6411 43.1203 49.6676 45.9735C49.6696 46.2264 49.8775 46.514 50.0609 46.724C50.9331 47.7152 51.8236 48.688 52.7223 49.6547C52.8812 49.826 53.0911 50.03 53.303 50.0606C54.9761 50.3155 56.4474 49.1204 56.4698 47.446C56.5044 44.8477 56.5004 42.2475 56.4698 39.6472C56.4535 38.2338 55.3796 37.104 53.9735 37.0428C52.5776 36.9816 51.1756 37.0306 49.7165 37.0306ZM25.2729 42.0394C25.2729 43.2162 25.2301 44.2849 25.281 45.3494C25.3809 47.4256 27.0886 49.0837 29.2079 49.2203C31.2172 49.3508 33.2244 47.8641 33.4975 45.8532C33.6646 44.6336 33.5281 43.3732 33.5281 42.0741C30.7994 42.8246 28.0871 42.8532 25.2729 42.0415V42.0394ZM22.964 43.7383C22.964 43.0836 22.9376 42.4759 22.9722 41.8742C23.0028 41.3623 22.8112 41.1033 22.3731 40.7954C21.0913 39.896 19.7423 39.0149 18.703 37.8667C17.8593 36.9347 17.0218 36.9816 16.009 37.0713V40.673C16.8058 40.673 17.5638 40.6546 18.3178 40.6771C19.5731 40.7118 20.4616 41.5826 20.5411 42.8348C20.5594 43.1305 20.5431 43.4263 20.5431 43.7403H22.964V43.7383ZM42.8226 40.6689V37.0204C42.3355 37.0204 41.9015 36.9816 41.4796 37.0346C41.2086 37.0693 40.8703 37.1652 40.7053 37.3589C39.45 38.8253 37.9807 40.0143 36.2934 40.9463C36.1222 41.0401 35.9184 41.2583 35.9082 41.4276C35.8655 42.1822 35.8899 42.9388 35.8899 43.724H38.2762C38.2864 43.5303 38.2945 43.4038 38.2986 43.2774C38.3353 41.4806 39.1443 40.675 40.9213 40.6689C41.5489 40.6669 42.1786 40.6689 42.8246 40.6689H42.8226ZM11.5278 44.9742C12.1045 44.7641 12.614 44.5276 13.1479 44.3991C13.6003 44.291 13.6798 44.0544 13.6777 43.6424C13.6635 41.0952 13.6736 38.5479 13.6716 35.9986C13.6716 35.8538 13.639 35.711 13.6186 35.5622H11.5278V44.9742ZM47.3078 44.9579V35.554H45.1803C45.1803 38.3725 45.1762 41.1421 45.1946 43.9137C45.1946 44.0564 45.38 44.2645 45.5267 44.3256C46.0871 44.5541 46.6659 44.7356 47.3078 44.9599V44.9579ZM14.7292 22.3017C14.1586 22.3017 13.6777 22.2915 13.1968 22.3037C12.4408 22.3241 12.1677 22.6076 12.1555 23.3846C12.1453 24.0434 12.1534 24.7042 12.1534 25.3629C12.1534 26.9645 12.9563 27.73 14.5621 27.6593C14.607 27.6593 14.6498 27.6185 14.7292 27.5798V22.2997V22.3017ZM44.1288 27.6756C44.7279 27.6756 45.2353 27.6838 45.7448 27.6736C46.3154 27.6614 46.6781 27.3697 46.6883 26.7926C46.7127 25.5709 46.7372 24.3432 46.6618 23.1256C46.6455 22.8462 46.2644 22.4139 45.9914 22.3608C45.3922 22.2446 44.7524 22.3241 44.1288 22.3241V27.6756Z" fill="#FACA0A"/>
</g>
<defs>
<clipPath id="clip0_2204_870">
<rect width="58.736" height="78.3146" fill="white" transform="translate(0.072998 0.914062)"/>
</clipPath>
</defs>
</svg>
