<svg width="23" height="21" viewBox="0 0 23 21" fill="none" xmlns="http://www.w3.org/2000/svg">
<g clip-path="url(#clip0_2356_635)">
<path d="M-0.00041416 11.512C0.286973 10.6029 1.04453 10.7038 1.73178 10.7206C2.4106 5.76027 5.18606 2.76708 10.0525 1.69112C9.99685 1.48052 9.90911 1.24359 9.87537 0.999947C9.82307 0.621316 9.96254 0.347425 10.318 0.21188C10.6194 0.0970581 10.9501 0.0063212 11.2701 0.000720159C11.6824 -0.0060011 12.1098 0.0337663 12.5057 0.143547C13.0524 0.295335 13.2267 0.670605 13.0861 1.21783C13.0439 1.3825 12.9731 1.53933 12.9067 1.7236C13.1637 1.77737 13.4309 1.82722 13.6946 1.88995C16.1096 2.4635 18.0313 3.7663 19.4739 5.7754C19.628 5.98992 19.6106 6.18595 19.4385 6.30638C19.2681 6.42512 19.0796 6.37807 18.9239 6.15795C18.1618 5.08255 17.2181 4.20262 16.0736 3.5445C14.3285 2.54135 12.4557 2.13304 10.4473 2.3722C8.11617 2.65001 6.1787 3.67893 4.64165 5.43429C3.43586 6.81159 2.72217 8.42021 2.51015 10.2417C2.49553 10.3671 2.48147 10.4932 2.46853 10.6192C2.46628 10.6405 2.47191 10.6629 2.47528 10.7026C2.53883 10.7071 2.60407 10.715 2.66875 10.7155C2.92295 10.7172 3.17772 10.7144 3.43193 10.7166C3.73281 10.7189 3.8976 10.8399 3.89872 11.0533C3.89928 11.2672 3.73844 11.3843 3.43418 11.3848C2.68562 11.386 1.93762 11.3848 1.18907 11.3848C0.747581 11.3848 0.672781 11.461 0.673344 11.9085C0.673344 11.9758 0.668845 12.0435 0.676718 12.1096C0.698089 12.2883 0.79651 12.3936 0.982103 12.4059C1.04903 12.4104 1.11652 12.4087 1.184 12.4087C8.06162 12.4087 14.9387 12.4087 21.8163 12.4087C21.9867 12.4087 22.2156 12.4479 22.2606 12.2468C22.3118 12.0194 22.2808 11.7685 22.251 11.5322C22.2437 11.4761 22.1037 11.4218 22.0165 11.3944C21.9411 11.3708 21.8534 11.3848 21.7713 11.3848C16.3081 11.3848 10.8455 11.3848 5.38234 11.3848C5.28504 11.3848 5.18718 11.3888 5.09101 11.3764C4.92061 11.3546 4.82106 11.2499 4.807 11.0813C4.79294 10.9127 4.87224 10.7878 5.03927 10.7458C5.14613 10.7194 5.26086 10.7166 5.37221 10.7166C10.3191 10.7155 15.2654 10.7155 20.2123 10.7155C20.3085 10.7155 20.4041 10.7155 20.5515 10.7155C20.4873 10.2977 20.4615 9.89609 20.3597 9.5141C20.1977 8.9047 19.9862 8.30819 19.7939 7.7072C19.7736 7.64335 19.7377 7.58454 19.7202 7.52068C19.669 7.33473 19.7062 7.17734 19.894 7.08884C20.0638 7.00875 20.2534 7.08212 20.3372 7.27536C20.4682 7.57501 20.5942 7.87859 20.7016 8.18721C20.9811 8.9932 21.1476 9.82327 21.2044 10.7161C21.3799 10.7161 21.548 10.7105 21.7156 10.7178C21.9018 10.7256 22.0975 10.7127 22.2718 10.7648C22.6818 10.888 23.0575 11.1608 22.9928 12.1091C22.9602 12.5868 22.6531 12.975 22.1954 13.0612C22.0862 13.082 21.9721 13.0792 21.8596 13.0792C21.0964 13.0808 20.3327 13.0797 19.5695 13.0797H19.3052C19.3175 13.166 19.3288 13.2293 19.3355 13.2937C19.3682 13.6034 19.3254 13.9064 19.0864 14.1187C18.2597 14.8519 17.4369 15.5907 16.5792 16.2869C15.9279 16.8162 15.1406 17.0968 14.3358 17.3197C13.3774 17.5858 12.4202 17.8759 11.4096 17.8081C10.7988 17.7672 10.192 17.6614 9.58123 17.6166C8.82649 17.5611 8.06443 17.5247 7.36649 17.8989C7.14772 18.0159 6.95819 18.1873 6.75066 18.3369C7.29169 18.9115 7.31588 19.2465 6.88958 19.871C6.74223 20.0866 6.59713 20.3034 6.44809 20.5179C6.07747 21.0506 5.56118 21.1469 5.01171 20.7767C3.73562 19.9169 2.46291 19.0527 1.1885 18.1901C1.0524 18.0983 0.912927 18.0103 0.783575 17.9095C0.37977 17.5942 0.281912 17.1119 0.55074 16.6762C0.758266 16.3401 0.982103 16.013 1.21887 15.6971C1.50739 15.3123 1.89151 15.2428 2.45053 15.4456C3.17153 14.6973 3.70807 13.7815 4.57473 13.0803C4.45944 13.0803 4.3852 13.0803 4.31096 13.0803C3.30089 13.0803 2.28969 13.059 1.28018 13.0881C0.662658 13.106 0.218923 12.9145 -0.000976562 12.3157V11.5109L-0.00041416 11.512ZM6.22763 18.0182C6.27599 17.9487 6.31536 17.8737 6.3716 17.8154C6.68824 17.4872 7.06561 17.2514 7.50091 17.1142C8.36419 16.8414 9.24492 16.8879 10.1245 16.9971C10.8669 17.0895 11.6104 17.2396 12.355 17.0934C13.0642 16.954 13.7666 16.7714 14.464 16.5804C15.3442 16.3395 16.1102 15.8886 16.7834 15.2731C17.3345 14.769 17.9025 14.2839 18.4627 13.7894C18.5127 13.7451 18.5656 13.7009 18.605 13.6477C18.7163 13.4959 18.7034 13.3357 18.5994 13.1906C18.4959 13.0456 18.3485 13.0831 18.2135 13.1402C18.1247 13.1777 18.0426 13.2321 17.9616 13.2853C17.474 13.6045 16.9808 13.9148 16.5038 14.2492C16.1321 14.5102 15.7305 14.6794 15.2964 14.8127C14.3487 15.1039 13.3994 15.3515 12.3949 15.2731C12.3505 15.2697 12.3049 15.2731 12.2605 15.2731C12.0805 15.2731 11.9568 15.1874 11.9135 15.0149C11.8719 14.8491 11.9495 14.7214 12.094 14.6424C12.4152 14.4671 12.7414 14.3013 13.0614 14.1243C13.2374 14.0269 13.342 13.8723 13.3229 13.6662C13.3049 13.4724 13.2009 13.3217 13.0051 13.278C12.8859 13.2511 12.7509 13.2539 12.63 13.278C11.7515 13.4556 10.8753 13.6477 9.99572 13.8202C9.84106 13.8504 9.66503 13.8409 9.51149 13.8023C8.79499 13.6208 8.0858 13.4096 7.36705 13.2366C7.0448 13.1587 6.70061 13.0836 6.37723 13.115C5.56231 13.1929 4.88911 13.5765 4.36608 14.2095C3.92065 14.7488 3.47523 15.2882 3.01575 15.845C4.08094 16.5658 5.12982 17.2755 6.22707 18.0187L6.22763 18.0182ZM5.65117 20.356C5.72934 20.2899 5.82101 20.2379 5.87725 20.1606C6.06509 19.9012 6.24281 19.6346 6.41941 19.3675C6.56057 19.1541 6.54201 19.0426 6.33167 18.9003C4.94254 17.9577 3.55172 17.0167 2.15977 16.078C1.95618 15.9407 1.84708 15.9631 1.70704 16.162C1.52707 16.4179 1.35273 16.6778 1.17838 16.9377C1.02091 17.173 1.03834 17.2811 1.27005 17.4379C2.64738 18.3716 4.02582 19.303 5.4054 20.2339C5.4712 20.2782 5.54825 20.3062 5.6506 20.3566L5.65117 20.356ZM13.6541 14.555C14.8689 14.2795 16.0365 13.9608 16.9538 13.0954H13.8499C14.0911 13.7485 14.063 13.9608 13.6541 14.555ZM11.481 1.63342C11.5704 1.63342 11.6604 1.6323 11.7499 1.63342C12.139 1.63959 12.4343 1.36289 12.4394 0.969701C12.4399 0.908089 12.3831 0.807831 12.3303 0.788787C11.7774 0.59163 11.2189 0.592191 10.6644 0.785427C10.6116 0.80391 10.5508 0.886245 10.5469 0.942256C10.5238 1.31136 10.8483 1.64239 11.2116 1.63399C11.3011 1.63174 11.391 1.63399 11.4805 1.63399L11.481 1.63342Z" fill="#58C1CE"/>
</g>
<defs>
<clipPath id="clip0_2356_635">
<rect width="23" height="21" fill="white"/>
</clipPath>
</defs>
</svg>
