<svg width="22" height="18" viewBox="0 0 22 18" fill="none" xmlns="http://www.w3.org/2000/svg">
<g clip-path="url(#clip0_2341_420)">
<path d="M0.797852 1.86713C0.797852 1.86713 0.825124 1.75804 0.852397 1.73076C1.04331 1.13076 1.4524 0.776217 2.0524 0.667126C2.6524 0.585308 3.14331 0.80349 3.44331 1.32167C3.77058 1.83985 3.74331 2.38531 3.44331 2.90349C3.44331 2.93076 3.38876 2.98531 3.36149 3.03985C3.8524 3.50349 3.63422 4.10349 3.71603 4.67622C4.67058 4.56713 5.43422 4.81258 6.06149 5.57622C6.47058 6.06713 6.90694 6.50349 7.31603 6.9944C7.53422 7.23985 7.67058 7.53985 7.80694 7.86713C7.86149 8.03076 7.91603 8.05803 8.07967 8.05803C11.1069 8.05803 14.1615 8.05803 17.1888 8.05803C17.8979 8.05803 18.6069 8.05803 19.2888 8.11258C19.7797 8.13985 20.2706 8.27622 20.7069 8.52167C21.3615 8.84894 21.7433 9.3944 21.7433 10.1308C21.7433 12.3671 21.7433 14.6308 21.7433 16.8671C21.7433 17.1671 21.5797 17.3308 21.2797 17.3308C20.8706 17.3308 20.4615 17.3308 20.0524 17.3308C19.6706 17.3308 19.5888 17.2217 19.5069 16.8399C19.3979 16.3217 19.2615 15.7762 19.0979 15.258C19.016 15.0126 18.8524 14.7944 18.716 14.5762C18.6342 14.4399 18.4979 14.3853 18.3342 14.3853C15.1979 14.3853 12.0615 14.3853 8.9524 14.3853C8.87058 14.3853 8.76149 14.3853 8.67967 14.3853C8.48876 14.3853 8.3524 14.2217 8.32512 14.0035C8.32512 13.7853 8.43422 13.6217 8.62512 13.5944C8.70694 13.5944 8.81603 13.5944 8.89785 13.5944C12.7979 13.5944 16.7251 13.5944 20.6251 13.5944H20.9251V12.2035C20.5706 12.2035 20.2433 12.2035 19.8888 12.2035C16.0706 12.2035 12.2251 12.2035 8.40694 12.2035C8.27058 12.2035 8.10694 12.2035 7.97058 12.1762C7.47967 12.0671 7.12512 11.658 7.09785 11.1671C7.09785 10.8671 7.09785 10.5399 7.09785 10.2126C7.09785 10.1308 7.09785 10.0762 7.09785 9.9944H1.61603V13.5944H1.86149C2.89785 13.5944 3.93422 13.5944 4.97058 13.5944C5.0524 13.5944 5.13422 13.5944 5.18876 13.5944C5.40694 13.6217 5.54331 13.8126 5.54331 14.0035C5.54331 14.2217 5.37967 14.3853 5.16149 14.3853C4.86149 14.3853 4.56149 14.3853 4.26149 14.3853C4.07058 14.3853 3.96149 14.4399 3.8524 14.5762C3.49785 15.0399 3.30694 15.5853 3.17058 16.1308C3.11603 16.3762 3.06149 16.6217 3.03422 16.8671C2.97967 17.1944 2.84331 17.3035 2.54331 17.3035C2.13422 17.3035 1.72512 17.3035 1.34331 17.3035C1.09785 17.3308 0.906942 17.2489 0.797852 17.0308C0.797852 12.558 0.797852 8.08531 0.797852 3.61258C0.906942 3.42167 0.988761 3.20349 1.09785 3.01258C1.04331 2.93076 0.988761 2.82167 0.934215 2.71258C0.87967 2.60349 0.852397 2.46713 0.797852 2.35803C0.797852 2.1944 0.797852 2.03076 0.797852 1.86713ZM7.91603 8.87622C7.91603 9.61258 7.91603 10.3217 7.91603 11.0308C7.91603 11.2217 8.02513 11.3035 8.21603 11.3308C8.27058 11.3308 8.3524 11.3308 8.43422 11.3308C12.4433 11.3308 16.4524 11.3308 20.4615 11.3308C20.516 11.3308 20.5706 11.3308 20.6251 11.3308C20.8706 11.3308 20.9797 11.1944 20.9797 10.9762C20.9797 10.7035 20.9797 10.458 20.9797 10.1853C20.9797 9.6944 20.7615 9.36712 20.3251 9.17622C19.7797 8.93076 19.2069 8.84894 18.6342 8.84894C15.116 8.84894 11.5979 8.84894 8.07967 8.84894C8.0524 8.84894 7.99785 8.84894 7.94331 8.84894L7.91603 8.87622ZM2.87058 9.12167V8.90349C2.87058 8.27622 2.87058 7.62167 2.87058 6.9944C2.87058 5.98531 2.87058 4.94894 2.87058 3.93985C2.87058 3.66713 2.78876 3.58531 2.51603 3.58531C2.32512 3.58531 2.16149 3.58531 1.97058 3.58531C1.64331 3.58531 1.58876 3.66713 1.58876 3.96713C1.58876 5.63076 1.58876 7.26713 1.58876 8.93076V9.14894H2.84331L2.87058 9.12167ZM3.68876 6.06713C3.68876 6.47622 3.79785 6.83076 4.09785 7.13076C4.56149 7.62167 4.99785 8.11258 5.43422 8.63076C5.78876 9.01258 6.19785 9.17622 6.71603 9.14894C6.90694 9.14894 7.04331 9.01258 7.07058 8.82167C7.12512 8.33076 7.07058 7.8944 6.71603 7.53985C6.2524 7.02167 5.78876 6.53076 5.32512 6.01258C4.99785 5.63076 4.56149 5.4944 4.07058 5.4944C3.8524 5.4944 3.71603 5.63076 3.71603 5.82167C3.71603 5.90349 3.71603 5.98531 3.71603 6.06713H3.68876ZM1.61603 14.3853V16.4853H2.18876C2.43422 15.7762 2.6524 15.0671 2.89785 14.3853H1.61603ZM19.6706 14.3853C19.916 15.0671 20.1342 15.7762 20.3797 16.4853H20.9524V14.3853H19.6706ZM2.27058 1.48531C1.91603 1.48531 1.64331 1.75804 1.61603 2.08531C1.61603 2.43985 1.88876 2.73985 2.24331 2.73985C2.57058 2.73985 2.87058 2.46713 2.87058 2.11258C2.87058 1.78531 2.59785 1.48531 2.24331 1.48531H2.27058ZM4.80694 9.12167C4.42512 8.71258 4.09785 8.33076 3.71603 7.92167V9.12167H4.80694Z" fill="#58C1CE"/>
<path d="M6.93448 14.3865C6.7163 14.3865 6.52539 14.2229 6.52539 13.9775C6.52539 13.7593 6.68903 13.5684 6.90721 13.5684C7.12539 13.5684 7.3163 13.7593 7.3163 13.9775C7.3163 14.1956 7.12539 14.3865 6.90721 14.3865H6.93448Z" fill="#58C1CE"/>
</g>
<defs>
<clipPath id="clip0_2341_420">
<rect width="21" height="16.6636" fill="white" transform="translate(0.797852 0.667969)"/>
</clipPath>
</defs>
</svg>
