<svg width="17" height="17" viewBox="0 0 17 17" fill="none" xmlns="http://www.w3.org/2000/svg">
<g clip-path="url(#clip0_2064_171)">
<path d="M8.49931 10.3972C7.07931 10.3972 5.91931 9.2439 5.91931 7.81723C5.91931 6.39056 7.07931 5.2439 8.49931 5.2439C9.91931 5.2439 11.0793 6.39723 11.0793 7.8239C11.0793 9.25056 9.91931 10.3972 8.49931 10.3972ZM8.49931 6.2439C7.63264 6.2439 6.91931 6.95056 6.91931 7.8239C6.91931 8.69723 7.62598 9.4039 8.49931 9.4039C9.37264 9.4039 10.0793 8.69723 10.0793 7.8239C10.0793 6.95056 9.36598 6.2439 8.49931 6.2439Z" fill="#58C1CE"/>
<path d="M8.50134 16.1232C7.47429 16.1212 6.48775 15.7223 5.748 15.0099C3.78134 13.1165 1.608 10.0965 2.428 6.5032C3.168 3.2432 6.01467 1.7832 8.50134 1.7832H8.508C10.9947 1.7832 13.8413 3.2432 14.5813 6.50987C15.3947 10.1032 13.2213 13.1165 11.2547 15.0099C10.5149 15.7223 9.52839 16.1212 8.50134 16.1232ZM8.50134 2.7832C6.56134 2.7832 4.068 3.81654 3.408 6.7232C2.688 9.8632 4.66134 12.5699 6.448 14.2832C6.99868 14.8187 7.73653 15.1183 8.50467 15.1183C9.27281 15.1183 10.0107 14.8187 10.5613 14.2832C12.3413 12.5699 14.3147 9.8632 13.608 6.7232C12.9413 3.81654 10.4413 2.7832 8.50134 2.7832Z" fill="#58C1CE"/>
</g>
<defs>
<clipPath id="clip0_2064_171">
<rect width="16" height="16" fill="white" transform="translate(0.5 0.949951)"/>
</clipPath>
</defs>
</svg>
