<svg width="25" height="25" viewBox="0 0 25 25" fill="none" xmlns="http://www.w3.org/2000/svg">
<path d="M21.0286 7.54394H20.9486C15.6586 7.01394 10.3786 6.81394 5.1486 7.34394L3.1086 7.54394C3.00937 7.55429 2.90906 7.54487 2.81349 7.51623C2.71791 7.48758 2.62897 7.44027 2.55179 7.37704C2.47461 7.31381 2.41072 7.23591 2.36383 7.14784C2.31694 7.05977 2.28797 6.96327 2.2786 6.86394C2.2386 6.44394 2.5386 6.08394 2.9486 6.04394L4.9886 5.84394C10.3086 5.30394 15.6986 5.51394 21.0986 6.04394C21.5086 6.08394 21.8086 6.45394 21.7686 6.86394C21.7535 7.04962 21.6689 7.22278 21.5317 7.34883C21.3946 7.47488 21.2149 7.54455 21.0286 7.54394Z" fill="#E72328"/>
<path d="M8.52858 6.53348C8.48858 6.53348 8.44859 6.53348 8.39859 6.52348C8.20457 6.48851 8.032 6.37886 7.91795 6.21806C7.80389 6.05726 7.75745 5.85814 7.78859 5.66348L8.00859 4.35348C8.16859 3.39348 8.38858 2.06348 10.7186 2.06348H13.3386C15.6786 2.06348 15.8986 3.44348 16.0486 4.36348L16.2686 5.66348C16.3386 6.07348 16.0586 6.46348 15.6586 6.52348C15.2486 6.59348 14.8586 6.31348 14.7986 5.91348L14.5786 4.61348C14.4386 3.74348 14.4086 3.57348 13.3486 3.57348H10.7286C9.66858 3.57348 9.64859 3.71348 9.49859 4.60348L9.26858 5.90348C9.2401 6.07924 9.15001 6.23913 9.01443 6.35455C8.87886 6.46997 8.70664 6.5334 8.52858 6.53348ZM15.2386 23.5655H8.81858C5.32858 23.5655 5.18859 21.6355 5.07859 20.0755L4.42859 10.0055C4.39859 9.59548 4.71859 9.23548 5.12859 9.20548C5.54859 9.18548 5.89859 9.49548 5.92859 9.90548L6.57859 19.9755C6.68859 21.4955 6.72859 22.0655 8.81858 22.0655H15.2386C17.3386 22.0655 17.3786 21.4955 17.4786 19.9755L18.1286 9.90548C18.1586 9.49548 18.5186 9.18548 18.9286 9.20548C19.3386 9.23548 19.6586 9.58548 19.6286 10.0055L18.9786 20.0755C18.8686 21.6355 18.7286 23.5655 15.2386 23.5655Z" fill="#E72328"/>
<path d="M13.6886 18.0635H10.3586C9.94856 18.0635 9.60856 17.7235 9.60856 17.3135C9.60856 16.9035 9.94856 16.5635 10.3586 16.5635H13.6886C14.0986 16.5635 14.4386 16.9035 14.4386 17.3135C14.4386 17.7235 14.0986 18.0635 13.6886 18.0635ZM14.5286 14.0635H9.52856C9.11856 14.0635 8.77856 13.7235 8.77856 13.3135C8.77856 12.9035 9.11856 12.5635 9.52856 12.5635H14.5286C14.9386 12.5635 15.2786 12.9035 15.2786 13.3135C15.2786 13.7235 14.9386 14.0635 14.5286 14.0635Z" fill="#E72328"/>
</svg>
