<svg width="108" height="120" viewBox="0 0 108 120" fill="none" xmlns="http://www.w3.org/2000/svg">
<path d="M61.7369 0.186532C62.6861 0.718439 62.9741 1.55891 62.8419 2.58158C62.7537 3.26042 62.9447 3.616 63.7059 3.49258C63.9909 3.44556 64.2907 3.46613 64.5816 3.49552C65.5161 3.58956 66.1509 4.27427 66.1421 5.15001C66.1362 6.02868 65.4955 6.68695 64.5522 6.78099C63.508 6.88483 62.9369 7.45494 62.8389 8.49132C62.7508 9.42877 62.0866 10.0753 61.2109 10.0782C60.3381 10.0841 59.5035 9.42877 59.5887 8.51483C59.721 7.11013 59.3331 6.5841 57.8608 6.74573C56.941 6.84564 56.268 6.03456 56.2504 5.16764C56.2327 4.30072 56.8792 3.60131 57.8049 3.49258C57.9137 3.48082 58.0283 3.46613 58.1341 3.4867C59.3536 3.73649 59.7474 3.21928 59.5593 2.0438C59.4183 1.16806 60.0207 0.653787 60.6408 0.183594H61.7399L61.7369 0.186532Z" fill="#FACA0A"/>
<g clip-path="url(#clip0_2692_2725)">
<path d="M22.2621 104.747C16.287 102.264 13.4923 94.8086 19.0266 88.739C14.8818 84.0393 15.1652 78.9301 18.8652 74.7853C18.0032 73.1203 16.8892 71.6128 16.409 69.9281C14.7204 63.9609 19.1958 58.1472 25.4386 58.1078C33.9368 58.0527 42.431 58.0921 50.9292 58.0921C51.4488 58.0921 51.9644 58.0921 52.6375 58.0921C51.6259 56.4743 50.6419 55.0809 49.8389 53.593C46.7647 47.8777 45.698 41.8514 47.5953 35.5418C49.0516 30.6963 52.2478 27.3112 56.983 25.4652C59.2345 24.5874 60.439 25.2802 60.8956 27.6537C62.1158 33.9909 64.3082 39.9188 68.1106 45.1972C68.7089 46.0277 69.3819 46.5237 70.429 46.7756C79.6435 48.9798 84.607 55.1478 86.4255 64.1734C86.4806 64.4529 86.5239 64.7363 86.5869 65.0866H89.0706C89.3895 63.1933 90.716 62.7564 92.4951 62.7879C96.6674 62.8548 100.844 62.8036 105.02 62.8115C107.153 62.8155 107.992 63.6302 107.996 65.7243C108.004 81.0438 108.004 96.3634 107.996 111.687C107.996 113.868 107.169 114.667 104.941 114.671C100.718 114.678 96.4942 114.674 92.2707 114.671C90.2436 114.671 89.787 114.34 89.0116 112.384C88.8738 112.364 88.7282 112.344 88.5865 112.321C86.6105 111.982 85.3273 112.639 84.1622 114.434C81.9147 117.878 78.4509 119.39 74.3454 119.39C59.758 119.39 45.1706 119.402 30.5831 119.386C23.0454 119.378 18.5975 112.218 21.9039 105.476C22.0102 105.259 22.1165 105.043 22.266 104.751L22.2621 104.747ZM48.2605 85.5704C53.346 84.669 58.0143 83.441 62.1866 80.7801C64.812 79.1033 66.8825 76.9542 68.0043 73.9666C68.5671 72.463 69.8897 71.8804 71.165 72.4118C72.4482 72.9471 72.9127 74.1988 72.3577 75.7379C71.2241 78.875 69.2442 81.3863 66.6227 83.4173C62.7062 86.4521 58.1954 88.184 53.4326 89.3255C51.4999 89.79 49.5437 90.1521 47.5283 90.5772C50.0514 95.155 49.3744 99.2447 45.9618 102.925C49.3232 106.432 49.8704 110.325 47.8905 114.678C55.7982 114.678 63.5171 114.442 71.2123 114.761C76.2072 114.97 79.9623 113.671 82.2296 109.022C82.7531 107.948 83.7293 107.554 84.9219 107.593C86.2799 107.637 87.6418 107.605 89.0431 107.605V69.8809C87.6851 69.8809 86.4177 69.8848 85.1502 69.8809C82.9066 69.8691 82.1824 69.1802 82.0406 66.9327C81.5053 58.5368 76.3726 52.7034 68.209 51.0424C67.2446 50.8456 66.1858 50.2237 65.5481 49.4797C61.7143 45.0161 59.3014 39.781 57.6167 34.1838C57.2979 33.125 57.0184 32.0583 56.6878 30.8656C53.0508 33.3139 51.5669 36.7187 51.437 40.7414C51.2087 47.8659 54.3419 53.5104 59.4707 58.1905C60.3996 59.0367 61.1632 59.883 60.6712 61.2252C60.1595 62.6186 59.0023 62.8351 57.6758 62.8233C54.4521 62.7879 51.2283 62.8115 47.8511 62.8115C49.9412 67.2633 49.2248 71.1444 45.946 74.6082C48.9532 77.7375 49.8074 81.2997 48.2526 85.5744L48.2605 85.5704ZM93.9554 67.59V109.841H103.205V67.59H93.9554ZM32.6024 72.2386C34.8106 72.2386 37.0227 72.2386 39.2309 72.2386C39.3293 72.2386 39.4277 72.2386 39.5261 72.2386C42.2696 72.1599 44.3401 70.1131 44.3243 67.4956C44.3086 64.8819 42.2263 62.8351 39.4671 62.8194C34.85 62.7918 30.2368 62.7918 25.6196 62.8194C22.8407 62.8351 20.7782 64.8505 20.7545 67.4759C20.7309 70.1564 22.825 72.2032 25.6787 72.2347C27.9853 72.2622 30.2958 72.2386 32.6024 72.2386ZM32.5394 76.9542C30.2328 76.9542 27.9223 76.9305 25.6157 76.962C22.8525 76.9975 20.7703 79.0206 20.7506 81.6343C20.7309 84.2518 22.8014 86.3537 25.5409 86.3734C30.2053 86.4128 34.8696 86.4128 39.534 86.3734C42.2736 86.3498 44.34 84.2557 44.3204 81.6343C44.3007 79.0167 42.2224 76.9975 39.4592 76.962C37.1526 76.9345 34.8421 76.9542 32.5355 76.9542H32.5394ZM32.6024 91.1007C30.343 91.1007 28.0837 91.0889 25.8283 91.1007C22.8604 91.1204 20.727 93.1318 20.7545 95.8596C20.7821 98.5244 22.8879 100.508 25.7771 100.52C30.2958 100.54 34.8106 100.54 39.3293 100.52C42.2066 100.508 44.3125 98.5086 44.3243 95.836C44.3401 93.1594 42.2381 91.1283 39.3765 91.1007C37.1172 91.0771 34.8578 91.0968 32.6024 91.0968V91.1007ZM34.9523 114.674C36.5228 114.674 38.0973 114.714 39.6678 114.667C42.3129 114.588 44.3361 112.506 44.3243 109.939C44.3125 107.377 42.2775 105.298 39.6245 105.259C36.4835 105.212 33.3385 105.212 30.1974 105.259C27.5247 105.298 25.4976 107.333 25.4701 109.908C25.4425 112.533 27.5051 114.611 30.2407 114.671C31.8112 114.706 33.3818 114.678 34.9562 114.674H34.9523Z" fill="#FACA0A"/>
<path d="M108.299 33.8972C108.278 34.9198 107.538 35.5752 106.251 35.5076C105.278 35.4576 104.911 35.6956 104.984 36.7389C105.072 38.026 104.402 38.7901 103.412 38.8165C102.38 38.843 101.643 38.0407 101.737 36.7095C101.813 35.6369 101.396 35.4635 100.464 35.5076C99.2007 35.5663 98.4249 34.8757 98.4161 33.8736C98.4073 32.8598 99.1684 32.1545 100.438 32.2485C101.534 32.3308 101.79 31.9635 101.734 30.9261C101.66 29.6301 102.339 28.9249 103.388 28.9337C104.443 28.9425 105.075 29.6243 104.981 30.9614C104.902 32.0781 105.304 32.3073 106.324 32.2456C107.605 32.1692 108.32 32.848 108.299 33.8972Z" fill="#FACA0A"/>
<path d="M26.7048 38.5158C27.6716 38.5246 28.3916 39.2181 28.3152 40.3201C28.2388 41.4457 28.4475 41.9687 29.7434 41.8394C30.9042 41.7248 31.6536 42.4918 31.6389 43.4645C31.6213 44.4431 30.8807 45.169 29.6994 45.072C28.5151 44.975 28.2418 45.3953 28.3182 46.5002C28.4004 47.6522 27.6334 48.4163 26.6607 48.3986C25.688 48.381 24.9886 47.6287 25.0679 46.4503C25.1385 45.3953 24.9034 44.975 23.7396 45.072C22.4672 45.1778 21.7384 44.4637 21.7501 43.4205C21.7619 42.389 22.476 41.7366 23.7867 41.8336C24.8946 41.9159 25.1355 41.5279 25.0679 40.5023C24.9857 39.2299 25.6645 38.504 26.7048 38.5158Z" fill="#FACA0A"/>
</g>
<circle opacity="0.1" cx="54" cy="56" r="54" fill="#FACA0A"/>
<defs>
<clipPath id="clip0_2692_2725">
<rect width="92" height="94.2948" fill="white" transform="translate(16 25.0996)"/>
</clipPath>
</defs>
</svg>
