<svg width="317" height="317" viewBox="0 0 317 317" fill="none" xmlns="http://www.w3.org/2000/svg">
<g clip-path="url(#clip0_2712_45)">
<path d="M316.334 8.04883C311.644 19.3481 306.9 30.632 302.28 41.9623C274.186 110.904 246.116 179.853 218.038 248.802C215.306 255.519 212.218 256.549 205.864 252.873C188.412 242.765 170.952 232.65 153.5 222.542C152.525 221.977 151.535 221.436 150.265 220.731C149.352 221.869 148.462 222.968 147.588 224.075C136.536 238.199 125.5 252.339 114.44 266.455C111.801 269.821 108.76 270.92 105.95 269.032C104.364 267.964 103.071 266.107 102.243 264.327C87.6548 232.952 73.1437 201.546 58.6867 170.109C57.6032 167.748 56.1792 166.084 53.9116 164.784C37.6592 155.474 21.4764 146.04 5.25489 136.683C2.49971 135.089 -0.178074 133.456 0.00766863 129.749C0.20115 125.871 3.12659 124.54 6.19134 123.294C105.997 82.6398 205.795 41.9855 305.585 1.32341C306.513 0.944189 307.395 0.441138 308.301 0C310.979 0 313.657 0 316.334 0V8.04883ZM292.699 32.7912C292.552 32.6674 292.405 32.5436 292.258 32.4198C237.525 86.0219 182.801 139.616 127.883 193.404C154.917 209.061 181.486 224.454 208.279 239.971C236.543 170.612 264.621 101.702 292.699 32.7912ZM261.858 45.1973C261.649 44.9883 261.432 44.7871 261.223 44.5781C197.63 84.9306 134.028 125.291 70.2569 165.759C81.8735 190.897 93.4128 215.856 104.952 240.815C107.421 226.002 109.356 211.398 111.19 196.778C111.592 193.59 112.629 190.958 115.005 188.629C162.989 141.729 210.91 94.7672 258.863 47.8286C259.815 46.8999 260.859 46.0718 261.858 45.1973ZM245.102 40.1513C245.009 39.9268 244.909 39.7101 244.816 39.4857C170.101 69.9165 95.3785 100.332 20.2768 130.917C21.4377 131.637 22.2813 132.187 23.1403 132.69C35.4225 139.817 47.7434 146.891 59.9637 154.12C62.1152 155.389 63.6166 155.397 65.7527 154.034C118.821 120.268 171.943 86.5791 225.058 52.8746C231.744 48.6335 238.423 44.3924 245.11 40.1513H245.102ZM139.438 214.393C133.866 211.166 128.557 208.093 122.853 204.788C121.204 217.063 119.61 228.966 118.016 240.869C118.209 240.931 118.403 240.993 118.596 241.055C125.477 232.247 132.364 223.44 139.438 214.393Z" fill="#58C1CE"/>
<path d="M107.475 316.999C104.519 315.722 102.336 313.764 102.684 310.259C102.971 307.287 104.79 305.406 107.746 304.795C110.354 304.253 113.163 305.816 114.293 308.339C115.423 310.87 114.727 313.749 112.506 315.568C111.886 316.078 111.213 316.52 110.563 316.999H107.475Z" fill="#FACA0A"/>
<path d="M78.2825 245.149C76.8739 247.447 76.1542 249.336 74.8617 250.644C59.7082 265.952 44.4928 281.191 29.2388 296.398C26.1276 299.494 22.5443 299.68 19.913 297.149C17.212 294.556 17.3822 290.811 20.5863 287.583C35.7707 272.306 51.0016 257.083 66.2169 241.829C68.3762 239.662 71.054 238.509 73.7318 240.01C75.5427 241.024 76.6804 243.253 78.2902 245.149H78.2825Z" fill="#FACA0A"/>
<path d="M127.505 299.192C121.553 299.084 118.728 294.069 121.158 290.075C121.793 289.038 122.66 288.117 123.527 287.243C132.682 278.041 141.845 268.854 151.032 259.683C151.899 258.816 152.827 257.957 153.857 257.315C156.279 255.814 159.235 256.224 161.224 258.197C163.221 260.178 163.639 263.104 162.138 265.573C161.557 266.525 160.791 267.391 159.994 268.189C150.691 277.53 141.412 286.902 132.016 296.143C130.5 297.636 128.433 298.573 127.505 299.184V299.192Z" fill="#FACA0A"/>
<path d="M42.8521 182.717C44.5625 183.986 46.8688 184.884 47.6814 186.517C48.494 188.157 48.3624 190.766 47.6272 192.522C46.8455 194.395 44.9339 195.835 43.4248 197.367C38.9438 201.91 34.4472 206.445 29.8811 210.911C27.7064 213.039 25.0982 213.782 22.2657 212.288C19.82 211.004 18.6901 208.837 19.1777 206.128C19.4021 204.882 19.9981 203.489 20.8648 202.599C26.5222 196.756 32.257 190.982 38.0924 185.325C39.2069 184.249 40.894 183.769 42.8521 182.725V182.717Z" fill="#FACA0A"/>
<path d="M7.27492 218.61C10.5177 218.548 13.4354 221.389 13.4973 224.655C13.5515 227.89 10.7034 230.838 7.46066 230.893C4.22565 230.954 1.30022 228.106 1.2383 224.84C1.17639 221.598 4.00895 218.672 7.27492 218.61Z" fill="#FACA0A"/>
<path d="M12.793 310.259C12.8395 313.463 9.95272 316.365 6.70223 316.388C3.43627 316.411 0.580482 313.602 0.565003 310.336C0.549525 307.124 3.44401 304.16 6.6171 304.137C9.73602 304.114 12.7466 307.101 12.793 310.259Z" fill="#FACA0A"/>
</g>
<defs>
<clipPath id="clip0_2712_45">
<rect width="316.334" height="317" fill="white"/>
</clipPath>
</defs>
</svg>
