<svg width="171" height="88" viewBox="0 0 171 88" fill="none" xmlns="http://www.w3.org/2000/svg">
<g clip-path="url(#clip0_2033_1151)">
<path d="M157.23 17.14L170.36 0L163.25 25.3L157.23 17.14Z" fill="#FACA0A"/>
<path d="M145.69 9.06L170.36 0L154.29 14.42L145.7 9.05L145.69 9.06Z" fill="#FACA0A"/>
<path d="M170.36 0L155.49 17.61L156.83 18.85L152.62 19.22L152.66 14.99L153.96 16.19L170.36 0Z" fill="#00B9C2"/>
<path d="M120.84 27.97C110.7 24.32 103.9 15.55 102.24 5.61998H102.16C101.92 8.75998 102.23 12 103.17 15.2C106.01 24.75 113.73 31.51 122.8 33.59C101.94 33.71 92.01 17.52 90.27 5.62998H82.54C81.11 5.62998 79.71 5.48998 78.37 5.22998C80.92 18.87 90.56 30.92 104.15 35.82C120.9 41.85 139.02 36.04 149.37 22.69C141.77 29.24 131.08 31.67 120.83 27.97H120.84Z" fill="#00EBEB"/>
<path d="M144.21 19.5C143.87 20.44 144.36 21.48 145.3 21.82C146.24 22.16 147.28 21.67 147.62 20.73C147.96 19.79 147.47 18.75 146.53 18.41C145.59 18.07 144.55 18.56 144.21 19.5Z" fill="#FFD930"/>
<path d="M154.53 24.1801C154.36 24.6501 154.61 25.1801 155.08 25.3401C155.55 25.5101 156.07 25.2601 156.24 24.7901C156.41 24.3201 156.16 23.7901 155.69 23.6301C155.22 23.4601 154.7 23.7101 154.53 24.1801Z" fill="#FFD930"/>
<path d="M148.02 35.6C146.56 35.08 145.81 33.47 146.33 32.01C146.85 30.56 148.46 29.8 149.92 30.32C151.37 30.84 152.13 32.45 151.61 33.91C151.09 35.36 149.48 36.12 148.02 35.6Z" fill="#DDB614"/>
<path d="M120.84 27.9701C110.7 24.3201 103.9 15.5401 102.24 5.62012H102.16C101.92 8.76012 102.23 12.0001 103.17 15.2101C106.01 24.7601 113.73 31.5201 122.8 33.6001C122.8 33.6001 139.92 33.9901 149.37 22.7001C141.77 29.2501 131.08 31.6801 120.83 27.9801L120.84 27.9701Z" fill="#05848A"/>
<path d="M16.57 12.75V34.3H11.95V32.87C10.92 34.05 9.44 34.74 7.36 34.74C3.33 34.74 0 31.2 0 26.61C0 22.02 3.34 18.48 7.36 18.48C9.41 18.48 10.93 19.2 11.95 20.35V12.75H16.57ZM11.95 26.61C11.95 24.3 10.41 22.86 8.28 22.86C6.15 22.86 4.61 24.29 4.61 26.61C4.61 28.93 6.15 30.36 8.28 30.36C10.41 30.36 11.95 28.93 11.95 26.61Z" fill="#FACA0A"/>
<path d="M18.3 14.78C18.3 13.26 19.56 12.01 21.07 12.01C22.58 12.01 23.84 13.27 23.84 14.78C23.84 16.29 22.58 17.55 21.07 17.55C19.56 17.55 18.3 16.29 18.3 14.78ZM18.76 18.91H23.38V34.3H18.76V18.91Z" fill="#FACA0A"/>
<path d="M41.31 18.91V33.53C41.31 38.68 37.28 40.89 33.18 40.89C29.98 40.89 27.31 39.68 25.89 37.17L29.84 34.88C30.43 35.96 31.33 36.83 33.35 36.83C35.5 36.83 36.82 35.73 36.82 33.54V32.13C35.79 33.39 34.33 34.13 32.33 34.13C27.97 34.13 24.76 30.56 24.76 26.31C24.76 22.06 27.96 18.49 32.33 18.49C34.33 18.49 35.82 19.23 36.82 20.49V18.93H41.31V18.9V18.91ZM36.82 26.3C36.82 24.17 35.28 22.73 33.1 22.73C30.92 22.73 29.38 24.16 29.38 26.3C29.38 28.44 30.92 29.87 33.1 29.87C35.28 29.87 36.82 28.44 36.82 26.3Z" fill="#FACA0A"/>
<path d="M43 14.78C43 13.26 44.26 12.01 45.77 12.01C47.28 12.01 48.54 13.27 48.54 14.78C48.54 16.29 47.28 17.55 45.77 17.55C44.26 17.55 43 16.29 43 14.78ZM43.46 18.91H48.08V34.3H43.46V18.91Z" fill="#FACA0A"/>
<path d="M56.08 23.3501V28.7901C56.08 30.1201 57.21 30.2201 59.26 30.1201V34.3001C53.23 34.9201 51.48 33.0901 51.48 28.7801V23.3401H49.02V18.9001H51.48V15.9801L56.1 14.5901V18.9001H59.28V23.3401H56.07L56.08 23.3501Z" fill="#FACA0A"/>
<path d="M76.12 18.91V34.3H71.5V32.87C70.48 34.05 68.99 34.74 66.91 34.74C62.88 34.74 59.55 31.2 59.55 26.61C59.55 22.02 62.89 18.48 66.91 18.48C68.96 18.48 70.48 19.2 71.5 20.35V18.92H76.12V18.91ZM71.5 26.61C71.5 24.3 69.96 22.86 67.83 22.86C65.7 22.86 64.16 24.29 64.16 26.61C64.16 28.93 65.7 30.36 67.83 30.36C69.96 30.36 71.5 28.93 71.5 26.61Z" fill="#FACA0A"/>
<path d="M78.28 11.8201H82.9V34.3001H78.28V11.8201Z" fill="#FACA0A"/>
<path d="M25.99 58.7902C25.99 65.8002 20.9 71.2102 14.74 71.2102C11.6 71.2102 9.29 70.1102 7.73 68.3502V70.5502H0.709999V37.6602H7.77V49.2602C9.33 47.4502 11.61 46.4002 14.78 46.4002C20.94 46.4002 26.03 51.8102 26.03 58.8202L25.99 58.7802V58.7902ZM18.93 58.7902C18.93 55.2602 16.58 53.0702 13.32 53.0702C10.06 53.0702 7.71 55.2702 7.71 58.7902C7.71 62.3102 10.06 64.5102 13.32 64.5102C16.58 64.5102 18.93 62.3102 18.93 58.7902Z" fill="#00B9C2"/>
<path d="M26.03 58.7901C26.03 51.7801 31.6 46.3701 38.49 46.3701C45.38 46.3701 50.95 51.7801 50.95 58.7901C50.95 65.8001 45.38 71.2101 38.49 71.2101C31.6 71.2101 26.03 65.8001 26.03 58.7901ZM43.9 58.7901C43.9 55.4601 41.55 53.2201 38.49 53.2201C35.43 53.2201 33.08 55.4201 33.08 58.7901C33.08 62.1601 35.43 64.3601 38.49 64.3601C41.55 64.3601 43.9 62.1601 43.9 58.7901Z" fill="#00B9C2"/>
<path d="M50.96 58.7901C50.96 51.7801 56.53 46.3701 63.42 46.3701C70.31 46.3701 75.88 51.7801 75.88 58.7901C75.88 65.8001 70.31 71.2101 63.42 71.2101C56.53 71.2101 50.96 65.8001 50.96 58.7901ZM68.83 58.7901C68.83 55.4601 66.48 53.2201 63.42 53.2201C60.36 53.2201 58.01 55.4201 58.01 58.7901C58.01 62.1601 60.36 64.3601 63.42 64.3601C66.48 64.3601 68.83 62.1601 68.83 58.7901Z" fill="#00B9C2"/>
<path d="M91.61 70.5502L84.08 60.1702V70.5502H77.02V37.6602H84.08V57.3802L91.14 47.0702H99.37L90.83 58.8302L99.61 70.5902H91.61V70.5502Z" fill="#00B9C2"/>
<path d="M98.7 40.77C98.7 38.46 100.62 36.54 102.93 36.54C105.24 36.54 107.16 38.46 107.16 40.77C107.16 43.08 105.24 45 102.93 45C100.62 45 98.7 43.08 98.7 40.77ZM99.41 47.08H106.47V70.6H99.41V47.08Z" fill="#00B9C2"/>
<path d="M131.35 56.1299V70.5599H124.29V57.1599C124.29 54.2599 122.45 52.8899 120.21 52.8899C117.62 52.8899 115.82 54.3799 115.82 57.7499V70.5699H108.76V47.0899H115.82V49.2899C117.08 47.5699 119.43 46.4299 122.56 46.4299C127.3 46.4299 131.34 49.7999 131.34 56.1499L131.35 56.1299Z" fill="#00B9C2"/>
<path d="M157.49 47.0699V69.4099C157.49 77.2899 151.33 80.6599 145.07 80.6599C140.17 80.6599 136.09 78.8199 133.94 74.9799L139.97 71.4899C140.87 73.1399 142.24 74.4699 145.34 74.4699C148.63 74.4699 150.63 72.7799 150.63 69.4499V67.2999C149.06 69.2199 146.83 70.3599 143.77 70.3599C137.11 70.3599 132.21 64.9099 132.21 58.3999C132.21 51.8899 137.11 46.4399 143.77 46.4399C146.82 46.4399 149.1 47.5799 150.63 49.4999V47.1099H157.49V47.0699ZM150.63 58.3599C150.63 55.1099 148.28 52.9099 144.95 52.9099C141.62 52.9099 139.27 55.1099 139.27 58.3599C139.27 61.6099 141.62 63.8099 144.95 63.8099C148.28 63.8099 150.63 61.6099 150.63 58.3599Z" fill="#00B9C2"/>
<path d="M4.65 82.1599H1.7V84.8999H4.99V85.7199H0.709999V78.0999H4.81V78.9199H1.7V81.3299H4.66V82.1499H4.65V82.1599Z" fill="#AAAAAA"/>
<path d="M7.82 80.25L8.6 81.42C8.81 81.73 8.96 82 9.15 82.31H9.18C9.37 81.97 9.54 81.7 9.72 81.4L10.49 80.24H11.57L9.71 82.87L11.62 85.69H10.49L9.69 84.46C9.47 84.14 9.3 83.84 9.11 83.51H9.09C8.9 83.85 8.73 84.13 8.51 84.46L7.72 85.69H6.63L8.57 82.9L6.72 80.23H7.82H7.81L7.82 80.25Z" fill="#AAAAAA"/>
<path d="M13.71 82.0499C13.71 81.3499 13.69 80.7899 13.66 80.2599H14.55L14.6 81.1999H14.62C15.02 80.5299 15.68 80.1399 16.56 80.1399C17.88 80.1399 18.88 81.2499 18.88 82.9099C18.88 84.8699 17.69 85.8499 16.39 85.8499C15.67 85.8499 15.04 85.5299 14.7 84.9899H14.68V87.9599H13.69V82.0499H13.71ZM14.7 83.5099C14.7 83.6599 14.72 83.7999 14.75 83.9099C14.94 84.5999 15.53 85.0699 16.24 85.0699C17.3 85.0699 17.9 84.2099 17.9 82.9599C17.9 81.8599 17.32 80.9299 16.27 80.9299C15.59 80.9299 14.96 81.4099 14.77 82.1599C14.74 82.2799 14.7 82.4399 14.7 82.5699V83.5199V83.5099Z" fill="#AAAAAA"/>
<path d="M21.26 77.71H22.26V85.73H21.26V77.71Z" fill="#AAAAAA"/>
<path d="M29.99 82.9499C29.99 84.9699 28.59 85.8499 27.27 85.8499C25.79 85.8499 24.66 84.7599 24.66 83.0399C24.66 81.2199 25.85 80.1399 27.36 80.1399C28.87 80.1399 29.99 81.2699 29.99 82.9499ZM25.65 83.0099C25.65 84.1999 26.34 85.1099 27.31 85.1099C28.28 85.1099 28.97 84.2199 28.97 82.9899C28.97 82.0599 28.51 80.8899 27.33 80.8899C26.15 80.8899 25.64 81.9799 25.64 83.0099H25.65Z" fill="#AAAAAA"/>
<path d="M32.38 81.9599C32.38 81.3199 32.38 80.7699 32.33 80.2499H33.2L33.23 81.3299H33.28C33.53 80.5999 34.13 80.1399 34.8 80.1399C34.92 80.1399 34.99 80.1399 35.09 80.1699V81.1099C34.99 81.0899 34.88 81.0699 34.75 81.0699C34.05 81.0699 33.56 81.5999 33.42 82.3499C33.4 82.4899 33.37 82.6499 33.37 82.8099V85.7199H32.38V81.9599Z" fill="#AAAAAA"/>
<path d="M40.16 85.7199L40.08 85.0299H40.05C39.74 85.4499 39.16 85.8499 38.38 85.8499C37.28 85.8499 36.71 85.0699 36.71 84.2799C36.71 82.9599 37.88 82.2399 39.99 82.2499V82.1299C39.99 81.6799 39.87 80.8699 38.75 80.8699C38.24 80.8699 37.71 81.0299 37.33 81.2699L37.1 80.6199C37.55 80.3299 38.2 80.1399 38.89 80.1399C40.56 80.1399 40.96 81.2699 40.96 82.3799V84.4199C40.96 84.8899 40.98 85.3599 41.05 85.7199H40.14H40.16ZM40.01 82.9299C38.93 82.9099 37.69 83.0999 37.69 84.1599C37.69 84.7999 38.12 85.1099 38.63 85.1099C39.34 85.1099 39.79 84.6599 39.95 84.1899C39.98 84.0899 40 83.9699 40 83.8699V82.9199V82.9299H40.01Z" fill="#AAAAAA"/>
<path d="M47.78 83.1599C47.8 84.4999 48.67 85.0499 49.65 85.0499C50.36 85.0499 50.78 84.9299 51.17 84.7599L51.34 85.4699C50.98 85.6299 50.39 85.8099 49.53 85.8099C47.84 85.8099 46.85 84.7099 46.85 83.0599C46.85 81.4099 47.82 80.1199 49.41 80.1199C51.2 80.1199 51.67 81.6899 51.67 82.6899C51.67 82.8999 51.65 83.0599 51.64 83.1499H47.8L47.78 83.1599ZM50.69 82.4499C50.7 81.8199 50.43 80.8299 49.31 80.8299C48.3 80.8299 47.86 81.7599 47.79 82.4499H50.69Z" fill="#AAAAAA"/>
<path d="M54.01 77.71H55.01V85.73H54.01V77.71Z" fill="#AAAAAA"/>
<path d="M61.33 81.7399C61.33 81.1799 61.33 80.7099 61.28 80.2599H62.15L62.2 81.1499H62.23C62.54 80.6399 63.05 80.1399 63.95 80.1399C64.7 80.1399 65.26 80.5899 65.5 81.2399H65.52C65.69 80.9299 65.9 80.6999 66.13 80.5299C66.46 80.2799 66.82 80.1499 67.33 80.1499C68.05 80.1499 69.12 80.6199 69.12 82.5299V85.7399H68.15V82.6399C68.15 81.5799 67.77 80.9499 66.97 80.9499C66.41 80.9499 65.96 81.3599 65.8 81.8599C65.75 81.9999 65.72 82.1799 65.72 82.3499V85.7199H64.75V82.4499C64.75 81.5799 64.37 80.9499 63.62 80.9499C63 80.9499 62.54 81.4399 62.39 81.9499C62.34 82.0999 62.31 82.2699 62.31 82.4299V85.7199H61.34V81.7399H61.33Z" fill="#AAAAAA"/>
<path d="M76.43 84.23C76.43 84.79 76.43 85.29 76.48 85.72H75.59L75.54 84.83H75.52C75.26 85.26 74.68 85.85 73.72 85.85C72.86 85.85 71.84 85.38 71.84 83.46V80.26H72.84V83.29C72.84 84.33 73.16 85.03 74.05 85.03C74.72 85.03 75.18 84.57 75.36 84.13C75.41 83.98 75.45 83.79 75.45 83.62V80.27H76.45V84.24H76.44L76.43 84.23Z" fill="#AAAAAA"/>
<path d="M79.2 81.7399C79.2 81.1799 79.2 80.7099 79.15 80.2599H80.04L80.09 81.1699H80.11C80.38 80.6599 81.02 80.1399 81.91 80.1399C82.66 80.1399 83.84 80.5899 83.84 82.4699V85.7299H82.84V82.5699C82.84 81.6799 82.51 80.9499 81.58 80.9499C80.93 80.9499 80.42 81.4099 80.25 81.9699C80.2 82.0899 80.18 82.2599 80.18 82.4299V85.7099H79.18V81.7299H79.19L79.2 81.7399Z" fill="#AAAAAA"/>
<path d="M91.32 77.71V84.32C91.32 84.8 91.32 85.36 91.37 85.73H90.48L90.43 84.78H90.41C90.1 85.39 89.44 85.86 88.55 85.86C87.23 85.86 86.21 84.75 86.21 83.09C86.21 81.28 87.32 80.15 88.67 80.15C89.51 80.15 90.07 80.54 90.32 80.99H90.34V77.72H91.34H91.33L91.32 77.71ZM90.32 82.48C90.32 82.36 90.32 82.18 90.27 82.07C90.12 81.44 89.58 80.92 88.84 80.92C87.81 80.92 87.2 81.83 87.2 83.03C87.2 84.13 87.74 85.05 88.82 85.05C89.49 85.05 90.09 84.61 90.27 83.87C90.3 83.73 90.32 83.59 90.32 83.44V82.48Z" fill="#AAAAAA"/>
<path d="M99.03 82.9499C99.03 84.9699 97.63 85.8499 96.31 85.8499C94.83 85.8499 93.7 84.7599 93.7 83.0399C93.7 81.2199 94.89 80.1399 96.4 80.1399C97.91 80.1399 99.03 81.2699 99.03 82.9499ZM94.69 83.0099C94.69 84.1999 95.38 85.1099 96.35 85.1099C97.32 85.1099 98.01 84.2199 98.01 82.9899C98.01 82.0599 97.55 80.8899 96.37 80.8899C95.19 80.8899 94.68 81.9799 94.68 83.0099H94.69Z" fill="#AAAAAA"/>
</g>
<defs>
<clipPath id="clip0_2033_1151">
<rect width="170.36" height="87.95" fill="white"/>
</clipPath>
</defs>
</svg>
