<svg width="82" height="53" viewBox="0 0 82 53" fill="none" xmlns="http://www.w3.org/2000/svg">
<g clip-path="url(#clip0_2033_771)">
<path d="M44.8386 5.21973V52.0669H34.7968V48.9206C32.5919 51.4641 29.3052 53 24.8293 53C16.0592 53 8.83337 45.3036 8.83337 35.3363C8.83337 25.369 16.0592 17.6644 24.8293 17.6644C29.3134 17.6644 32.5919 19.2004 34.7968 21.7438V5.21973H44.8386ZM34.7968 35.3363C34.7968 30.3155 31.4523 27.1693 26.836 27.1693C22.2197 27.1693 18.8752 30.3155 18.8752 35.3363C18.8752 40.3572 22.2197 43.5034 26.836 43.5034C31.4523 43.5034 34.7968 40.3572 34.7968 35.3363Z" fill="#FACA0A"/>
<path d="M81.9092 35.3363C81.9092 45.3036 74.6834 53 65.9133 53C61.4291 53 58.1507 51.4641 55.9458 48.9206V52.0669H45.9039V5.21973H55.9458V21.7521C58.1507 19.2086 61.4374 17.6727 65.9133 17.6727C74.6834 17.6727 81.9092 25.369 81.9092 35.3363ZM71.8673 35.3363C71.8673 30.3155 68.5228 27.1693 63.9066 27.1693C59.2903 27.1693 55.9458 30.3155 55.9458 35.3363C55.9458 40.3572 59.2903 43.5034 63.9066 43.5034C68.5228 43.5034 71.8673 40.3572 71.8673 35.3363Z" fill="#00B9C2"/>
</g>
<g clip-path="url(#clip1_2033_771)">
<path d="M6.99841 17.0885L1.56591 0L0 21.7702L6.99841 17.0885Z" fill="#FACA0A"/>
<path d="M18.289 14.0209L1.56592 0L10.062 15.7916L18.289 14.0209Z" fill="#FACA0A"/>
<path d="M1.56592 0L8.22705 17.9477L6.8338 18.538L10.0178 20.0115L11.1782 16.695L9.82107 17.2692L1.56592 0Z" fill="#00B9C2"/>
<path d="M64.2906 22.5975C61.9658 31.9046 48.3063 46.6242 29.2584 39.6338C36.9273 40.5693 44.8653 37.4616 49.7758 30.7965C51.4782 28.4837 52.6547 25.9502 53.3453 23.3323C49.294 30.7523 41.4323 35.7953 32.3822 35.7953C23.332 35.7953 15.6671 30.8888 11.5676 23.6294C15.896 36.9718 28.4192 46.6202 43.203 46.6202C57.9868 46.6202 71.1525 36.4699 75.1556 22.5935H64.2906V22.5975Z" fill="#00EBEB"/>
<path d="M16.5062 22.5975C16.5062 23.4286 15.8317 24.1032 15.0006 24.1032C14.1694 24.1032 13.4949 23.4286 13.4949 22.5975C13.4949 21.7663 14.1694 21.0918 15.0006 21.0918C15.8317 21.0918 16.5062 21.7663 16.5062 22.5975Z" fill="#FFD930"/>
<path d="M7.12688 23.3523C7.12688 23.7698 6.78961 24.1071 6.37204 24.1071C5.95446 24.1071 5.61719 23.7698 5.61719 23.3523C5.61719 22.9347 5.95446 22.5974 6.37204 22.5974C6.78961 22.5974 7.12688 22.9347 7.12688 23.3523Z" fill="#FFD930"/>
<path d="M9.00201 34.1048C10.2882 34.1048 11.3308 33.0622 11.3308 31.7761C11.3308 30.4899 10.2882 29.4473 9.00201 29.4473C7.71585 29.4473 6.67322 30.4899 6.67322 31.7761C6.67322 33.0622 7.71585 34.1048 9.00201 34.1048Z" fill="#DDB614"/>
<path d="M29.2584 39.6377C36.9273 40.5732 44.8653 37.4655 49.7758 30.8003C51.4782 28.4876 52.6547 25.9541 53.3453 23.3362C49.294 30.7562 41.4323 35.7992 32.3822 35.7992C23.332 35.7992 15.6671 30.8927 11.5676 23.6333C15.7675 35.1207 29.2584 39.6337 29.2584 39.6337V39.6377Z" fill="#05848A"/>
</g>
<defs>
<clipPath id="clip0_2033_771">
<rect width="73.0758" height="47.7803" fill="white" transform="translate(8.83337 5.21973)"/>
</clipPath>
<clipPath id="clip1_2033_771">
<rect width="75.1596" height="46.6239" fill="white"/>
</clipPath>
</defs>
</svg>
