<svg width="32" height="25" viewBox="0 0 32 25" fill="none" xmlns="http://www.w3.org/2000/svg">
<g clip-path="url(#clip0_2427_32)">
<path d="M2.24542 24.3192C1.99904 24.1474 1.95852 23.9059 1.93178 23.6158C1.81831 22.3669 2.10845 21.2403 2.69765 20.13C3.43191 18.7474 4.04704 17.3016 4.71241 15.8825C4.75455 15.7925 4.79103 15.7001 4.84938 15.564C4.61273 15.564 4.40606 15.564 4.20021 15.564C3.31034 15.564 2.42047 15.5672 1.53142 15.5632C0.622096 15.5599 0.00291667 14.9464 0.00210622 14.0387C0.000485333 9.86494 0.000485333 5.69034 0.00291667 1.51573C0.00291667 0.625866 0.623717 0.0018235 1.51034 0.0018235C8.42587 -0.000607834 15.3406 -0.000607834 22.2561 0.0018235C23.1752 0.0018235 23.7814 0.623435 23.7814 1.56031C23.783 6.42379 23.7814 11.2865 23.7814 16.1499V16.5373C24.514 16.5373 25.2191 16.5519 25.9234 16.5308C26.2646 16.5203 26.5126 16.6249 26.7525 16.8696C27.8352 17.9759 28.9334 19.0667 30.0631 20.2005C30.0761 20.0863 30.0907 20.015 30.0907 19.9428C30.0915 14.4715 30.0923 9.00019 30.0907 3.52969C30.0907 3.09124 29.9205 2.92024 29.4869 2.91943C28.1424 2.91699 26.7978 2.91943 25.4533 2.91861C25.352 2.91861 25.2475 2.92915 25.151 2.90646C24.9071 2.84973 24.7596 2.69088 24.758 2.43559C24.7563 2.1803 24.903 2.02388 25.1453 1.95824C25.1932 1.94527 25.2458 1.9477 25.2961 1.9477C26.7419 1.9477 28.1878 1.93717 29.6328 1.95337C30.256 1.96067 30.6969 2.28809 30.9514 2.86026C30.987 2.94131 31.0251 3.02154 31.0616 3.10178V21.584C30.7034 21.9892 30.4805 21.9941 30.0899 21.6026C28.7891 20.3002 27.49 18.9954 26.1876 17.6955C26.113 17.6209 26.0141 17.522 25.9242 17.5196C25.2199 17.505 24.5156 17.5115 23.7822 17.5115C23.7822 18.1242 23.7781 18.7085 23.7838 19.2928C23.7862 19.5514 23.7514 19.7815 23.4831 19.8982C23.2108 20.0166 23.0228 19.8731 22.8429 19.6908C22.1807 19.023 21.5202 18.3519 20.8443 17.6987C20.7365 17.595 20.5526 17.5204 20.4026 17.5188C19.0492 17.505 17.6941 17.5309 16.3415 17.4985C15.9452 17.4888 15.7628 17.6606 15.5894 17.9986C16.2758 17.9986 16.9291 17.9896 17.5815 18.001C18.5127 18.0172 19.2761 18.7109 19.4009 19.6381C19.5419 20.6836 19.1083 21.3514 18.1164 21.6674C16.2531 22.2615 14.3899 22.858 12.5348 23.4788C11.803 23.7235 11.093 24.0372 10.3734 24.32H2.24542V24.3192ZM22.7975 18.2717C22.8056 18.1517 22.8113 18.1039 22.8113 18.0569C22.8113 12.5556 22.8121 7.05513 22.8113 1.55383C22.8113 1.14536 22.6305 0.973547 22.2091 0.973547C15.3349 0.972737 8.46153 0.972737 1.58734 0.973547C1.14726 0.973547 0.97383 1.14131 0.97383 1.57328C0.972209 5.71708 0.972209 9.86007 0.97383 14.0039C0.97383 14.4172 1.15132 14.5906 1.56951 14.5915C2.74222 14.5939 3.91493 14.5898 5.08765 14.5955C5.24406 14.5955 5.33808 14.5647 5.41264 14.4051C5.82596 13.5192 6.50674 12.9211 7.45658 12.695C8.30755 12.4924 9.16986 12.293 10.0387 12.2128C11.3767 12.0888 12.6321 12.3571 13.633 13.3644C13.7075 13.2947 13.7683 13.2413 13.8251 13.1845C14.6833 12.3254 15.5383 11.4631 16.3998 10.6073C16.9647 10.0457 17.7379 9.87791 18.4357 10.198C19.5873 10.7264 20.1822 12.0937 19.2518 13.2364C18.9041 13.6643 18.5751 14.1076 18.2331 14.5501C18.2817 14.5744 18.2979 14.5882 18.3149 14.5898C18.3757 14.5931 18.4373 14.602 18.4965 14.5915C18.9649 14.512 19.2883 14.7244 19.6068 15.0542C20.6393 16.1248 21.6993 17.1679 22.7999 18.2725L22.7975 18.2717ZM2.91971 23.3353C3.00075 23.3402 3.04046 23.3451 3.08018 23.3451C5.36401 23.3451 7.64784 23.3467 9.93168 23.3418C10.0678 23.3418 10.2105 23.3029 10.3401 23.2551C11.6182 22.7851 12.8841 22.2777 14.1744 21.8433C15.407 21.4284 16.6649 21.0864 17.9121 20.7152C18.1585 20.6414 18.3563 20.519 18.426 20.2532C18.6099 19.5449 18.1658 18.9703 17.4307 18.9687C16.5311 18.9662 15.6315 18.9646 14.7328 18.9703C14.4767 18.9719 14.2465 18.9435 14.1225 18.6777C14.0034 18.4216 14.1371 18.2344 14.2846 18.0448C15.6745 16.2553 17.0644 14.465 18.4503 12.6723C18.5418 12.554 18.6318 12.4251 18.6829 12.2857C18.8336 11.8773 18.6205 11.4242 18.1617 11.1373C17.8133 10.9201 17.4088 10.9704 17.0863 11.2913C16.0611 12.3125 15.0423 13.3393 14.0179 14.3613C13.6889 14.6895 13.4101 14.6717 13.1362 14.3013C12.6264 13.6116 11.9173 13.2947 11.093 13.1942C9.95599 13.0549 8.86513 13.2915 7.77914 13.5962C7.03515 13.8053 6.53672 14.2551 6.21336 14.9529C5.23191 17.0714 4.26018 19.1956 3.22362 21.2873C2.89053 21.96 2.91566 22.6213 2.91809 23.3345L2.91971 23.3353ZM16.6908 16.5365H19.704C19.3644 16.1994 19.0954 15.9271 18.8198 15.6604C18.7728 15.615 18.7023 15.5697 18.6423 15.5689C18.2695 15.5607 17.8967 15.5616 17.5231 15.5689C17.4729 15.5697 17.408 15.6094 17.3748 15.6507C17.1568 15.9246 16.9453 16.205 16.69 16.5365H16.6908Z" fill="#58C1CE"/>
<path d="M28.1504 5.35061C27.6665 5.35061 27.2232 5.35385 26.7799 5.3498C26.4249 5.34656 26.2085 5.15529 26.211 4.86029C26.2134 4.56448 26.4282 4.38132 26.788 4.3797C27.3739 4.37645 27.9591 4.37564 28.545 4.3797C28.9405 4.38213 29.1164 4.55962 29.1188 4.95673C29.1229 5.5435 29.1229 6.13026 29.1188 6.71783C29.1164 7.07524 28.93 7.29325 28.6366 7.29487C28.3432 7.29649 28.1536 7.07767 28.1504 6.72269C28.1463 6.27938 28.1495 5.83526 28.1495 5.35223L28.1504 5.35061Z" fill="#58C1CE"/>
<path d="M29.1194 9.47511C29.1194 9.71824 29.1275 9.96138 29.1169 10.2045C29.104 10.4955 28.907 10.6932 28.6436 10.6981C28.3689 10.7037 28.159 10.4995 28.1525 10.1924C28.1436 9.71662 28.1428 9.24008 28.1525 8.76435C28.159 8.4734 28.3608 8.27646 28.6242 8.2716C28.8989 8.26593 29.104 8.46935 29.1161 8.77651C29.125 9.00911 29.1177 9.24251 29.1177 9.47511H29.1194Z" fill="#58C1CE"/>
<path d="M2.91454 8.65751C2.94291 8.35278 2.93804 8.06345 3.00288 7.79115C3.08311 7.45319 2.981 7.21168 2.74435 6.98313C2.55632 6.80078 2.39261 6.59331 2.21999 6.39475C1.84881 5.96845 1.96875 5.59079 2.51337 5.46841C2.83755 5.39547 3.16821 5.34036 3.48428 5.23986C3.62854 5.19367 3.77847 5.08102 3.866 4.9554C4.06213 4.67498 4.2153 4.36458 4.39441 4.07201C4.63593 3.67652 5.07113 3.67652 5.31427 4.07201C5.47311 4.32973 5.64088 4.58503 5.76974 4.85896C5.89536 5.12559 6.08581 5.24635 6.36866 5.28849C6.6669 5.33226 6.9619 5.4052 7.25528 5.47976C7.72291 5.59727 7.84286 5.9798 7.52921 6.35017C7.30715 6.61276 7.0859 6.87615 6.84601 7.12172C6.69527 7.2757 6.66042 7.43617 6.68959 7.64121C6.73579 7.96134 6.76821 8.2839 6.79009 8.60645C6.82575 9.13081 6.50319 9.36179 6.02422 9.15918C5.69923 9.02221 5.38153 8.8658 5.05087 8.74423C4.93417 8.70128 4.77613 8.70128 4.65943 8.74423C4.31985 8.86985 3.99405 9.03356 3.65772 9.17052C3.21035 9.35287 2.8959 9.12271 2.91454 8.65913V8.65751ZM4.85475 5.21636C4.60351 5.90848 4.1294 6.2359 3.40567 6.26751C3.98352 6.71893 4.15209 7.27165 3.95515 7.97431C4.56217 7.56422 5.1457 7.57557 5.75515 7.96701C5.54768 7.26274 5.73732 6.71893 6.30544 6.26103C5.57361 6.24157 5.1076 5.90524 4.85556 5.21636H4.85475Z" fill="#58C1CE"/>
<path d="M13.5875 8.62479C13.598 9.1297 13.2779 9.34933 12.8451 9.17022C12.5096 9.03163 12.1838 8.86873 11.8434 8.74311C11.7275 8.70016 11.5687 8.70016 11.452 8.74311C11.1027 8.87279 10.7679 9.04055 10.4211 9.17913C10.0069 9.34446 9.68924 9.11511 9.7095 8.66531C9.72247 8.37274 9.73625 8.07612 9.79379 7.79003C9.85781 7.47234 9.80108 7.22758 9.55714 7.0039C9.35696 6.82074 9.19082 6.59949 9.01171 6.39444C8.64053 5.96815 8.76128 5.59129 9.3059 5.46811C9.63008 5.39517 9.96074 5.34006 10.2768 5.23956C10.4211 5.19337 10.571 5.0799 10.6585 4.95509C10.8547 4.67468 11.0078 4.36428 11.1869 4.07171C11.4285 3.67621 11.8637 3.67702 12.1068 4.07171C12.2656 4.32943 12.4334 4.58472 12.5623 4.85865C12.6879 5.1261 12.8792 5.24604 13.1612 5.28738C13.4594 5.33114 13.7544 5.40408 14.0478 5.47864C14.5154 5.59697 14.6346 5.97869 14.3209 6.34987C14.0989 6.61245 13.8776 6.87666 13.6377 7.12141C13.487 7.2754 13.4529 7.43587 13.4813 7.64091C13.5291 7.9813 13.5551 8.32411 13.5859 8.62479H13.5875ZM10.7509 7.97886C11.3555 7.55419 11.939 7.58661 12.5598 7.96509C12.3021 7.24784 12.5639 6.72754 13.0899 6.25667C12.3556 6.24857 11.9026 5.89278 11.6432 5.21768C11.3985 5.9179 10.9146 6.23074 10.1998 6.27288C10.7866 6.72349 10.9365 7.28107 10.7509 7.97886Z" fill="#58C1CE"/>
<path d="M16.5047 8.60211C16.5371 8.29009 16.5906 7.93835 16.602 7.585C16.6068 7.44155 16.5533 7.26973 16.4674 7.15627C16.247 6.86775 15.9876 6.60922 15.7542 6.33043C15.4576 5.97708 15.5881 5.59049 16.0346 5.47703C16.1027 5.46001 16.1724 5.43489 16.2413 5.43327C17.085 5.41787 17.6004 4.96888 17.9116 4.21112C17.9773 4.05065 18.1369 3.8918 18.2933 3.81562C18.53 3.70054 18.7456 3.81076 18.8825 4.03768C19.0754 4.35781 19.2521 4.68847 19.4596 4.99887C19.5285 5.10179 19.6573 5.19419 19.7765 5.22822C20.125 5.3271 20.4848 5.38788 20.8365 5.4746C21.3066 5.5913 21.4298 5.97059 21.1242 6.34178C21.0343 6.45119 20.9524 6.57356 20.843 6.65866C20.2862 7.0882 20.1955 7.64497 20.3397 8.29576C20.4037 8.58347 20.488 8.90927 20.1906 9.13862C19.8834 9.37527 19.5893 9.18157 19.3494 9.03002C18.7269 8.63696 18.1361 8.64668 17.5323 9.04461C17.4497 9.09891 17.3492 9.12809 17.2552 9.16537C16.8021 9.34528 16.4877 9.12484 16.5063 8.6013L16.5047 8.60211ZM16.9902 6.22588C17.2252 6.53385 17.4813 6.74862 17.5696 7.0185C17.6612 7.29729 17.5899 7.62957 17.5899 7.9886C18.154 7.54204 18.7367 7.59553 19.2942 7.96672C19.2942 7.61255 19.2221 7.28594 19.3145 7.01607C19.4085 6.74295 19.6646 6.52494 19.8543 6.27856C19.5447 6.18536 19.2108 6.16267 18.9822 5.99491C18.7488 5.82309 18.6191 5.51026 18.4052 5.2031C18.1823 5.89684 17.7301 6.24047 16.9893 6.22669L16.9902 6.22588Z" fill="#58C1CE"/>
</g>
<defs>
<clipPath id="clip0_2427_32">
<rect width="31.0619" height="24.319" fill="white"/>
</clipPath>
</defs>
</svg>
