<svg width="23" height="33" viewBox="0 0 23 33" fill="none" xmlns="http://www.w3.org/2000/svg">
<g clip-path="url(#clip0_2420_1387)">
<path d="M15.8302 24.9402C16.1232 24.6548 16.3781 24.4127 16.6256 24.1631C16.6554 24.1279 16.6952 24.1028 16.7396 24.0912C16.784 24.0796 16.831 24.082 16.874 24.0982C18.0104 24.4551 19.1089 24.8844 20.0401 25.664C20.4912 26.0426 20.8628 26.4861 21.0474 27.0552C21.309 27.8623 21.1236 28.5944 20.612 29.2468C19.9382 30.1071 19.0112 30.6021 18.0287 31.0023C16.5387 31.6114 14.966 31.9126 13.3726 32.0515C11.0773 32.2512 8.79525 32.158 6.54381 31.6297C5.25337 31.3268 4.00845 30.9067 2.90177 30.142C2.5757 29.9218 2.28106 29.6578 2.02602 29.3574C1.16683 28.3232 1.17428 27.1259 2.06079 26.1125C2.79085 25.2805 3.75185 24.8029 4.75838 24.4127C5.80298 24.0075 5.80629 24.0166 6.59264 24.8387C6.62162 24.8686 6.64728 24.9002 6.68866 24.9468C6.26403 25.0775 5.85099 25.1964 5.44706 25.3312C4.71909 25.5609 4.03124 25.9034 3.40834 26.3463C3.13666 26.5369 2.90187 26.7757 2.71553 27.051C2.39933 27.5378 2.40016 27.9887 2.72463 28.4713C2.99116 28.8674 3.35868 29.1502 3.75765 29.3949C4.84529 30.0655 6.04303 30.4332 7.28463 30.6729C10.1999 31.2328 13.1094 31.2037 16.0032 30.5065C16.9965 30.2677 17.9566 29.924 18.8316 29.3774C19.228 29.1278 19.5923 28.8407 19.8538 28.4414C20.1518 27.9843 20.1518 27.5278 19.8538 27.0718C19.5815 26.6558 19.1991 26.3538 18.7827 26.0984C17.9484 25.5867 17.0362 25.2663 16.0975 25.0167C16.0305 25.0017 15.9626 24.9801 15.8302 24.9402Z" fill="#58C1CE"/>
<path d="M22.337 9.68027C21.3429 4.38939 16.6579 0.56454 11.1452 0.553724C10.6972 0.546647 10.2495 0.577542 9.80671 0.646079C9.34748 0.711738 8.89211 0.802283 8.4426 0.917321C3.46045 2.2544 0.0518337 6.64253 -0.000313698 11.8244C-0.03094 14.8813 0.999592 17.5571 3.11363 19.747C5.73259 22.4586 8.41694 25.1053 11.0657 27.7878C11.2437 27.9675 11.3289 27.945 11.492 27.7803C14.0778 25.166 16.691 22.5801 19.2537 19.9434C22.0448 17.0745 23.0753 13.6166 22.337 9.68027ZM18.5294 19.1338C16.191 21.5134 13.832 23.8706 11.487 26.2427C11.3322 26.3991 11.2528 26.4291 11.0798 26.2535C8.70748 23.8506 6.3029 21.4785 3.95544 19.0506C1.83395 16.8615 0.910197 14.1907 1.11134 11.1338C1.37787 7.13342 4.10857 3.54321 7.8756 2.2311C13.5746 0.255025 19.5922 3.47498 21.1525 9.33914C21.3785 10.1861 21.4703 11.0523 21.4836 12.0116C21.4306 14.7166 20.4862 17.1428 18.5286 19.1338H18.5294Z" fill="#58C1CE"/>
<path d="M19.8355 10.1762C19.8355 10.2702 19.8355 10.3634 19.8355 10.4566C19.8206 10.7769 19.612 10.9882 19.3115 10.994C19.2416 10.9986 19.1714 10.9887 19.1055 10.9647C19.0396 10.9408 18.9793 10.9035 18.9284 10.855C18.8775 10.8066 18.8371 10.7482 18.8097 10.6833C18.7824 10.6185 18.7686 10.5486 18.7693 10.4782C18.7387 9.73685 18.6493 9.00632 18.3455 8.32406C17.3696 6.13332 15.6877 4.8445 13.3576 4.39604C13.2552 4.38244 13.1521 4.37549 13.0488 4.37524C12.6995 4.35361 12.4636 4.12563 12.4761 3.81195C12.4885 3.49828 12.7318 3.28611 13.0861 3.2911C13.8948 3.30109 14.6538 3.52823 15.3748 3.87352C17.5418 4.91356 19.0665 6.51689 19.6649 8.91314C19.7685 9.32642 19.8257 9.75007 19.8355 10.1762Z" fill="#58C1CE"/>
<path d="M11.3165 6.12696C8.31434 6.12197 5.84106 8.60641 5.83692 11.6317C5.83278 14.6569 8.29778 17.1472 11.3 17.1514C14.3022 17.1555 16.7763 14.6727 16.7796 11.6458C16.7766 10.1878 16.2009 8.78998 15.1778 7.75644C14.1547 6.72289 12.767 6.13727 11.3165 6.12696ZM11.3016 16.0489C10.434 16.0489 9.58579 15.7903 8.86435 15.3057C8.14291 14.8212 7.58062 14.1325 7.24857 13.3267C6.91653 12.5209 6.82965 11.6343 6.99893 10.7789C7.1682 9.92345 7.58602 9.13771 8.19956 8.52099C8.81309 7.90427 9.59478 7.48429 10.4458 7.31413C11.2968 7.14398 12.1789 7.23131 12.9805 7.56507C13.7821 7.89884 14.4672 8.46405 14.9493 9.18923C15.4313 9.91441 15.6886 10.767 15.6886 11.6392C15.6905 12.2189 15.5783 12.7932 15.3585 13.3292C15.1387 13.8651 14.8157 14.3521 14.408 14.7621C14.0002 15.1721 13.5159 15.497 12.9828 15.7181C12.4497 15.9392 11.8783 16.0522 11.3016 16.0506V16.0489Z" fill="#58C1CE"/>
</g>
<defs>
<clipPath id="clip0_2420_1387">
<rect width="22.5682" height="31.5955" fill="white" transform="translate(0 0.552734)"/>
</clipPath>
</defs>
</svg>
