<svg width="417" height="556" viewBox="0 0 417 556" fill="none" xmlns="http://www.w3.org/2000/svg">
<g clip-path="url(#clip0_2745_66)">
<path d="M382.838 433.763C389.395 435.533 390.744 440.126 390.692 446.402C390.464 478.009 390.411 509.615 390.692 541.222C390.797 552.862 386.52 553.896 377.229 554.755C368.955 555.526 360.54 554.843 352.178 554.843C289.14 554.843 226.085 553.966 163.064 555.158C121.536 555.947 80.0246 555.281 38.5135 556C30.6249 556.14 28.5213 553.949 28.5038 545.885C28.5038 510.457 29.1875 475.011 28.2058 439.618C27.8201 425.471 27.6799 411.254 26.8735 397.072C26.3651 388.237 27.9604 378.841 31.6767 370.286C32.8863 367.499 32.5007 365.378 28.8544 365.203C14.1993 364.484 -0.683703 344.605 0.0174981 331.317C1.03424 312.472 0.350569 293.54 0.262919 274.66C0.192799 261.355 7.30999 252.572 17.8105 245.736C24.7874 241.195 32.413 239.53 40.6521 239.951C44.8243 240.161 49.014 239.916 53.1861 240.003C59.4093 240.143 65.7201 241.073 69.2436 233.71C70.6986 230.677 74.2572 229.976 77.5879 229.766C85.9848 229.275 94.3466 227.872 102.638 231.045C106.32 232.448 108.493 234.99 110.369 238.075C111.246 239.512 112.473 240.459 113.893 239.775C116.101 238.688 113.998 237.076 113.577 236.182C109.493 227.522 106.688 218.441 105.093 209.08C104.619 206.275 103.795 206.083 101.534 206.012C95.6438 205.837 89.6661 206.907 83.8812 205.031C74.8006 202.086 69.0157 194.285 68.9631 184.784C68.9105 175.528 68.893 166.254 69.0157 156.998C69.0508 154.106 68.8579 152.704 65.089 152.563C52.9757 152.108 39.6704 138.978 41.6689 124.095C43.4745 110.667 51.9239 101.148 66.9121 100.464C72.5393 100.201 78.1664 100.394 83.8111 100.412C87.5099 100.412 89.7187 99.2546 91.2964 95.2928C94.592 87.0186 99.255 79.2878 102.638 71.0312C107.442 59.3737 112.192 47.6987 118.275 36.6548C126.111 22.4379 137.05 11.4992 152.389 5.39874C156.894 3.61067 161.644 1.59472 166.08 0.700689C169.48 -0.0355728 173.88 -0.0180428 177.842 -0.000512766C196.915 0.139728 215.988 -0.0706329 235.06 0.139728C241.248 0.209848 247.384 1.54213 253.537 2.10309C272.189 3.75092 283.215 15.759 294.101 29.2221C304.865 42.5449 309.265 58.8478 317.346 73.3802C321.518 80.848 324.832 88.8242 328.18 96.7302C329.354 99.5175 331.23 99.1669 333.351 99.3071C339.802 99.7454 346.201 99.1318 352.722 100.184C370.795 103.094 378.736 123.464 369.112 138.732C364.379 146.253 357.262 149.566 348.883 150.407C346.113 150.688 345.447 151.512 345.85 153.948C347.708 165.203 347.48 176.474 345.815 187.729C344.588 196.038 334.087 206.1 324.498 205.101C319.853 204.61 313.858 203.523 310.79 205.82C308.09 207.853 309.09 214.357 307.564 218.564C306.355 221.947 305.917 225.594 303.024 228.766C301.762 230.151 300.868 235.007 299.921 238.426C302.025 238.899 303.603 239.565 304.812 236.848C307.6 230.59 313.174 228.433 319.59 228.17C324.306 227.978 329.039 228.083 333.754 228.135C340.118 228.205 345.131 231.484 348.672 236.182C350.443 238.531 351.951 238.934 354.335 238.934C362.696 238.899 371.058 238.618 379.403 238.986C394.619 239.67 406.767 245.665 413.271 260.285C415.83 266.018 416.391 272.294 416.531 278.394C416.899 293.645 416.671 308.914 416.654 324.165C416.619 343.553 407.047 356.753 388.466 363.117C386.222 363.888 385.731 365.273 386.064 367.639C387.098 375.16 389.184 382.47 389.991 390.078C390.604 395.88 390.674 401.665 390.271 407.362C390.008 411.131 387.344 414.252 382.821 414.532C376.738 413.884 374.091 411.166 374.161 405.294C374.266 397.02 373.653 388.851 372.128 380.682C369.077 364.291 360.505 351.196 348.532 340.135C340.626 332.842 331.353 327.794 320.817 324.305C320.817 366.237 320.87 407.643 320.765 449.066C320.747 457.358 323.815 464.318 329.267 470.102C339.259 480.743 351.407 488.93 362.521 498.326C366.062 501.323 369.06 505.285 374.214 506.775C374.214 485.459 374.214 464.581 374.214 443.685C374.214 437.076 375.879 435.218 382.803 433.798L382.838 433.763ZM82.917 310.264C84.5999 311.386 86.5282 310.877 88.1936 310.614C96.5203 309.299 96.8709 308.44 97.2215 300.201C97.8526 285.932 95.6088 271.785 96.0295 257.533C96.3626 246.297 96.0996 246.507 84.8278 246.367C80.9712 246.314 80.2875 247.751 80.5855 251.012C81.8302 264.686 81.6724 278.394 81.7601 292.12C81.8126 298.028 80.7959 303.988 82.3911 309.843C80.5505 310.544 81.4971 311.824 81.5497 313.051C82.8294 312.367 82.9872 311.386 82.882 310.281L82.917 310.264ZM215.9 142.957C217.618 135.857 222.772 134.946 229.082 134.981C267.228 135.139 305.373 135.051 343.501 135.051C345.131 135.051 346.849 135.331 348.392 134.946C352.599 133.929 356.175 131.843 356.666 127.057C357.385 120.045 355.947 117.749 350.005 116.154C348.129 115.645 346.078 115.628 344.115 115.645C276.992 116.311 209.852 114.453 142.73 116.592C118.24 117.381 93.698 116.732 69.1735 116.767C62.0037 116.767 57.8491 120.852 58.077 127.46C58.2873 133.508 61.3902 136.208 69.2436 136.015C90.2446 135.524 111.246 136.664 132.282 135.296C150.373 134.122 168.586 135.139 186.747 134.998C192.602 134.946 196.371 137.154 197.756 142.974C196.126 149.653 193.987 151.441 187.449 151.441C166.553 151.459 145.675 151.529 124.796 151.371C121.273 151.336 120.151 152.213 120.221 155.859C120.449 168.2 120.344 180.559 120.326 192.918C120.291 208.467 124.13 222.806 132.106 236.304C141.59 252.362 154.738 264.44 171.251 272.294C186.695 279.639 203.138 281.532 220.423 278.254C247.892 273.03 269.542 260.198 283.355 235.27C291.91 219.844 295.223 203.243 295.644 185.835C295.889 175.896 295.101 166.009 294.697 156.104C294.54 152.353 293.768 151.319 289.929 151.371C269.945 151.582 249.961 151.214 229.994 151.599C222.964 151.739 218.109 149.934 215.9 142.974V142.957ZM333.456 537.505C323.92 529.459 314.647 521.08 304.795 513.437C282.567 496.205 272.417 472.977 271.908 445.648C271.225 408.432 271.768 371.198 271.68 333.982C271.68 329.494 273.626 323.534 270.857 320.869C267.841 317.977 261.864 320.238 257.201 319.923C254.834 319.765 253.765 320.151 252.993 323.113C248.611 339.819 237.795 350.968 221.51 356.403C217.67 357.682 216.671 359.155 216.566 362.994C215.988 382.575 218.091 402.103 217.776 421.685C217.705 426.067 217.425 430.327 213.849 433.535C211.36 435.779 208.748 435.411 205.943 434.201C202.945 432.904 201.245 430.94 201.332 427.469C201.893 405.206 200.859 382.978 200.263 360.75C200.228 359.348 200.438 358.103 198.282 357.595C181.962 353.773 170.69 343.711 165.08 328.179C162.784 321.833 159.593 320.484 153.546 320.922C145.692 321.465 145.675 321.062 146.323 328.512C146.411 329.599 146.323 330.686 146.323 331.773C146.306 368.814 146.323 405.855 146.218 442.913C146.218 448.874 146.306 454.974 145.149 460.776C142.782 472.644 138.505 483.495 131.686 494.031C123.446 506.793 112.403 515.943 101.376 525.55C96.2399 530.038 91.051 534.473 84.933 539.767C168.551 539.574 250.732 537.558 333.456 537.558V537.505ZM311.193 99.202C309.177 94.6792 307.547 90.8051 305.759 86.9835C299.536 73.6782 293.05 60.4781 287.054 47.0676C281.778 35.2524 273.451 26.5224 261.986 20.7726C256.201 17.8801 249.961 16.32 243.51 16.4602C219.073 16.9686 194.601 15.1279 170.182 17.5295C153.09 19.2124 141.695 29.6428 133.404 43.2461C124.288 58.2167 119.064 75.1858 111.544 90.9979C110.141 93.9605 108.984 97.0282 107.389 100.797C175.616 98.6585 243.177 99.3071 311.193 99.1844V99.202ZM97.204 324.884C84.3896 328.723 73.8891 335.402 65.6499 344.465C50.5916 361.048 43.0888 380.489 43.5621 403.646C44.2282 436.252 45.7709 468.858 44.9645 501.499C44.9119 503.445 44.9645 505.39 44.9645 507.459C47.1207 507.214 48.4705 506.092 49.8203 504.935C61.4603 494.943 73.258 485.126 84.7051 474.906C90.8932 469.384 95.1004 462.512 96.2223 453.992C97.9403 441.003 97.0988 427.978 97.1514 414.97C97.2917 385.187 97.1865 355.421 97.1865 324.901L97.204 324.884ZM129.915 374.862C128.513 353.896 132.247 327.846 127.934 301.989C127.513 299.465 127.075 298.448 124.498 298.711C122.693 298.887 120.835 298.992 119.064 298.711C114.524 297.975 113.437 299.693 113.454 304.233C113.63 350.898 113.612 397.581 113.454 444.246C113.454 449.575 112.999 455.044 111.701 460.18C108.686 472.154 101.972 481.567 92.4884 489.859C82.5489 498.536 72.399 506.933 62.2491 515.33C56.5869 520.01 51.1877 525.007 45.5605 529.74C42.7557 532.089 43.6147 535.191 44.1231 537.786C44.6665 540.573 47.6992 539.258 49.6976 539.732C58.375 541.73 63.7041 536.208 69.2436 531.195C80.3226 521.167 92.4709 512.42 103.357 502.042C110.036 495.661 116.364 489.263 121.115 481.479C128.302 469.717 129.564 456.341 129.81 443.036C130.213 421.983 129.915 400.911 129.915 374.897V374.862ZM304.409 378.298H304.444V308.546C304.444 297.537 304.444 297.8 293.558 297.449C288.948 297.309 287.966 298.624 287.983 303.111C288.159 349.25 288.159 395.372 288.054 441.511C288.036 453.309 288.054 465.001 294.627 475.467C298.484 481.62 301.166 488.649 306.828 493.505C321.361 506.004 335.981 518.415 350.688 530.704C355.982 535.139 360.926 540.854 369.147 538.557C370.83 538.084 373.81 539.925 374.021 537.032C374.266 533.526 375.826 529.161 371.812 526.707C364.186 522.009 357.806 515.786 350.881 510.229C341.117 502.41 331.633 494.241 321.992 486.248C311.684 477.693 305.093 466.632 304.672 453.449C303.883 428.416 304.444 403.331 304.444 378.263L304.409 378.298ZM65.3169 290.174H65.2643C65.2643 280.375 65.1065 270.558 65.3344 260.759C65.4221 257.13 64.2651 256.131 60.7065 256.254C52.3622 256.516 44.0004 256.183 35.6561 256.376C24.1914 256.639 16.6184 264.458 16.6009 275.782C16.5834 293.943 16.7236 312.087 16.5483 330.248C16.4431 341.485 25.401 349.759 36.778 350.004C39.0394 350.057 40.4067 349.443 42.0545 347.41C48.6984 339.241 54.4483 330.143 63.5989 324.323C65.5798 323.061 65.2993 321.343 65.2993 319.572C65.2993 309.773 65.2993 299.956 65.2993 290.157L65.3169 290.174ZM400.509 301.779C399.755 291.769 400.877 282.04 399.825 272.276C398.808 262.845 392.217 257.621 386.064 256.289C375.353 253.975 364.432 255.745 353.616 255.237C351.039 255.114 351.267 256.867 351.284 258.497C351.372 264.668 351.53 270.821 351.547 276.992C351.565 291.121 351.46 305.25 352.301 319.362C352.424 321.465 353.02 322.692 354.79 324.182C361.96 330.248 368.955 336.629 374.249 344.412C376.387 347.568 378.666 348.111 381.822 347.83C389.921 347.112 397.458 340.293 399.334 332.246C401.701 322.044 399.58 311.719 400.544 301.762L400.509 301.779ZM178.876 292.769C178.876 300.149 178.684 307.196 178.912 314.243C179.402 329.529 189.359 338.96 202.787 341.888C215.129 344.587 227.4 338.89 234.552 326.198C240.459 315.715 237.76 304.058 238.005 292.839C238.058 290.174 236.27 291.787 234.973 292.12C216.478 296.713 197.914 296.38 178.876 292.769ZM304.409 271.259C304.409 268.91 304.637 266.526 304.356 264.195C304.041 261.618 303.725 258.848 302.551 256.622C301.639 254.921 289.228 256.534 287.773 258.199C279.622 267.525 270.699 276.098 259.567 281.655C255.08 283.898 254.343 286.545 254.413 290.875C254.624 303.69 254.484 303.515 267.175 303.637C271.12 303.672 272.312 302.445 271.803 298.746C270.874 291.927 274.065 286.984 279.534 283.443C284.004 280.55 289.211 281.286 294.189 281.286C301.049 281.275 304.456 277.938 304.409 271.277V271.259ZM162.433 294.627C162.065 291.051 164.081 286.318 158.296 283.881C146.551 278.92 138.102 269.682 129.652 260.636C127.303 258.129 125.182 257.218 121.921 257.288C112.49 257.463 112.455 257.34 112.49 266.526C112.508 271.592 110.772 278.149 113.279 281.286C115.926 284.617 122.78 281.97 127.794 282.373C127.969 282.373 128.162 282.373 128.337 282.373C137.102 283.267 145.429 287.808 144.062 298.518C143.413 303.69 145.464 305.408 150.32 304.636C151.214 304.496 152.126 304.619 153.037 304.619C159.301 304.619 162.433 301.288 162.433 294.627ZM335.174 269.278V256.219C335.174 245.262 335.174 245.49 324.2 245.262C320.116 245.175 319.748 246.665 319.625 250.188C319.082 265.001 321.063 279.744 320.835 294.539C320.765 298.518 319.555 303.339 321.343 306.249C322.921 308.809 328.092 308.984 331.423 310.702C335.858 312.998 336.296 311.175 336.349 307.161C336.507 294.504 334.035 281.935 335.174 269.278ZM103.883 171.513V164.975C103.883 151.792 103.883 151.862 90.4725 152.704C86.9139 152.932 85.2836 154.474 85.3362 158.068C85.4063 164.238 85.3362 170.409 85.3362 176.58C85.2836 191.024 84.5123 189.569 98.5538 189.762C102.568 189.815 104.479 189.131 104.006 184.556C103.55 180.243 103.918 175.861 103.918 171.496L103.883 171.513ZM311.965 169.585C311.965 172.302 311.965 175.019 311.965 177.737C311.965 188.763 311.964 188.535 322.851 188.763C328.075 188.868 330.231 186.081 330.441 181.803C330.827 174.038 330.669 166.219 330.494 158.436C330.424 155.245 329.091 152.108 325.55 151.757C321.273 151.336 316.259 150.512 312.806 152.3C310.247 153.633 312.227 158.979 311.982 162.52C311.807 164.869 311.947 167.236 311.947 169.585H311.965Z" fill="black"/>
<path d="M382.838 433.764C375.914 435.184 374.249 437.042 374.249 443.651C374.249 464.529 374.249 485.425 374.249 506.742C369.095 505.269 366.097 501.29 362.556 498.292C351.46 488.914 339.311 480.71 329.302 470.069C323.85 464.266 320.765 457.324 320.8 449.033C320.905 407.627 320.852 366.221 320.852 324.271C331.388 327.76 340.661 332.809 348.567 340.101C360.558 351.163 369.112 364.258 372.163 380.648C373.688 388.817 374.301 396.986 374.196 405.26C374.126 411.133 376.773 413.85 382.856 414.499C382.856 420.915 382.856 427.348 382.856 433.764H382.838Z" fill="#B0EF9A"/>
<path d="M333.456 537.507C250.715 537.507 168.551 539.523 84.9331 539.716C91.0511 534.422 96.24 529.986 101.376 525.499C112.385 515.892 123.447 506.724 131.686 493.98C138.487 483.444 142.765 472.576 145.149 460.725C146.306 454.923 146.201 448.822 146.218 442.862C146.323 405.821 146.306 368.78 146.323 331.722C146.323 330.635 146.393 329.53 146.323 328.461C145.692 321.011 145.71 321.432 153.546 320.871C159.594 320.45 162.784 321.782 165.08 328.128C170.708 343.66 181.962 353.739 198.282 357.544C200.421 358.052 200.228 359.279 200.263 360.699C200.842 382.945 201.893 405.173 201.333 427.418C201.245 430.889 202.945 432.853 205.943 434.15C208.748 435.377 211.36 435.745 213.849 433.484C217.425 430.276 217.706 426.016 217.776 421.633C218.109 402.052 215.988 382.541 216.566 362.943C216.689 359.104 217.688 357.631 221.51 356.351C237.795 350.917 248.611 339.786 252.994 323.062C253.765 320.099 254.834 319.714 257.201 319.871C261.864 320.187 267.841 317.926 270.857 320.818C273.626 323.5 271.681 329.443 271.681 333.931C271.768 371.164 271.225 408.398 271.908 445.597C272.417 472.909 282.567 496.136 304.795 513.385C314.647 521.029 323.92 529.408 333.456 537.454V537.507Z" fill="#B0EF9A"/>
<path d="M215.9 142.957C218.109 149.916 222.982 151.722 229.994 151.582C249.961 151.196 269.945 151.564 289.929 151.354C293.768 151.319 294.54 152.353 294.697 156.087C295.1 165.991 295.889 175.878 295.644 185.818C295.223 203.225 291.91 219.826 283.355 235.253C269.542 260.18 247.892 273.012 220.423 278.236C203.138 281.514 186.695 279.621 171.251 272.276C154.737 264.423 141.59 252.344 132.106 236.287C124.13 222.789 120.291 208.432 120.326 192.9C120.361 180.541 120.466 168.2 120.221 155.842C120.151 152.195 121.273 151.319 124.796 151.354C145.674 151.512 166.57 151.442 187.449 151.424C193.987 151.424 196.126 149.618 197.756 142.957C203.804 142.957 209.834 142.957 215.882 142.957H215.9Z" fill="#FCD1A3"/>
<path d="M311.193 99.2016C243.159 99.3243 175.616 98.6757 107.389 100.814C108.984 97.0454 110.141 93.9777 111.544 91.0151C119.064 75.1855 124.306 58.2339 133.404 43.2633C141.678 29.6424 153.09 19.2296 170.182 17.5467C194.601 15.1451 219.073 16.9857 243.51 16.4774C249.961 16.3371 256.202 17.8973 261.987 20.7898C273.469 26.5396 281.778 35.252 287.054 47.0848C293.05 60.4953 299.536 73.6954 305.759 87.0007C307.547 90.8047 309.195 94.6964 311.193 99.2191V99.2016Z" fill="#E19974"/>
<path d="M97.204 324.885C97.204 355.405 97.2917 385.188 97.169 414.954C97.1164 427.961 97.9578 441.004 96.2399 453.976C95.118 462.495 90.8932 469.385 84.7227 474.889C73.2756 485.092 61.4778 494.909 49.8379 504.918C48.4881 506.075 47.1383 507.197 44.9821 507.443C44.9821 505.391 44.947 503.428 44.9821 501.482C45.806 468.841 44.2458 436.235 43.5797 403.63C43.1064 380.455 50.6092 361.032 65.6675 344.448C73.9066 335.385 84.4071 328.706 97.2216 324.867L97.204 324.885Z" fill="#B0EF9A"/>
<path d="M215.9 142.958C209.852 142.958 203.822 142.958 197.774 142.958C196.389 137.138 192.62 134.929 186.765 134.982C168.604 135.139 150.372 134.105 132.299 135.28C111.263 136.647 90.262 135.508 69.261 135.998C61.4075 136.191 58.3047 133.492 58.0944 127.444C57.8665 120.835 62.0211 116.768 69.1909 116.75C93.7154 116.698 118.257 117.346 142.747 116.575C209.869 114.436 277.009 116.295 344.132 115.629C346.095 115.611 348.146 115.629 350.022 116.137C355.965 117.732 357.42 120.029 356.683 127.041C356.193 131.844 352.616 133.912 348.409 134.929C346.867 135.315 345.149 135.034 343.518 135.034C305.373 135.034 267.228 135.122 229.1 134.964C222.789 134.947 217.635 135.841 215.917 142.94L215.9 142.958Z" fill="#E19974"/>
<path d="M129.915 374.862C129.915 400.876 130.213 421.947 129.81 443.001C129.564 456.324 128.302 469.699 121.115 481.444C116.347 489.228 110.036 495.644 103.357 502.007C92.4884 512.385 80.3401 521.132 69.2436 531.159C63.7041 536.173 58.3574 541.695 49.6976 539.697C47.6992 539.241 44.6665 540.556 44.123 537.751C43.6322 535.156 42.7732 532.054 45.5605 529.705C51.1877 524.971 56.5869 519.975 62.2491 515.295C72.4165 506.898 82.5489 498.501 92.4884 489.824C101.972 481.532 108.686 472.118 111.701 460.145C112.999 455.009 113.437 449.54 113.454 444.211C113.595 397.546 113.612 350.863 113.454 304.198C113.454 299.658 114.524 297.94 119.064 298.676C120.834 298.957 122.71 298.869 124.498 298.676C127.075 298.413 127.513 299.43 127.934 301.954C132.247 327.811 128.513 353.861 129.915 374.827V374.862Z" fill="#FCD1A3"/>
<path d="M304.409 378.298C304.409 403.366 303.848 428.434 304.637 453.485C305.058 466.667 311.649 477.729 321.957 486.283C331.598 494.277 341.082 502.429 350.846 510.265C357.771 515.822 364.152 522.045 371.777 526.743C375.791 529.215 374.231 533.579 373.986 537.068C373.793 539.96 370.795 538.12 369.113 538.593C360.891 540.889 355.947 535.175 350.653 530.74C335.946 518.434 321.326 506.04 306.793 493.541C301.131 488.685 298.467 481.656 294.592 475.502C288.019 465.037 288.001 453.345 288.019 441.547C288.124 395.408 288.124 349.286 287.948 303.147C287.931 298.659 288.913 297.327 293.523 297.485C304.409 297.836 304.409 297.573 304.409 308.581V378.333H304.374L304.409 378.298Z" fill="#FCD1A3"/>
<path d="M65.3169 290.174C65.3169 299.974 65.3169 309.79 65.3169 319.59C65.3169 321.36 65.5974 323.078 63.6165 324.34C54.4658 330.16 48.7159 339.258 42.0721 347.427C40.4242 349.461 39.0569 350.074 36.7955 350.022C25.4185 349.776 16.4607 341.502 16.5659 330.265C16.7236 312.104 16.5834 293.961 16.6184 275.8C16.6184 264.475 24.209 256.657 35.6736 256.394C44.0179 256.201 52.3797 256.517 60.724 256.271C64.2826 256.166 65.4396 257.148 65.3519 260.776C65.1241 270.576 65.2818 280.375 65.2818 290.192H65.3344L65.3169 290.174Z" fill="#60B7FF"/>
<path d="M400.526 301.78C399.544 311.738 401.666 322.063 399.317 332.265C397.458 340.312 389.92 347.131 381.804 347.849C378.649 348.13 376.387 347.586 374.231 344.431C368.937 336.648 361.943 330.267 354.773 324.201C353.002 322.711 352.406 321.484 352.284 319.381C351.46 305.269 351.547 291.14 351.53 277.011C351.53 270.84 351.354 264.687 351.267 258.516C351.249 256.886 351.021 255.133 353.598 255.256C364.414 255.764 375.336 253.994 386.046 256.308C392.217 257.64 398.791 262.864 399.807 272.295C400.859 282.059 399.737 291.788 400.491 301.798L400.526 301.78Z" fill="#60B7FF"/>
<path d="M178.894 292.769C197.932 296.38 216.478 296.713 234.99 292.121C236.287 291.805 238.075 290.192 238.023 292.839C237.777 304.059 240.477 315.716 234.569 326.199C227.435 338.891 215.146 344.588 202.805 341.888C189.377 338.961 179.42 329.512 178.929 314.244C178.701 307.196 178.894 300.132 178.894 292.769Z" fill="#FCD1A3"/>
<path d="M304.427 271.26C304.474 277.933 301.067 281.269 294.207 281.269C289.211 281.269 284.022 280.533 279.552 283.426C274.082 286.967 270.892 291.893 271.821 298.729C272.329 302.428 271.137 303.655 267.193 303.62C254.519 303.498 254.659 303.673 254.431 290.858C254.361 286.528 255.097 283.881 259.585 281.638C270.717 276.081 279.639 267.508 287.791 258.182C289.246 256.517 301.657 254.904 302.569 256.605C303.761 258.831 304.059 261.601 304.374 264.178C304.655 266.492 304.427 268.876 304.427 271.242V271.26Z" fill="#60B7FF"/>
<path d="M162.451 294.628C162.451 301.29 159.319 304.62 153.055 304.62C152.143 304.62 151.214 304.498 150.338 304.638C145.482 305.392 143.431 303.691 144.079 298.52C145.429 287.809 137.102 283.269 128.355 282.375C128.18 282.357 127.987 282.375 127.812 282.375C122.816 281.972 115.944 284.619 113.297 281.288C110.79 278.15 112.525 271.576 112.508 266.528C112.473 257.342 112.508 257.465 121.939 257.289C125.2 257.237 127.321 258.131 129.67 260.638C138.119 269.683 146.586 278.939 158.314 283.882C164.099 286.319 162.083 291.052 162.451 294.628Z" fill="#60B7FF"/>
<path d="M335.192 269.278C334.052 281.953 336.524 294.522 336.366 307.161C336.314 311.175 335.876 312.998 331.44 310.702C328.11 308.984 322.938 308.809 321.361 306.249C319.573 303.339 320.8 298.518 320.852 294.539C321.08 279.744 319.082 265.001 319.643 250.188C319.765 246.665 320.151 245.192 324.218 245.262C335.192 245.473 335.192 245.262 335.192 256.218V269.278Z" fill="white"/>
<path d="M82.4088 309.843C80.796 303.988 81.8127 298.028 81.7777 292.12C81.6725 278.412 81.8303 264.686 80.6032 251.012C80.3052 247.752 80.9888 246.314 84.8454 246.367C96.1172 246.507 96.3802 246.297 96.0471 257.533C95.6264 271.785 97.8702 285.949 97.2392 300.201C96.871 308.44 96.5204 309.299 88.2112 310.614C86.5458 310.877 84.6175 311.386 82.9347 310.264L82.8821 309.808H82.4263L82.4088 309.843Z" fill="white"/>
<path d="M103.883 171.513C103.883 175.861 103.533 180.261 103.971 184.573C104.444 189.131 102.533 189.832 98.519 189.78C84.495 189.569 85.2663 191.042 85.3014 176.597C85.3189 170.426 85.389 164.256 85.3014 158.085C85.2488 154.492 86.8791 152.949 90.4377 152.721C103.848 151.88 103.848 151.827 103.848 164.992C103.848 167.166 103.848 169.34 103.848 171.531L103.883 171.513Z" fill="#FCD1A3"/>
<path d="M311.965 169.585C311.965 167.236 311.824 164.87 312 162.521C312.263 158.979 310.282 153.633 312.824 152.301C316.26 150.512 321.291 151.336 325.568 151.757C329.109 152.108 330.441 155.263 330.511 158.436C330.687 166.219 330.844 174.038 330.459 181.804C330.248 186.081 328.092 188.868 322.868 188.763C311.982 188.535 311.982 188.763 311.982 177.737C311.982 175.019 311.982 172.302 311.982 169.585H311.965Z" fill="#FCD1A3"/>
<path d="M82.4086 309.844H82.8644L82.9169 310.282C83.0221 311.386 82.8644 312.368 81.5847 313.052C81.5145 311.825 80.5679 310.545 82.4261 309.844H82.4086Z" fill="#E19974"/>
<path d="M206.399 218.022C214.918 218.022 223.42 218.022 231.94 218.022C238.549 218.022 241.09 221.37 238.917 227.506C234.534 239.934 225.576 248.016 213.078 250.821C205.662 252.486 197.686 251.557 190.499 247.28C183.224 242.95 177.982 237.147 174.862 229.329C174.441 228.295 173.688 227.313 173.565 226.261C173.056 221.843 174.056 217.812 180.156 217.969C188.886 218.18 197.634 218.022 206.381 218.022H206.399ZM200.982 229.189H187.466C188.939 230.854 189.114 233.028 191.358 233.238C191.218 234.325 191.954 234.938 192.655 235.517C198.019 239.934 204.418 241.337 210.939 239.97C215.637 238.988 220.335 236.849 223.21 232.361C223.666 231.257 225.349 230.942 225.121 229.171H212.446C208.625 228.873 204.803 228.873 200.982 229.171V229.189Z" fill="black"/>
<path d="M261.811 190.358C260.549 190.358 259.269 190.341 258.007 190.358C256.622 190.393 255.973 189.832 255.781 188.377C254.922 181.839 253.993 180.962 247.156 179.963C240.81 179.034 237.304 180.997 234.867 186.642C234.587 187.291 234.306 187.887 234.394 188.553C234.639 190.218 233.728 190.428 232.378 190.376C230.537 190.288 228.697 190.358 226.856 190.358C223.192 190.358 222.474 189.534 223.42 185.958C228.118 168.113 246.104 164.116 258.971 172.004C264.809 175.598 267.017 181.786 267.613 188.5C267.754 190.078 267.052 190.499 265.615 190.376C264.353 190.271 263.091 190.358 261.811 190.358Z" fill="black"/>
<path d="M189.973 190.359C188.799 190.359 187.747 190.219 186.748 190.377C181.629 191.236 178.123 189.991 176.633 184.294C175.774 181.033 169.691 178.544 166.062 179.315C159.646 180.683 158.033 181.033 156.964 188.852C156.789 190.079 156.421 190.412 155.299 190.342C154.265 190.289 153.213 190.429 152.196 190.307C150.092 190.044 146.884 191.464 146.131 189.658C145.079 187.099 145.342 183.733 146.709 181.033C151.46 171.655 158.349 167.465 168.797 168.254C179.034 169.025 186.415 175.809 189.079 184.118C189.728 186.134 188.816 188.221 189.973 190.342V190.359Z" fill="black"/>
<path d="M223.193 232.379C220.318 236.867 215.62 239.005 210.922 239.987C204.418 241.354 198.02 239.952 192.638 235.534C191.937 234.956 191.2 234.342 191.341 233.255C193.742 229.995 197.774 230.573 200.965 229.206C204.786 228.908 208.608 228.908 212.412 229.206C215.988 230.275 219.581 231.327 223.175 232.396L223.193 232.379Z" fill="#A65D4E"/>
<path d="M200.982 229.188C197.791 230.572 193.76 229.994 191.358 233.237C189.114 233.027 188.939 230.835 187.466 229.188H200.982Z" fill="#FDADC8"/>
</g>
<defs>
<clipPath id="clip0_2745_66">
<rect width="416.759" height="556" fill="white"/>
</clipPath>
</defs>
</svg>
