<svg width="418" height="556" viewBox="0 0 418 556" fill="none" xmlns="http://www.w3.org/2000/svg">
<g clip-path="url(#clip0_2745_133)">
<path d="M383.522 433.763C390.078 435.533 391.428 440.126 391.375 446.402C391.148 478.009 391.095 509.615 391.375 541.222C391.481 552.862 387.203 553.896 377.912 554.755C369.638 555.526 361.224 554.843 352.862 554.843C289.824 554.843 226.768 553.966 163.748 555.158C122.219 555.947 80.7082 555.281 39.197 556C31.3085 556.14 29.2049 553.949 29.1874 545.885C29.1874 510.457 29.8711 475.011 28.8894 439.618C28.5037 425.471 28.3635 411.254 27.5571 397.072C27.0487 388.237 28.644 378.841 32.3603 370.286C33.5699 367.499 33.1842 365.378 29.538 365.203C14.8829 364.484 -0.000109566 344.605 0.701092 331.317C1.71783 312.472 1.03416 293.54 0.946512 274.66C0.876392 261.355 7.99359 252.572 18.4941 245.736C25.471 241.195 33.0966 239.53 41.3357 239.951C45.5079 240.161 49.6975 239.916 53.8697 240.003C60.0929 240.143 66.4037 241.073 69.9272 233.71C71.3822 230.677 74.9408 229.976 78.2715 229.766C86.6684 229.275 95.0302 227.872 103.322 231.045C107.003 232.448 109.177 234.99 111.053 238.075C111.929 239.512 113.156 240.459 114.576 239.775C116.785 238.688 114.681 237.076 114.261 236.182C110.176 227.522 107.371 218.441 105.776 209.08C105.303 206.275 104.479 206.083 102.218 206.012C96.3274 205.837 90.3497 206.907 84.5648 205.031C75.4842 202.086 69.6993 194.285 69.6467 184.784C69.5941 175.528 69.5766 166.254 69.6993 156.998C69.7344 154.106 69.5415 152.704 65.7726 152.563C53.6593 152.108 40.354 138.978 42.3525 124.095C44.1581 110.667 52.6075 101.148 67.5957 100.464C73.2228 100.201 78.85 100.394 84.4947 100.412C88.1935 100.412 90.4023 99.2546 91.98 95.2928C95.2756 87.0186 99.9386 79.2878 103.322 71.0312C108.125 59.3737 112.876 47.6987 118.959 36.6548C126.795 22.4379 137.733 11.4992 153.072 5.39874C157.577 3.61067 162.328 1.59472 166.763 0.700689C170.164 -0.0355728 174.564 -0.0180428 178.526 -0.000512766C197.598 0.139728 216.671 -0.0706329 235.744 0.139728C241.932 0.209848 248.067 1.54213 254.22 2.10309C272.872 3.75092 283.899 15.759 294.785 29.2221C305.548 42.5449 309.948 58.8478 318.03 73.3802C322.202 80.848 325.515 88.8242 328.863 96.7302C330.038 99.5175 331.914 99.1669 334.035 99.3071C340.486 99.7454 346.884 99.1318 353.405 100.184C371.479 103.094 379.42 123.464 369.796 138.732C365.063 146.253 357.946 149.566 349.566 150.407C346.797 150.688 346.13 151.512 346.534 153.948C348.392 165.203 348.164 176.474 346.499 187.729C345.271 196.038 334.771 206.1 325.182 205.101C320.537 204.61 314.541 203.523 311.474 205.82C308.774 207.853 309.773 214.357 308.248 218.564C307.038 221.947 306.6 225.594 303.708 228.766C302.446 230.151 301.552 235.007 300.605 238.426C302.709 238.899 304.286 239.565 305.496 236.848C308.283 230.59 313.858 228.433 320.274 228.17C324.989 227.978 329.722 228.083 334.438 228.135C340.801 228.205 345.815 231.484 349.356 236.182C351.126 238.531 352.634 238.934 355.018 238.934C363.38 238.899 371.742 238.618 380.086 238.986C395.302 239.67 407.451 245.665 413.954 260.285C416.514 266.018 417.075 272.294 417.215 278.394C417.583 293.645 417.355 308.914 417.337 324.165C417.302 343.553 407.731 356.753 389.149 363.117C386.905 363.888 386.414 365.273 386.748 367.639C387.782 375.16 389.868 382.47 390.674 390.078C391.288 395.88 391.358 401.665 390.955 407.362C390.692 411.131 388.027 414.252 383.504 414.532C377.422 413.884 374.775 411.166 374.845 405.294C374.95 397.02 374.336 388.851 372.811 380.682C369.761 364.291 361.189 351.196 349.216 340.135C341.31 332.842 332.036 327.794 321.501 324.305C321.501 366.237 321.553 407.643 321.448 449.066C321.431 457.358 324.498 464.318 329.95 470.102C339.942 480.743 352.091 488.93 363.205 498.326C366.746 501.323 369.743 505.285 374.897 506.775C374.897 485.459 374.897 464.581 374.897 443.685C374.897 437.076 376.563 435.218 383.487 433.798L383.522 433.763ZM83.6006 310.264C85.2835 311.386 87.2118 310.877 88.8772 310.614C97.2039 309.299 97.5545 308.44 97.9051 300.201C98.5362 285.932 96.2924 271.785 96.7131 257.533C97.0462 246.297 96.7832 246.507 85.5114 246.367C81.6548 246.314 80.9711 247.751 81.2691 251.012C82.5138 264.686 82.356 278.394 82.4436 292.12C82.4962 298.028 81.4795 303.988 83.0747 309.843C81.2341 310.544 82.1807 311.824 82.2333 313.051C83.513 312.367 83.6707 311.386 83.5656 310.281L83.6006 310.264ZM216.583 142.957C218.301 135.857 223.455 134.946 229.766 134.981C267.911 135.139 306.057 135.051 344.185 135.051C345.815 135.051 347.533 135.331 349.076 134.946C353.283 133.929 356.859 131.843 357.35 127.057C358.068 120.045 356.631 117.749 350.688 116.154C348.813 115.645 346.762 115.628 344.798 115.645C277.676 116.311 210.536 114.453 143.413 116.592C118.924 117.381 94.3816 116.732 69.8571 116.767C62.6873 116.767 58.5327 120.852 58.7606 127.46C58.9709 133.508 62.0737 136.208 69.9272 136.015C90.9282 135.524 111.929 136.664 132.965 135.296C151.056 134.122 169.27 135.139 187.431 134.998C193.286 134.946 197.055 137.154 198.44 142.974C196.81 149.653 194.671 151.441 188.132 151.441C167.236 151.459 146.358 151.529 125.48 151.371C121.956 151.336 120.834 152.213 120.905 155.859C121.132 168.2 121.027 180.559 121.01 192.918C120.975 208.467 124.814 222.806 132.79 236.304C142.274 252.362 155.421 264.44 171.934 272.294C187.378 279.639 203.822 281.532 221.106 278.254C248.576 273.03 270.225 260.198 284.039 235.27C292.594 219.844 295.907 203.243 296.328 185.835C296.573 175.896 295.784 166.009 295.381 156.104C295.223 152.353 294.452 151.319 290.613 151.371C270.629 151.582 250.644 151.214 230.678 151.599C223.648 151.739 218.792 149.934 216.583 142.974V142.957ZM334.14 537.505C324.604 529.459 315.33 521.08 305.478 513.437C283.25 496.205 273.1 472.977 272.592 445.648C271.908 408.432 272.452 371.198 272.364 333.982C272.364 329.494 274.31 323.534 271.54 320.869C268.525 317.977 262.547 320.238 257.884 319.923C255.518 319.765 254.448 320.151 253.677 323.113C249.295 339.819 238.478 350.968 222.193 356.403C218.354 357.682 217.355 359.155 217.25 362.994C216.671 382.575 218.775 402.103 218.459 421.685C218.389 426.067 218.109 430.327 214.532 433.535C212.043 435.779 209.431 435.411 206.626 434.201C203.629 432.904 201.928 430.94 202.016 427.469C202.577 405.206 201.543 382.978 200.947 360.75C200.912 359.348 201.122 358.103 198.966 357.595C182.645 353.773 171.374 343.711 165.764 328.179C163.467 321.833 160.277 320.484 154.229 320.922C146.376 321.465 146.358 321.062 147.007 328.512C147.094 329.599 147.007 330.686 147.007 331.773C146.989 368.814 147.007 405.855 146.902 442.913C146.902 448.874 146.989 454.974 145.832 460.776C143.466 472.644 139.188 483.495 132.369 494.031C124.13 506.793 113.086 515.943 102.06 525.55C96.9235 530.038 91.7346 534.473 85.6166 539.767C169.235 539.574 251.416 537.558 334.14 537.558V537.505ZM311.877 99.202C309.861 94.6792 308.231 90.8051 306.442 86.9835C300.219 73.6782 293.733 60.4781 287.738 47.0676C282.461 35.2524 274.135 26.5224 262.67 20.7726C256.885 17.8801 250.644 16.32 244.193 16.4602C219.756 16.9686 195.284 15.1279 170.865 17.5295C153.773 19.2124 142.379 29.6428 134.087 43.2461C124.972 58.2167 119.748 75.1858 112.227 90.9979C110.825 93.9605 109.668 97.0282 108.073 100.797C176.299 98.6585 243.86 99.3071 311.877 99.1844V99.202ZM97.8876 324.884C85.0732 328.723 74.5727 335.402 66.3335 344.465C51.2752 361.048 43.7724 380.489 44.2457 403.646C44.9118 436.252 46.4545 468.858 45.6481 501.499C45.5955 503.445 45.6481 505.39 45.6481 507.459C47.8043 507.214 49.1541 506.092 50.5039 504.935C62.1439 494.943 73.9416 485.126 85.3887 474.906C91.5768 469.384 95.784 462.512 96.9059 453.992C98.6239 441.003 97.7824 427.978 97.835 414.971C97.9753 385.187 97.8701 355.421 97.8701 324.901L97.8876 324.884ZM130.599 374.862C129.196 353.896 132.93 327.846 128.618 301.989C128.197 299.465 127.759 298.448 125.182 298.711C123.376 298.887 121.518 298.992 119.748 298.711C115.207 297.975 114.12 299.693 114.138 304.233C114.313 350.898 114.296 397.581 114.138 444.246C114.138 449.575 113.682 455.044 112.385 460.18C109.37 472.153 102.656 481.567 93.172 489.859C83.2325 498.536 73.0826 506.933 62.9327 515.33C57.2705 520.01 51.8713 525.007 46.2441 529.74C43.4393 532.089 44.2983 535.191 44.8067 537.786C45.3501 540.573 48.3828 539.258 50.3812 539.732C59.0586 541.73 64.3877 536.208 69.9272 531.195C81.0062 521.167 93.1545 512.42 104.041 502.042C110.72 495.661 117.048 489.263 121.799 481.479C128.986 469.717 130.248 456.341 130.493 443.036C130.897 421.983 130.599 400.911 130.599 374.897V374.862ZM305.093 378.298H305.128V308.546C305.128 297.537 305.128 297.8 294.242 297.449C289.631 297.309 288.649 298.624 288.667 303.111C288.842 349.25 288.842 395.372 288.737 441.511C288.72 453.309 288.737 465.001 295.311 475.467C299.167 481.62 301.85 488.649 307.512 493.505C322.044 506.004 336.664 518.415 351.372 530.704C356.666 535.139 361.609 540.854 369.831 538.557C371.514 538.084 374.494 539.925 374.704 537.032C374.95 533.526 376.51 529.161 372.496 526.707C364.87 522.009 358.489 515.786 351.565 510.229C341.801 502.41 332.317 494.241 322.675 486.248C312.368 477.693 305.776 466.632 305.356 453.449C304.567 428.416 305.128 403.331 305.128 378.263L305.093 378.298ZM66.0005 290.174H65.9479C65.9479 280.375 65.7901 270.558 66.018 260.759C66.1057 257.13 64.9487 256.131 61.3901 256.254C53.0458 256.516 44.684 256.183 36.3397 256.376C24.875 256.639 17.302 264.458 17.2845 275.782C17.267 293.943 17.4072 312.087 17.2319 330.248C17.1267 341.485 26.0846 349.759 37.4616 350.004C39.723 350.057 41.0903 349.443 42.7381 347.41C49.382 339.241 55.1318 330.143 64.2825 324.323C66.2634 323.061 65.9829 321.343 65.9829 319.572C65.9829 309.773 65.9829 299.956 65.9829 290.157L66.0005 290.174ZM401.192 301.779C400.439 291.769 401.56 282.04 400.509 272.276C399.492 262.845 392.901 257.621 386.748 256.289C376.037 253.975 365.115 255.745 354.299 255.237C351.723 255.114 351.95 256.867 351.968 258.497C352.056 264.668 352.213 270.821 352.231 276.992C352.248 291.121 352.143 305.25 352.985 319.362C353.107 321.465 353.703 322.692 355.474 324.182C362.644 330.248 369.638 336.629 374.932 344.412C377.071 347.568 379.35 348.111 382.505 347.83C390.604 347.112 398.142 340.293 400.018 332.246C402.384 322.044 400.263 311.719 401.227 301.762L401.192 301.779ZM179.56 292.769C179.56 300.149 179.367 307.196 179.595 314.243C180.086 329.529 190.043 338.96 203.471 341.888C215.812 344.587 228.083 338.89 235.235 326.198C241.143 315.715 238.443 304.058 238.689 292.839C238.741 290.174 236.953 291.787 235.656 292.12C217.162 296.713 198.598 296.38 179.56 292.769ZM305.093 271.259C305.093 268.91 305.321 266.526 305.04 264.195C304.724 261.618 304.409 258.848 303.234 256.622C302.323 254.921 289.912 256.534 288.457 258.199C280.305 267.525 271.382 276.098 260.251 281.655C255.763 283.898 255.027 286.545 255.097 290.875C255.307 303.69 255.167 303.515 267.859 303.637C271.803 303.672 272.995 302.445 272.487 298.746C271.558 291.927 274.748 286.984 280.218 283.443C284.688 280.55 289.894 281.286 294.873 281.286C301.733 281.275 305.139 277.938 305.093 271.277V271.259ZM163.117 294.627C162.749 291.051 164.765 286.318 158.98 283.881C147.235 278.92 138.785 269.682 130.336 260.636C127.987 258.129 125.866 257.218 122.605 257.288C113.174 257.463 113.139 257.34 113.174 266.526C113.191 271.592 111.456 278.149 113.963 281.286C116.61 284.617 123.464 281.97 128.478 282.373C128.653 282.373 128.846 282.373 129.021 282.373C137.786 283.267 146.113 287.808 144.745 298.518C144.097 303.69 146.148 305.408 151.004 304.636C151.898 304.496 152.809 304.619 153.721 304.619C159.985 304.619 163.117 301.288 163.117 294.627ZM335.858 269.278V256.219C335.858 245.262 335.858 245.49 324.884 245.262C320.8 245.175 320.431 246.665 320.309 250.188C319.765 265.001 321.746 279.744 321.518 294.539C321.448 298.518 320.239 303.339 322.027 306.249C323.604 308.809 328.776 308.984 332.106 310.702C336.542 312.998 336.98 311.175 337.032 307.161C337.19 294.504 334.718 281.935 335.858 269.278ZM104.567 171.513V164.975C104.567 151.792 104.567 151.862 91.1561 152.704C87.5975 152.932 85.9672 154.474 86.0198 158.068C86.0899 164.238 86.0198 170.409 86.0198 176.58C85.9672 191.024 85.1959 189.569 99.2374 189.762C103.252 189.815 105.163 189.131 104.689 184.556C104.233 180.243 104.602 175.861 104.602 171.496L104.567 171.513ZM312.648 169.585C312.648 172.302 312.648 175.019 312.648 177.737C312.648 188.763 312.648 188.535 323.534 188.763C328.758 188.868 330.914 186.081 331.125 181.803C331.51 174.038 331.353 166.219 331.177 158.436C331.107 155.245 329.775 152.108 326.234 151.757C321.957 151.336 316.943 150.512 313.49 152.3C310.93 153.633 312.911 158.979 312.666 162.52C312.49 164.869 312.631 167.236 312.631 169.585H312.648Z" fill="black"/>
<path d="M383.522 433.764C376.598 435.184 374.932 437.042 374.932 443.651C374.932 464.529 374.932 485.425 374.932 506.742C369.778 505.269 366.781 501.29 363.24 498.292C352.143 488.914 339.995 480.71 329.985 470.069C324.533 464.266 321.448 457.324 321.483 449.033C321.588 407.627 321.536 366.221 321.536 324.271C332.071 327.76 341.345 332.809 349.251 340.101C361.241 351.163 369.796 364.258 372.846 380.648C374.371 388.817 374.985 396.986 374.88 405.26C374.81 411.133 377.457 413.85 383.54 414.499C383.54 420.915 383.54 427.348 383.54 433.764H383.522Z" fill="#B0EF9A"/>
<path d="M334.14 537.507C251.398 537.507 169.235 539.523 85.6167 539.716C91.7347 534.422 96.9236 529.986 102.06 525.499C113.069 515.892 124.13 506.724 132.369 493.98C139.171 483.444 143.448 472.576 145.832 460.725C146.989 454.923 146.884 448.822 146.902 442.862C147.007 405.821 146.989 368.78 147.007 331.722C147.007 330.635 147.077 329.53 147.007 328.461C146.376 321.011 146.393 321.432 154.229 320.871C160.277 320.45 163.468 321.782 165.764 328.128C171.391 343.66 182.645 353.739 198.966 357.544C201.105 358.052 200.912 359.279 200.947 360.699C201.525 382.945 202.577 405.173 202.016 427.418C201.928 430.889 203.629 432.853 206.627 434.15C209.431 435.377 212.043 435.745 214.533 433.484C218.109 430.276 218.389 426.016 218.459 421.633C218.792 402.052 216.671 382.541 217.25 362.943C217.372 359.104 218.372 357.631 222.193 356.351C238.479 350.917 249.295 339.786 253.677 323.062C254.448 320.099 255.518 319.714 257.884 319.871C262.547 320.187 268.525 317.926 271.54 320.818C274.31 323.5 272.364 329.443 272.364 333.931C272.452 371.164 271.908 408.398 272.592 445.597C273.1 472.909 283.25 496.136 305.478 513.385C315.33 521.029 324.604 529.408 334.14 537.454V537.507Z" fill="#B0EF9A"/>
<path d="M216.583 142.957C218.792 149.916 223.665 151.722 230.677 151.582C250.644 151.196 270.628 151.564 290.613 151.354C294.452 151.319 295.223 152.353 295.381 156.087C295.784 165.991 296.573 175.878 296.327 185.818C295.907 203.225 292.594 219.826 284.039 235.253C270.225 260.18 248.576 273.012 221.106 278.236C203.821 281.514 187.378 279.621 171.934 272.276C155.421 264.423 142.274 252.344 132.79 236.287C124.814 222.789 120.975 208.432 121.01 192.9C121.045 180.541 121.15 168.2 120.904 155.842C120.834 152.195 121.956 151.319 125.48 151.354C146.358 151.512 167.254 151.442 188.132 151.424C194.671 151.424 196.809 149.618 198.44 142.957C204.488 142.957 210.518 142.957 216.566 142.957H216.583Z" fill="#FCD1A3"/>
<path d="M311.877 99.2016C243.843 99.3243 176.3 98.6757 108.073 100.814C109.668 97.0454 110.825 93.9777 112.227 91.0151C119.748 75.1855 124.989 58.2339 134.087 43.2633C142.362 29.6424 153.774 19.2296 170.865 17.5467C195.285 15.1451 219.757 16.9857 244.193 16.4774C250.645 16.3371 256.885 17.8973 262.67 20.7898C274.152 26.5396 282.462 35.252 287.738 47.0848C293.733 60.4953 300.219 73.6954 306.443 87.0007C308.231 90.8047 309.879 94.6964 311.877 99.2191V99.2016Z" fill="#E19974"/>
<path d="M97.8876 324.885C97.8876 355.405 97.9753 385.188 97.8526 414.954C97.8 427.961 98.6414 441.004 96.9235 453.976C95.8016 462.495 91.5768 469.385 85.4063 474.889C73.9591 485.092 62.1614 494.909 50.5215 504.918C49.1717 506.075 47.8219 507.197 45.6657 507.443C45.6657 505.391 45.6306 503.428 45.6657 501.482C46.4896 468.841 44.9294 436.235 44.2633 403.63C43.79 380.455 51.2928 361.032 66.3511 344.448C74.5902 335.385 85.0907 328.706 97.9052 324.867L97.8876 324.885Z" fill="#B0EF9A"/>
<path d="M216.583 142.958C210.535 142.958 204.505 142.958 198.457 142.958C197.072 137.138 193.303 134.929 187.448 134.982C169.287 135.139 151.056 134.105 132.983 135.28C111.947 136.647 90.9456 135.508 69.9446 135.998C62.0911 136.191 58.9883 133.492 58.778 127.444C58.5501 120.835 62.7047 116.768 69.8745 116.75C94.399 116.698 118.941 117.346 143.43 116.575C210.553 114.436 277.693 116.295 344.816 115.629C346.779 115.611 348.83 115.629 350.706 116.137C356.648 117.732 358.103 120.029 357.367 127.041C356.876 131.844 353.3 133.912 349.093 134.929C347.55 135.315 345.832 135.034 344.202 135.034C306.057 135.034 267.911 135.122 229.783 134.964C223.473 134.947 218.319 135.841 216.601 142.94L216.583 142.958Z" fill="#E19974"/>
<path d="M130.599 374.862C130.599 400.876 130.897 421.947 130.493 443.001C130.248 456.324 128.986 469.699 121.799 481.444C117.03 489.228 110.72 495.644 104.041 502.007C93.172 512.385 81.0237 521.132 69.9272 531.159C64.3877 536.173 59.041 541.695 50.3812 539.697C48.3828 539.241 45.3501 540.556 44.8066 537.751C44.3158 535.156 43.4568 532.054 46.2441 529.705C51.8712 524.971 57.2705 519.975 62.9327 515.295C73.1001 506.898 83.2325 498.501 93.172 489.824C102.656 481.532 109.37 472.118 112.385 460.145C113.682 455.009 114.12 449.54 114.138 444.211C114.278 397.546 114.296 350.863 114.138 304.198C114.138 299.658 115.207 297.94 119.748 298.676C121.518 298.957 123.394 298.869 125.182 298.676C127.759 298.413 128.197 299.43 128.618 301.954C132.93 327.811 129.196 353.861 130.599 374.827V374.862Z" fill="#FCD1A3"/>
<path d="M305.093 378.298C305.093 403.366 304.532 428.434 305.321 453.485C305.741 466.667 312.333 477.729 322.64 486.283C332.282 494.277 341.766 502.429 351.53 510.265C358.454 515.822 364.835 522.045 372.461 526.743C376.475 529.215 374.915 533.579 374.669 537.068C374.477 539.96 371.479 538.12 369.796 538.593C361.575 540.889 356.631 535.175 351.337 530.74C336.629 518.434 322.009 506.04 307.477 493.541C301.815 488.685 299.15 481.656 295.276 475.502C288.702 465.037 288.685 453.345 288.702 441.547C288.807 395.408 288.807 349.286 288.632 303.147C288.615 298.659 289.596 297.327 294.207 297.485C305.093 297.836 305.093 297.573 305.093 308.581V378.333H305.058L305.093 378.298Z" fill="#FCD1A3"/>
<path d="M66.0005 290.174C66.0005 299.974 66.0005 309.79 66.0005 319.59C66.0005 321.36 66.281 323.078 64.3001 324.34C55.1494 330.16 49.3995 339.258 42.7557 347.427C41.1078 349.461 39.7405 350.074 37.4791 350.022C26.1021 349.776 17.1443 341.502 17.2495 330.265C17.4072 312.104 17.267 293.961 17.302 275.8C17.302 264.475 24.8925 256.657 36.3572 256.394C44.7015 256.201 53.0633 256.517 61.4076 256.271C64.9662 256.166 66.1232 257.148 66.0355 260.776C65.8076 270.576 65.9654 280.375 65.9654 290.192H66.018L66.0005 290.174Z" fill="#60B7FF"/>
<path d="M401.21 301.78C400.228 311.738 402.349 322.063 400 332.265C398.142 340.311 390.604 347.131 382.488 347.849C379.332 348.13 377.071 347.586 374.915 344.431C369.621 336.648 362.626 330.267 355.456 324.201C353.686 322.711 353.09 321.484 352.967 319.381C352.143 305.269 352.231 291.14 352.213 277.011C352.213 270.84 352.038 264.687 351.95 258.516C351.933 256.886 351.705 255.133 354.282 255.256C365.098 255.764 376.019 253.994 386.73 256.308C392.901 257.64 399.474 262.864 400.491 272.295C401.543 282.059 400.421 291.788 401.175 301.798L401.21 301.78Z" fill="#60B7FF"/>
<path d="M179.578 292.769C198.615 296.38 217.162 296.713 235.674 292.121C236.971 291.805 238.759 290.192 238.706 292.839C238.461 304.059 241.161 315.716 235.253 326.199C228.118 338.891 215.83 344.588 203.489 341.888C190.061 338.961 180.104 329.512 179.613 314.244C179.385 307.196 179.578 300.132 179.578 292.769Z" fill="#FCD1A3"/>
<path d="M305.11 271.26C305.157 277.933 301.75 281.269 294.89 281.269C289.894 281.269 284.705 280.533 280.235 283.426C274.766 286.967 271.575 291.893 272.505 298.729C273.013 302.428 271.821 303.655 267.877 303.62C255.202 303.498 255.343 303.673 255.115 290.858C255.045 286.528 255.781 283.881 260.269 281.638C271.4 276.081 280.323 267.508 288.474 258.182C289.929 256.517 302.341 254.904 303.252 256.605C304.444 258.831 304.742 261.601 305.058 264.178C305.338 266.492 305.11 268.876 305.11 271.242V271.26Z" fill="#60B7FF"/>
<path d="M163.135 294.628C163.135 301.29 160.002 304.62 153.738 304.62C152.827 304.62 151.898 304.498 151.021 304.638C146.165 305.392 144.114 303.691 144.763 298.52C146.113 287.809 137.786 283.269 129.039 282.375C128.863 282.357 128.67 282.375 128.495 282.375C123.499 281.972 116.627 284.619 113.98 281.288C111.473 278.15 113.209 271.576 113.191 266.528C113.156 257.342 113.191 257.465 122.623 257.289C125.883 257.237 128.004 258.131 130.353 260.638C138.803 269.683 147.27 278.939 158.997 283.882C164.782 286.319 162.766 291.052 163.135 294.628Z" fill="#60B7FF"/>
<path d="M335.875 269.278C334.736 281.953 337.208 294.522 337.05 307.161C336.997 311.175 336.559 312.998 332.124 310.702C328.793 308.984 323.622 308.809 322.044 306.249C320.256 303.339 321.483 298.518 321.536 294.539C321.764 279.744 319.765 265.001 320.326 250.188C320.449 246.665 320.835 245.192 324.902 245.262C335.875 245.473 335.875 245.262 335.875 256.218V269.278Z" fill="white"/>
<path d="M83.0923 309.843C81.4796 303.988 82.4963 298.028 82.4613 292.12C82.3561 278.412 82.5139 264.686 81.2868 251.012C80.9887 247.752 81.6724 246.314 85.529 246.367C96.8008 246.507 97.0638 246.297 96.7307 257.533C96.31 271.785 98.5538 285.949 97.9228 300.201C97.5546 308.44 97.204 309.299 88.8948 310.614C87.2294 310.877 85.3011 311.386 83.6183 310.264L83.5657 309.808H83.1099L83.0923 309.843Z" fill="white"/>
<path d="M104.567 171.513C104.567 175.861 104.216 180.261 104.654 184.573C105.128 189.131 103.217 189.832 99.2026 189.78C85.1786 189.569 85.9499 191.042 85.985 176.597C86.0025 170.426 86.0726 164.256 85.985 158.085C85.9324 154.492 87.5627 152.949 91.1213 152.721C104.532 151.88 104.532 151.827 104.532 164.992C104.532 167.166 104.532 169.34 104.532 171.531L104.567 171.513Z" fill="#FCD1A3"/>
<path d="M312.648 169.585C312.648 167.236 312.508 164.87 312.683 162.521C312.946 158.979 310.965 153.633 313.507 152.301C316.943 150.512 321.974 151.336 326.252 151.757C329.793 152.108 331.125 155.263 331.195 158.436C331.37 166.219 331.528 174.038 331.142 181.804C330.932 186.081 328.776 188.868 323.552 188.763C312.666 188.535 312.666 188.763 312.666 177.737C312.666 175.019 312.666 172.302 312.666 169.585H312.648Z" fill="#FCD1A3"/>
<path d="M83.0922 309.844H83.5479L83.6005 310.282C83.7057 311.386 83.5479 312.368 82.2683 313.052C82.1981 311.825 81.2515 310.545 83.1097 309.844H83.0922Z" fill="#E19974"/>
<path d="M207.082 218.022C215.602 218.022 224.104 218.022 232.623 218.022C239.232 218.022 241.774 221.37 239.6 227.506C235.218 239.934 226.26 248.016 213.761 250.821C206.346 252.486 198.37 251.557 191.182 247.28C183.907 242.95 178.666 237.147 175.546 229.329C175.125 228.295 174.371 227.313 174.248 226.261C173.74 221.843 174.739 217.812 180.84 217.969C189.57 218.18 198.317 218.022 207.065 218.022H207.082ZM201.665 229.189H188.15C189.622 230.854 189.798 233.028 192.041 233.238C191.901 234.325 192.637 234.938 193.339 235.517C198.703 239.934 205.101 241.337 211.622 239.97C216.32 238.988 221.019 236.849 223.893 232.361C224.349 231.257 226.032 230.942 225.804 229.171H213.13C209.308 228.873 205.487 228.873 201.665 229.171V229.189Z" fill="black"/>
<path d="M262.495 190.358C261.232 190.358 259.953 190.341 258.69 190.358C257.306 190.393 256.657 189.832 256.464 188.377C255.605 181.839 254.676 180.962 247.839 179.963C241.494 179.034 237.988 180.997 235.551 186.642C235.27 187.291 234.99 187.887 235.078 188.553C235.323 190.218 234.411 190.428 233.062 190.376C231.221 190.288 229.38 190.358 227.54 190.358C223.876 190.358 223.157 189.534 224.104 185.958C228.802 168.113 246.788 164.116 259.655 172.004C265.492 175.598 267.701 181.786 268.297 188.5C268.437 190.078 267.736 190.499 266.299 190.376C265.036 190.271 263.774 190.358 262.495 190.358Z" fill="black"/>
<path d="M190.657 190.359C189.482 190.359 188.43 190.219 187.431 190.377C182.312 191.236 178.806 189.991 177.316 184.294C176.457 181.033 170.375 178.544 166.746 179.315C160.33 180.683 158.717 181.033 157.648 188.852C157.472 190.079 157.104 190.412 155.982 190.342C154.948 190.289 153.896 190.429 152.88 190.307C150.776 190.044 147.568 191.464 146.814 189.658C145.762 187.099 146.025 183.733 147.393 181.033C152.143 171.655 159.033 167.465 169.481 168.254C179.718 169.025 187.098 175.809 189.763 184.118C190.411 186.134 189.5 188.221 190.657 190.342V190.359Z" fill="black"/>
<path d="M223.876 232.379C221.001 236.867 216.303 239.005 211.605 239.987C205.102 241.354 198.703 239.952 193.321 235.534C192.62 234.956 191.884 234.342 192.024 233.255C194.426 229.995 198.458 230.573 201.648 229.206C205.47 228.908 209.291 228.908 213.095 229.206C216.671 230.275 220.265 231.327 223.859 232.396L223.876 232.379Z" fill="#A65D4E"/>
<path d="M201.666 229.188C198.475 230.572 194.443 229.994 192.042 233.237C189.798 233.027 189.622 230.835 188.15 229.188H201.666Z" fill="#FDADC8"/>
<path d="M146.306 141.731C146.569 139.908 147.586 139.242 149.426 139.259C155.649 139.364 161.82 140.031 168.008 140.644C173.144 141.152 178.316 141.538 183.364 142.66C186.59 143.379 189.868 143.905 193.023 145.237C194.882 146.026 197.16 146.008 199.176 146.815C202.419 148.112 205.838 149.251 209.256 149.321C212.587 149.392 216.023 148.883 219.318 147.884C224.034 146.464 228.715 144.974 233.553 143.852C236.848 143.098 240.214 142.397 243.492 141.433C245.841 140.749 248.523 141.17 251.065 140.732C255.045 140.031 259.129 140.153 263.108 139.627C269.489 138.786 275.783 139.575 282.058 139.908C286.301 140.136 290.613 140.627 294.855 141.573C299.746 142.66 304.742 143.256 309.528 144.886C311.561 145.588 312.368 146.745 312.298 148.725C312.175 152.635 312.035 156.544 311.912 160.436C311.912 160.909 311.912 161.365 311.474 161.698C305.689 165.887 304.637 172.251 303.322 178.684C301.867 185.854 299.834 192.901 296.293 199.422C290.788 209.555 282.409 215.392 270.892 216.935C266.422 217.531 261.969 217.32 257.534 217.25C254.431 217.198 251.381 216.216 248.348 215.462C243.229 214.2 238.321 212.465 233.886 209.572C229.065 206.417 225.647 202.052 222.859 197.108C219.581 191.306 217.425 185.083 215.847 178.614C215.269 176.265 214.182 174.021 213.604 171.672C213.2 170.007 211.991 169.13 210.764 169.236C209.624 169.341 208.748 170.55 208.257 171.953C207.275 174.74 206.259 177.632 205.417 180.367C204.611 183.014 203.962 185.924 203.051 188.606C200.754 195.443 197.213 201.631 191.814 206.504C190.254 207.924 188.764 209.73 186.222 209.818C185.363 209.853 185.152 211.22 184.118 211.711C178.158 214.568 172.093 216.707 165.414 217.408C156.14 218.372 147.217 217.741 138.821 213.499C132.212 210.168 127.987 204.629 124.989 197.985C121.185 189.553 119.204 180.648 117.381 171.637C116.75 168.464 114.594 165.922 111.982 164.047C110.65 163.1 110.106 162.066 110.054 160.611C109.913 156.053 110.369 151.478 109.896 146.92C109.773 145.798 110.527 145.255 111.474 144.939C116.838 143.133 122.377 141.871 127.969 141.293C130.406 141.047 132.79 140.592 135.192 140.276C136.805 140.066 137.681 141.135 138.242 142.502C137.716 143.449 137.313 144.29 136.016 144.729C134.035 145.395 132.142 145.658 130.055 145.64C128.846 145.64 127.251 145.325 126.427 145.851C123.639 147.656 120.467 147.639 117.434 148.2C114.962 148.655 114.191 149.006 114.664 151.39C115.172 153.967 114.997 156.526 115.067 159.086C115.085 159.98 115.383 160.488 116.137 161.154C118.836 163.573 121.413 166.361 122.079 170.007C122.816 173.899 124.481 177.58 124.516 181.594C124.516 182.909 125.726 183.523 125.778 185.048C125.883 187.642 126.567 190.482 128.793 192.445C128.793 192.533 128.793 192.621 128.793 192.708C128.565 195.022 130.652 196.407 131.125 198.406C131.633 200.597 132.948 202.175 134.473 203.665C134.683 203.892 134.876 204.103 135.087 204.331L135.209 204.453C137.839 207.451 140.889 209.765 144.851 210.764C147.586 211.448 150.197 212.412 153.072 212.763C157.998 213.359 162.819 212.991 167.675 212.359C171.496 211.869 174.88 210.028 178.438 208.801C183.96 206.908 188.536 203.647 192.059 198.861C195.565 194.111 198.019 188.887 199.772 183.295C200.684 180.385 201.911 177.562 202.525 174.6C203.103 171.795 203.647 169.06 205.47 166.764C208.625 164.555 211.973 164.099 215.339 166.045C217.828 167.483 218.705 169.902 219.389 172.724C220.616 177.843 222.123 182.891 224.192 187.817C226.348 192.971 228.522 197.897 232.781 201.666C232.168 202.245 232.887 202.49 233.132 202.665C238.041 206.049 242.914 209.257 249.014 210.449C254.098 211.448 259.182 212.465 264.336 212.5C267.719 212.517 271.12 211.606 274.503 210.904C279.955 209.765 284.022 206.68 287.808 203.174C289.894 201.245 291.157 198.335 292.454 195.688C296.135 188.168 297.66 179.964 299.518 171.9C300.255 168.675 301.078 165.537 303.392 163.24C306.934 159.734 308.003 155.895 306.776 151.057C306.39 149.514 306.197 148.743 304.497 148.585C302.989 148.445 301.534 147.866 300.044 147.481C293.172 146.113 286.266 144.799 279.271 144.553C272.469 144.325 265.65 144.308 258.814 144.851C249.768 145.57 240.898 147.165 232.098 149.251C227.505 150.338 222.912 151.513 218.477 153.09C212.745 155.159 207.17 154.563 201.701 152.687C199.211 151.828 196.705 151.057 194.198 150.233C191.305 149.286 188.203 149.181 185.345 147.954C182.716 146.815 179.227 148.392 177.071 145.482C176.983 145.377 176.545 145.377 176.405 145.482C175.213 146.394 173.968 145.482 172.916 145.605C169.165 146.008 165.624 144.799 161.943 144.746C157.665 144.694 153.335 144.536 149.041 144.413C147.288 144.36 146.288 143.537 146.288 141.696L146.306 141.731Z" fill="black"/>
<path d="M146.306 141.73C146.306 143.554 147.305 144.395 149.058 144.448C153.353 144.57 157.683 144.728 161.96 144.781C165.659 144.833 169.2 146.043 172.934 145.64C173.985 145.534 175.23 146.429 176.422 145.517C176.562 145.412 177.001 145.412 177.088 145.517C179.244 148.409 182.715 146.849 185.362 147.989C188.22 149.216 191.323 149.321 194.215 150.268C196.704 151.092 199.229 151.863 201.718 152.722C207.187 154.598 212.762 155.194 218.494 153.125C222.929 151.53 227.522 150.373 232.115 149.286C240.915 147.2 249.768 145.605 258.831 144.886C265.668 144.342 272.469 144.342 279.288 144.588C286.283 144.833 293.19 146.148 300.061 147.515C300.447 149.899 299.588 151.67 297.748 153.265C295.206 155.456 293.628 158.366 292.664 161.592C291.647 159.541 290.963 157.297 288.912 155.895C284.004 152.547 278.394 151.407 272.662 151.197C266.106 150.969 259.567 151.074 253.011 152.003C248.208 152.687 243.299 152.687 238.549 153.949C233.325 155.351 228.872 157.823 226.155 162.749C222.666 169.077 224.104 175.686 225.857 181.909C227.207 186.713 229.626 191.358 232.518 195.6C232.448 195.986 232.36 196.389 232.869 196.564C235.639 199.387 239.039 201.455 241.932 204.102C241.055 204.19 240.267 203.945 239.425 203.664C237.251 202.928 235.008 202.332 232.799 201.701C228.556 197.932 226.383 192.988 224.209 187.852C222.14 182.926 220.633 177.877 219.406 172.759C218.74 169.936 217.846 167.517 215.356 166.08C211.991 164.134 208.625 164.59 205.487 166.798C202.77 166.01 200.07 165.747 197.476 167.237C196.599 165.431 195.916 163.485 194.934 161.802C192.672 157.928 188.991 155.702 184.731 154.475C181.331 153.511 177.912 152.845 174.354 152.494C167.377 151.81 160.382 151.249 153.388 151.302C150.6 151.319 147.831 151.828 145.043 152.091C140.03 152.582 135.402 154.159 131.177 156.911C130.862 156.841 130.721 156.982 130.791 157.297C130.038 158.664 129.074 159.786 128.688 161.487C128.109 164.099 127.741 166.535 128.285 169.2C128.653 171.006 128.407 172.934 128.442 174.81C128.372 175.213 128.267 175.634 128.846 175.739C129.021 176.493 128.811 177.246 128.968 178.035C129.74 182.05 130.441 186.064 131.756 189.938C131.756 190.254 131.756 190.569 131.756 190.885C133 192.603 133.544 194.741 134.718 196.407C137.383 200.211 140.801 203.349 144.973 205.54C142.94 205.715 140.994 205.294 139.013 204.821C137.803 204.523 136.559 203.664 135.227 204.488L135.104 204.365C135.384 203.699 134.893 203.734 134.49 203.699C132.965 202.209 131.65 200.631 131.142 198.44C130.686 196.442 128.583 195.057 128.811 192.743C128.933 192.69 129.056 192.62 129.161 192.568L128.811 192.497C126.584 190.534 125.901 187.694 125.795 185.1C125.743 183.575 124.533 182.961 124.533 181.646C124.498 177.632 122.833 173.951 122.097 170.059C121.413 166.413 118.854 163.625 116.154 161.206C115.4 160.54 115.12 160.032 115.085 159.138C115.032 156.578 115.19 154.019 114.681 151.442C114.208 149.058 114.997 148.707 117.451 148.252C120.466 147.691 123.657 147.726 126.444 145.903C127.268 145.377 128.863 145.675 130.073 145.692C132.159 145.71 134.052 145.447 136.033 144.781C137.33 144.342 137.733 143.501 138.259 142.554C140.889 141.678 143.694 142.66 146.306 141.766V141.73Z" fill="#FFF345"/>
<path d="M232.781 201.666C234.99 202.314 237.234 202.893 239.408 203.629C240.249 203.91 241.038 204.155 241.914 204.067C242.458 204.102 243.054 204.015 243.545 204.208C247.682 205.926 251.889 206.977 256.394 207.538C263.95 208.467 270.997 207.538 277.851 204.33C282.374 202.209 284.916 198.23 287.685 194.408C289.088 192.48 288.685 191.06 286.809 189.816C287.738 187.204 288.877 184.662 289.228 181.874C290.806 181.927 291.595 180.98 291.998 179.613C292.366 178.386 292.629 177.211 292.681 175.862C292.804 171.987 293.961 168.148 292.979 164.239C292.752 163.363 292.348 162.504 292.664 161.557C293.646 158.332 295.206 155.422 297.748 153.23C299.588 151.635 300.465 149.865 300.062 147.48C301.552 147.866 303.007 148.445 304.514 148.585C306.215 148.743 306.39 149.514 306.793 151.057C308.02 155.877 306.951 159.734 303.41 163.24C301.096 165.536 300.272 168.674 299.536 171.9C297.678 179.964 296.17 188.168 292.471 195.688C291.174 198.335 289.912 201.245 287.826 203.173C284.057 206.679 279.972 209.765 274.52 210.904C271.137 211.605 267.736 212.534 264.353 212.499C259.199 212.464 254.133 211.448 249.032 210.448C242.931 209.256 238.04 206.048 233.149 202.665C232.904 202.49 232.185 202.244 232.799 201.666H232.781Z" fill="#FFEA05"/>
<path d="M197.458 167.202C200.053 165.712 202.752 165.975 205.469 166.764C203.646 169.06 203.103 171.795 202.524 174.6C201.911 177.562 200.684 180.402 199.772 183.295C198.019 188.887 195.547 194.093 192.059 198.861C188.535 203.647 183.96 206.89 178.438 208.801C174.862 210.028 171.496 211.851 167.675 212.359C162.819 212.99 158.016 213.376 153.072 212.763C150.197 212.412 147.585 211.448 144.851 210.764C140.889 209.765 137.838 207.451 135.209 204.453C136.541 203.629 137.786 204.488 138.995 204.786C140.959 205.26 142.922 205.68 144.956 205.505C149.391 207.118 153.896 208.38 158.682 208.362C163.59 208.362 168.341 207.486 173.004 205.996C181.418 203.331 188.22 198.703 192.164 190.517C195.723 183.154 197.791 175.441 197.458 167.202Z" fill="#FFEA05"/>
<path d="M134.473 203.664C134.876 203.699 135.367 203.664 135.086 204.33C134.876 204.102 134.683 203.892 134.473 203.664Z" fill="#FFEA05"/>
<path d="M128.793 192.445L129.144 192.515C129.021 192.568 128.898 192.638 128.793 192.691C128.793 192.603 128.793 192.515 128.793 192.428V192.445Z" fill="#010100"/>
<path d="M197.458 167.202C197.791 175.459 195.723 183.154 192.164 190.517C188.22 198.703 181.418 203.331 173.004 205.996C168.323 207.468 163.59 208.345 158.682 208.362C153.896 208.362 149.391 207.118 144.956 205.505C140.784 203.314 137.365 200.176 134.701 196.372C133.526 194.707 132.983 192.55 131.738 190.85C132.036 190.797 132.404 190.762 132.404 190.377C132.404 189.991 132.054 189.956 131.738 189.903C130.441 186.029 129.74 181.997 128.951 178C128.793 177.212 129.003 176.458 128.828 175.704C129.529 175.038 129.021 174.88 128.425 174.775C128.39 172.899 128.635 170.971 128.267 169.165C127.724 166.501 128.092 164.064 128.67 161.452C129.056 159.752 130.02 158.63 130.774 157.262L131.16 156.877C135.384 154.124 140.012 152.547 145.026 152.056C147.813 151.793 150.583 151.285 153.37 151.267C160.382 151.215 167.359 151.775 174.336 152.459C177.877 152.81 181.313 153.458 184.714 154.44C188.991 155.667 192.655 157.893 194.916 161.768C195.916 163.45 196.582 165.396 197.458 167.202ZM156.859 156.333C151.442 156.228 146.06 156.631 140.784 157.823C138.522 158.332 136.226 158.945 134.508 160.751C132.755 162.609 132.93 164.835 133.018 167.132C133.351 174.74 134.648 182.19 137.488 189.237C141.204 198.458 145.815 202.56 158.209 203.156C163.871 203.419 169.217 201.999 174.406 200.088C178.088 198.738 181.629 196.863 184.17 193.55C188.851 187.432 190.99 180.437 192.34 172.952C193.461 166.711 189.64 161.294 184.258 159.506C182.032 158.77 179.806 158.121 177.492 157.999C175.335 157.876 173.442 156.964 171.111 157.034C166.395 157.14 161.627 156.246 156.841 156.333H156.859Z" fill="black"/>
<path d="M292.629 161.574C292.313 162.52 292.734 163.362 292.944 164.256C293.943 168.165 292.786 172.004 292.646 175.878C292.594 177.228 292.331 178.403 291.962 179.63C291.559 180.997 290.77 181.944 289.193 181.891C288.86 181.593 288.281 181.313 288.229 180.962C287.825 178.262 287.475 175.528 288.632 172.933C288.807 172.548 289.298 172.074 289.052 171.794C287.527 170.076 288.474 168.025 288.193 166.149C287.44 161.276 287.773 160.277 282.566 158.471C278.254 156.963 273.749 156.578 269.243 156.385C263.073 156.122 256.902 156.876 250.732 157.156C245.893 157.384 241.283 158.138 236.76 159.681C231.677 161.416 228.311 166.64 229.082 171.671C229.678 175.51 230.52 179.297 231.852 182.978C234.744 190.972 239.022 197.545 247.682 200.42C252.835 202.138 258.024 202.822 263.406 202.682C272.206 202.471 279.534 199.772 283.39 191.077C284.109 189.464 285.196 189.043 286.774 189.815C288.632 191.042 289.052 192.462 287.65 194.408C284.88 198.229 282.338 202.208 277.816 204.33C270.961 207.555 263.914 208.484 256.359 207.538C251.854 206.977 247.647 205.925 243.509 204.207C243.036 204.014 242.423 204.102 241.879 204.067C238.969 201.402 235.586 199.351 232.816 196.529C233.552 195.898 233.097 195.705 232.465 195.564C229.556 191.322 227.154 186.677 225.804 181.874C224.051 175.65 222.631 169.042 226.102 162.713C228.819 157.77 233.254 155.298 238.496 153.913C243.246 152.651 248.137 152.651 252.958 151.967C259.497 151.038 266.053 150.933 272.609 151.161C278.359 151.354 283.951 152.511 288.86 155.859C290.928 157.261 291.594 159.505 292.611 161.556L292.629 161.574Z" fill="black"/>
<path d="M128.407 174.775C129.003 174.881 129.512 175.038 128.811 175.704C128.232 175.582 128.337 175.179 128.407 174.775Z" fill="#010100"/>
<path d="M131.721 189.902C132.019 189.955 132.387 189.99 132.387 190.376C132.387 190.761 132.036 190.796 131.721 190.849C131.721 190.533 131.721 190.218 131.721 189.902Z" fill="#010100"/>
<path d="M232.483 195.582C233.114 195.705 233.57 195.898 232.834 196.546C232.308 196.371 232.413 195.985 232.483 195.582Z" fill="#010100"/>
<path d="M131.16 156.876L130.774 157.262C130.704 156.929 130.844 156.806 131.16 156.876Z" fill="#010100"/>
<path d="M286.809 189.815C285.231 189.043 284.144 189.464 283.426 191.077C279.569 199.772 272.241 202.454 263.441 202.682C258.06 202.822 252.871 202.138 247.717 200.42C239.057 197.528 234.78 190.972 231.887 182.978C230.555 179.297 229.713 175.51 229.117 171.671C228.329 166.64 231.712 161.416 236.796 159.681C241.318 158.138 245.929 157.367 250.767 157.156C256.938 156.876 263.091 156.122 269.279 156.385C273.766 156.578 278.272 156.963 282.602 158.471C287.826 160.294 287.475 161.293 288.229 166.149C288.527 168.025 287.563 170.076 289.088 171.794C289.351 172.092 288.842 172.548 288.667 172.933C287.51 175.528 287.861 178.262 288.264 180.962C288.316 181.313 288.895 181.576 289.228 181.891C288.895 184.678 287.738 187.22 286.809 189.832V189.815ZM258.445 192.882C258.778 191.147 257.481 190.674 255.973 190.376C250.592 189.306 246.069 187.08 244.036 181.488C243.51 180.033 242.949 178.578 242.3 177.158C241.651 175.738 240.267 175.878 239.267 176.369C238.321 176.825 237.392 177.491 237.812 179.121C240.214 188.29 245.946 193.759 255.29 195.477C257.166 195.827 258.41 194.916 258.445 192.882Z" fill="#83888C"/>
<path d="M156.859 156.332C161.644 156.245 166.412 157.139 171.128 157.034C173.46 156.981 175.37 157.893 177.509 157.998C179.823 158.12 182.049 158.769 184.276 159.505C189.657 161.293 193.479 166.71 192.357 172.951C191.007 180.436 188.868 187.431 184.188 193.549C181.646 196.879 178.105 198.738 174.424 200.087C169.252 201.998 163.906 203.418 158.226 203.155C145.832 202.559 141.222 198.457 137.505 189.236C134.666 182.189 133.368 174.739 133.035 167.131C132.93 164.834 132.772 162.608 134.525 160.75C136.243 158.944 138.54 158.331 140.801 157.822C146.078 156.63 151.459 156.227 156.859 156.332ZM155.842 196.055C158.279 196.108 159.576 195.267 159.541 193.514C159.506 191.322 157.998 190.919 156.175 190.814C152.423 190.604 149.794 188.938 148.567 185.169C147.901 183.118 147.042 181.102 146.533 178.999C146.095 177.158 145.026 176.194 143.15 176.808C141.327 177.404 141.309 178.876 141.818 180.454C142.554 182.68 143.238 184.906 144.009 187.115C145.972 192.725 150.267 195.95 155.859 196.055H155.842Z" fill="#83888C"/>
<path d="M258.445 192.882C258.41 194.898 257.166 195.81 255.29 195.477C245.964 193.759 240.214 188.289 237.813 179.121C237.392 177.491 238.321 176.825 239.268 176.369C240.284 175.878 241.652 175.738 242.3 177.158C242.949 178.56 243.492 180.033 244.036 181.488C246.069 187.08 250.592 189.306 255.974 190.375C257.481 190.673 258.761 191.164 258.445 192.882Z" fill="#010100"/>
<path d="M155.842 196.056C150.25 195.951 145.937 192.726 143.991 187.116C143.22 184.907 142.536 182.681 141.8 180.455C141.292 178.877 141.292 177.404 143.132 176.808C145.026 176.177 146.078 177.141 146.516 179C147.024 181.121 147.883 183.119 148.549 185.17C149.776 188.957 152.406 190.622 156.157 190.815C157.998 190.92 159.488 191.306 159.523 193.514C159.558 195.25 158.261 196.091 155.824 196.056H155.842Z" fill="#010100"/>
</g>
<defs>
<clipPath id="clip0_2745_133">
<rect width="416.759" height="556" fill="white" transform="translate(0.683594)"/>
</clipPath>
</defs>
</svg>
